<?xml version="1.0" encoding="UTF-8" standalone="no"?>
<!-- Generator: Adobe Illustrator 25.0.0, SVG Export Plug-In . SVG Version: 6.00 Build 0)  -->

<svg
   version="1.1"
   id="Icon"
   x="0px"
   y="0px"
   viewBox="0 0 24 24"
   enable-background="new 0 0 24 24"
   xml:space="preserve"
   sodipodi:docname="car_repair_outline_white.svg"
   inkscape:version="1.1 (c68e22c387, 2021-05-23)"
   xmlns:inkscape="http://www.inkscape.org/namespaces/inkscape"
   xmlns:sodipodi="http://sodipodi.sourceforge.net/DTD/sodipodi-0.dtd"
   xmlns="http://www.w3.org/2000/svg"
   xmlns:svg="http://www.w3.org/2000/svg"><defs
   id="defs22602" /><sodipodi:namedview
   id="namedview22600"
   pagecolor="#ffffff"
   bordercolor="#666666"
   borderopacity="1.0"
   inkscape:pageshadow="2"
   inkscape:pageopacity="0.0"
   inkscape:pagecheckerboard="0"
   showgrid="false"
   inkscape:zoom="35.083333"
   inkscape:cx="11.985748"
   inkscape:cy="11.985748"
   inkscape:window-width="1920"
   inkscape:window-height="1027"
   inkscape:window-x="-8"
   inkscape:window-y="-8"
   inkscape:window-maximized="1"
   inkscape:current-layer="Icon" />
<path
   d="M18,19.25v1.5c0,0.276-0.224,0.5-0.5,0.5h-5.78C11.245,22.281,10.209,23,9,23c-1.304,0-2.403-0.837-2.816-2H9v-2H6.184  C6.597,17.837,7.696,17,9,17c1.209,0,2.245,0.719,2.72,1.75h5.78C17.776,18.75,18,18.974,18,19.25z M16.5,12c0.8,0,1.5-0.7,1.5-1.5  S17.3,9,16.5,9S15,9.7,15,10.5S15.7,12,16.5,12z M21,8v8c0,0.5-0.5,1-1,1h-1c-0.5,0-1-0.5-1-1v-1H6v1c0,0.5-0.4,1-1,1H4  c-0.5,0-1-0.5-1-1V8l2.1-6c0.2-0.6,0.7-1,1.4-1h11c0.6,0,1.2,0.4,1.4,1L21,8z M5.8,6h12.4l-1.1-3H6.8L5.8,6z M19,8H5v5h14V8z   M7.5,12C8.3,12,9,11.3,9,10.5S8.3,9,7.5,9S6,9.7,6,10.5S6.7,12,7.5,12z"
   id="path22597" />
<path
   style="fill:#ffffff;stroke-width:0.0285036"
   d="M 8.3942993,22.91836 C 7.4953424,22.727274 6.7100434,22.100049 6.313466,21.25638 l -0.1104662,-0.235002 1.409189,-0.0074 1.4091889,-0.0074 v -1.011345 -1.011344 l -1.41071,-0.0074 -1.41071,-0.0074 0.1280064,-0.261846 c 0.7963692,-1.62903 2.7863916,-2.18341 4.2988149,-1.197563 0.399788,0.260596 0.741151,0.630692 0.97628,1.058456 l 0.102885,0.187176 2.926125,0.0022 c 2.167067,0.0016 2.948572,0.01085 3.012654,0.03563 0.132123,0.05109 0.200728,0.109592 0.274064,0.233689 0.06507,0.110114 0.06722,0.134866 0.07617,0.877098 0.01211,1.004416 -0.02218,1.154638 -0.291422,1.276914 -0.111471,0.05062 -0.251592,0.0531 -3.052701,0.05399 l -2.935867,9.29e-4 -0.117731,0.206349 c -0.451551,0.791435 -1.15477,1.30378 -2.0402118,1.486441 -0.2980971,0.06149 -0.8481643,0.05667 -1.1627219,-0.01019 z"
   id="path22678" /><path
   style="fill:#ffffff;stroke-width:0.0285036"
   d="M 3.8194774,16.961322 C 3.5380679,16.892323 3.2344807,16.63044 3.0977688,16.338757 L 3.0213777,16.175772 3.013869,12.103707 3.0063604,8.0316419 4.0632793,5.0063199 C 4.6445847,3.3423926 5.1587689,1.9005387 5.2059108,1.8022001 5.3725738,1.454539 5.6957478,1.1855127 6.0835582,1.0716023 c 0.1395036,-0.040976 0.7217105,-0.045405 5.8859858,-0.044777 3.829989,4.656e-4 5.773455,0.010441 5.858642,0.03007 0.347479,0.080069 0.748888,0.3757797 0.931308,0.6860785 0.05261,0.089493 0.532721,1.4202565 1.161903,3.2205555 l 1.072243,3.0680426 -0.0075,4.0721001 -0.0075,4.0721 -0.07639,0.162985 c -0.10132,0.216174 -0.310704,0.435073 -0.52172,0.545431 l -0.171485,0.08968 h -0.698888 -0.698889 l -0.18999,-0.09351 C 18.410688,16.776711 18.213644,16.58106 18.115346,16.378002 18.027766,16.19708 18.00037,15.977781 18.000184,15.456051 L 18,14.992874 H 12.003541 6.0070829 l -0.013616,0.591449 C 5.9766559,16.314551 5.9462789,16.419674 5.6730532,16.693125 5.525118,16.841183 5.4677675,16.877739 5.304136,16.92828 5.1315679,16.98158 5.0444903,16.98781 4.5076863,16.98521 4.1762022,16.98361 3.8665082,16.97286 3.8194773,16.96133 Z m 15.1996796,-6.464885 0.0073,-2.5154394 H 12.000155 4.9738717 V 10.48456 c 0,1.37696 0.00858,2.51214 0.019059,2.522623 0.010483,0.01048 3.1690337,0.01583 7.0190033,0.01188 l 6.999942,-0.0072 z M 18.199001,5.9786223 C 18.198713,5.9590261 17.956008,5.2824228 17.659657,4.4750594 l -0.538819,-1.4679335 -5.168675,-0.0072 -5.168675,-0.0072 -0.4915063,1.4754384 C 6.021653,5.2796505 5.8004751,5.959495 5.8004751,5.9789248 c 0,0.027992 1.287214,0.035327 6.1995249,0.035327 4.940897,0 6.199419,-0.00723 6.199001,-0.03563 z"
   id="path22717" /><path
   style="fill:#ffffff;stroke-width:0.0285036"
   d="M 7.3254157,11.967337 C 6.7848225,11.9059 6.2891647,11.495092 6.0962428,10.948581 6.0087624,10.700766 6.0041859,10.346019 6.08509,10.084082 6.2464838,9.5615496 6.7522305,9.1240142 7.2992393,9.0336878 c 0.9089327,-0.15009 1.817163,0.7581402 1.6670729,1.6670732 -0.085646,0.518661 -0.4817905,1.001938 -0.9748713,1.189294 -0.1893257,0.07194 -0.4484638,0.102007 -0.6660252,0.07728 z"
   id="path22756" /><path
   style="fill:#ffffff;stroke-width:0.0285036"
   d="m 16.34616,11.969208 c -0.802504,-0.08831 -1.441429,-0.903369 -1.311587,-1.67316 0.132797,-0.7873075 0.922013,-1.3852441 1.666188,-1.2623602 0.547008,0.090326 1.052755,0.5278618 1.214149,1.0503942 0.30137,0.975724 -0.548807,1.99736 -1.56875,1.885126 z"
   id="path22795" /></svg>
