<?xml version="1.0" encoding="UTF-8" standalone="no"?>
<!-- Generator: Adobe Illustrator 25.0.0, SVG Export Plug-In . SVG Version: 6.00 Build 0)  -->

<svg
   version="1.1"
   id="Icon"
   x="0px"
   y="0px"
   viewBox="0 0 24 24"
   enable-background="new 0 0 24 24"
   xml:space="preserve"
   sodipodi:docname="car_wrench_b_white.svg"
   inkscape:version="1.1 (c68e22c387, 2021-05-23)"
   xmlns:inkscape="http://www.inkscape.org/namespaces/inkscape"
   xmlns:sodipodi="http://sodipodi.sourceforge.net/DTD/sodipodi-0.dtd"
   xmlns="http://www.w3.org/2000/svg"
   xmlns:svg="http://www.w3.org/2000/svg"><defs
   id="defs26576" /><sodipodi:namedview
   id="namedview26574"
   pagecolor="#ffffff"
   bordercolor="#666666"
   borderopacity="1.0"
   inkscape:pageshadow="2"
   inkscape:pageopacity="0.0"
   inkscape:pagecheckerboard="0"
   showgrid="false"
   inkscape:zoom="35.083333"
   inkscape:cx="11.985748"
   inkscape:cy="11.985748"
   inkscape:window-width="1920"
   inkscape:window-height="1027"
   inkscape:window-x="-8"
   inkscape:window-y="-8"
   inkscape:window-maximized="1"
   inkscape:current-layer="Icon" />
<path
   d="M15.5,10c0.687,0,1.26,0.464,1.438,1.094C17.705,11.24,18.4,11.569,19,12.023V9l-2.08-6c-0.2-0.58-0.76-1-1.42-1h-11  C3.84,2,3.28,2.42,3.08,3L1,9v8c0,0.552,0.448,1,1,1h1c0.552,0,1-0.448,1-1v-1h7c0-2.053,1.239-3.812,3.008-4.582  C14.052,10.628,14.7,10,15.5,10z M4.5,13C3.672,13,3,12.328,3,11.5S3.672,10,4.5,10S6,10.672,6,11.5S5.328,13,4.5,13z M3,8l1.5-4.5  h11L17,8H3z M22.83,21.828l-1.04,1.03c-0.18,0.19-0.45,0.19-0.63,0l-4.11-4.1c-1.04,0.4-2.26,0.18-3.12-0.68  c-0.88-0.91-1.13-2.26-0.59-3.35l1.99,1.95l1.35-1.36l-1.94-1.94c1.09-0.5,2.44-0.32,3.34,0.59c0.86,0.85,1.09,2.07,0.68,3.11  l4.11,4.11C23.05,21.328,23.05,21.648,22.83,21.828z"
   id="path26571" />
<path
   style="fill:#ffffff;stroke-width:0.0285036"
   d="m 21.277126,22.927299 c -0.03876,-0.02561 -1.002683,-0.977029 -2.142049,-2.114255 l -2.071573,-2.067684 -0.208712,0.06027 c -0.35749,0.103241 -0.577662,0.128826 -0.974989,0.113299 -0.290864,-0.01137 -0.430187,-0.03139 -0.627557,-0.09022 -1.141331,-0.340147 -1.935934,-1.235622 -2.137248,-2.408562 -0.05741,-0.334505 -0.05847,-0.607855 -0.0036,-0.922637 0.03788,-0.217244 0.200567,-0.732672 0.231251,-0.732672 0.0065,0 0.457045,0.43641 1.001157,0.9698 l 0.989293,0.969801 0.677858,-0.677416 c 0.372822,-0.37258 0.677858,-0.690274 0.677858,-0.705988 0,-0.01572 -0.430895,-0.459607 -0.957545,-0.986428 l -0.957545,-0.957855 0.198856,-0.07371 c 0.898882,-0.333184 1.942217,-0.1939 2.728111,0.364199 0.228578,0.162324 0.612042,0.565984 0.770797,0.811394 0.461713,0.713736 0.588618,1.61092 0.33883,2.39543 l -0.06808,0.213813 2.107001,2.109264 c 1.431261,1.432798 2.113116,2.134462 2.126068,2.187835 0.04881,0.201161 0.0093,0.260483 -0.552681,0.829366 -0.685364,0.693804 -0.766821,0.759521 -0.941433,0.759521 -0.07588,0 -0.164069,-0.02013 -0.204091,-0.04657 z"
   id="path26652" /><path
   style="fill:#ffffff;stroke-width:0.0285036"
   d="M 1.7326187,17.945502 C 1.4395708,17.85122 1.2312384,17.667703 1.1002693,17.388474 l -0.074141,-0.15807 -0.00759,-4.106102 -0.00759,-4.1061016 1.0536545,-3.0392617 C 2.6441047,4.3073446 3.1498505,2.8773148 3.1884742,2.8010946 3.3482448,2.4858023 3.6684194,2.2213606 4.0423844,2.0958247 l 0.2167155,-0.072749 5.7944401,0.00746 5.794441,0.00746 0.163483,0.066027 c 0.355896,0.143737 0.669829,0.4242811 0.819202,0.732073 0.03043,0.062708 0.530448,1.4846041 1.111145,3.1597693 l 1.055814,3.0457554 v 1.4754546 1.475456 l -0.275688,-0.181763 c -0.476173,-0.313945 -1.039474,-0.560829 -1.554684,-0.681389 l -0.21992,-0.05146 -0.04341,-0.12741 c -0.141646,-0.41571 -0.585164,-0.807186 -1.041687,-0.919456 -0.08622,-0.02121 -0.266187,-0.037221 -0.399919,-0.035593 -0.705582,0.00859 -1.320448,0.5274058 -1.435701,1.2114198 l -0.03292,0.195374 -0.170541,0.08065 c -1.316802,0.622749 -2.35592,1.90802 -2.696328,3.335052 -0.06948,0.291263 -0.137393,0.787125 -0.138145,1.008637 l -5.56e-4,0.163896 H 7.4821853 3.976247 v 0.597505 c 0,0.534506 -0.00622,0.614138 -0.059019,0.75525 -0.078102,0.208745 -0.2968338,0.44606 -0.5056318,0.548589 l -0.1621896,0.07964 -0.6983373,0.0063 c -0.5242333,0.0048 -0.7282829,-0.0033 -0.8184502,-0.03231 z M 4.9168646,12.949829 C 5.4067499,12.816172 5.8074678,12.417104 5.954526,11.916442 5.9815417,11.824466 6,11.655911 6,11.501188 6,11.346464 5.9815417,11.177909 5.954526,11.085933 5.6642802,10.097786 4.5098577,9.676513 3.652226,10.245776 c -0.5643424,0.37459 -0.8040548,1.106748 -0.5760189,1.759347 0.2630859,0.752906 1.054631,1.159161 1.8406575,0.944706 z M 17.002375,7.9883239 c 0,-0.011647 -0.336637,-1.0313624 -0.748083,-2.2660333 L 15.506209,3.4774347 H 10.000157 4.4941057 L 3.7386951,5.7434679 2.9832845,8.0095012 h 7.0095453 c 3.8552502,0 7.0095452,-0.00953 7.0095452,-0.021177 z"
   id="path26691" /></svg>
