<?xml version="1.0" encoding="UTF-8" standalone="no"?>
<svg
   version="1.1"
   width="24"
   height="24"
   viewBox="0 0 24 24"
   id="svg21952"
   sodipodi:docname="car_parking_lights_white.svg"
   inkscape:version="1.1 (c68e22c387, 2021-05-23)"
   xmlns:inkscape="http://www.inkscape.org/namespaces/inkscape"
   xmlns:sodipodi="http://sodipodi.sourceforge.net/DTD/sodipodi-0.dtd"
   xmlns="http://www.w3.org/2000/svg"
   xmlns:svg="http://www.w3.org/2000/svg">
  <defs
     id="defs21956" />
  <sodipodi:namedview
     id="namedview21954"
     pagecolor="#ffffff"
     bordercolor="#666666"
     borderopacity="1.0"
     inkscape:pageshadow="2"
     inkscape:pageopacity="0.0"
     inkscape:pagecheckerboard="0"
     showgrid="false"
     inkscape:zoom="35.083333"
     inkscape:cx="11.985748"
     inkscape:cy="11.985748"
     inkscape:window-width="1920"
     inkscape:window-height="1027"
     inkscape:window-x="-8"
     inkscape:window-y="-8"
     inkscape:window-maximized="1"
     inkscape:current-layer="svg21952" />
  <path
     d="M7.3,9.2C8.1,9.6 9,10.5 9,12C9,13.5 8.1,14.4 7.3,14.8C6.9,13.4 6.9,10.6 7.3,9.2M6.5,7C4.5,7 4.5,17 6.5,17C8.5,17 11,15.1 11,12C11,8.9 8.5,7 6.5,7M16.7,9.2C17,10.6 17,13.4 16.7,14.8C15.9,14.4 15,13.5 15,12C15,10.5 15.9,9.6 16.7,9.2M17.5,7C15.5,7 13,8.9 13,12C13,15.1 15.5,17 17.5,17C19.5,17 19.5,7 17.5,7M4.9,6.2L2.5,4.6L1.4,6.3L4,8C4.2,7.3 4.5,6.6 4.9,6.2M20,8L22.6,6.3L21.5,4.6L19.1,6.2C19.4,6.6 19.8,7.2 20,8M4,16L1.4,17.7L2.5,19.4L4.9,17.8C4.6,17.4 4.2,16.8 4,16M20.5,11C20.5,11.3 20.5,11.7 20.5,12C20.5,12.3 20.5,12.6 20.5,13H24V11H20.5M19.1,17.8L21.5,19.4L22.6,17.7L20,16C19.8,16.7 19.5,17.4 19.1,17.8M3.5,12C3.5,11.7 3.5,11.4 3.5,11H0V13H3.5C3.5,12.7 3.5,12.3 3.5,12Z"
     id="path21950" />
  <path
     style="fill:#ffffff;stroke-width:0.0285036"
     d="M 1.9703452,18.548533 C 1.5765123,17.939564 1.4439756,17.713264 1.467417,17.689807 1.4849232,17.67229 2.05887,17.291654 2.7428543,16.84395 l 1.2436078,-0.814008 0.1103108,0.329447 c 0.124553,0.371982 0.3356112,0.788903 0.5935958,1.172582 0.096224,0.143105 0.1641027,0.270125 0.1508426,0.282266 -0.01326,0.01214 -0.5443089,0.368373 -1.1801088,0.791624 l -1.1559996,0.769547 z"
     id="path22032" />
  <path
     style="fill:#ffffff;stroke-width:0.0285036"
     d="M 0.01425178,12 V 11.002375 H 1.7529691 3.4916865 V 12 12.997625 H 1.7529691 0.01425178 Z"
     id="path22071" />
  <path
     style="fill:#ffffff;stroke-width:0.0285036"
     d="M 2.7442344,7.1569537 C 2.059491,6.7087527 1.4849232,6.3277103 1.467417,6.3101928 1.4439756,6.2867363 1.5765123,6.0604362 1.9703452,5.4514673 L 2.5051029,4.6245916 3.6611025,5.3941392 C 4.2969024,5.8173904 4.827838,6.1735076 4.8409596,6.1855108 4.8540812,6.197514 4.7989248,6.2889506 4.71839,6.3887031 4.5308389,6.6210086 4.2347082,7.2178319 4.0967724,7.6415142 L 3.9892222,7.9718645 Z"
     id="path22110" />
  <path
     style="fill:#ffffff;stroke-width:0.0285036"
     d="M 6.3316002,16.958748 C 6.0307593,16.868624 5.7414952,16.470065 5.5188147,15.83886 4.9947982,14.353496 4.8623488,11.513383 5.2181602,9.391924 5.425066,8.1582864 5.7981076,7.3054561 6.2280707,7.0831135 6.5497915,6.9167453 7.5089146,7.0949312 8.2301823,7.455066 c 1.3510957,0.6746127 2.3336827,1.9587176 2.6431787,3.454267 0.232692,1.124416 0.08633,2.359189 -0.397315,3.351956 -0.5868603,1.20463 -1.6163958,2.118377 -2.8483466,2.528003 -0.4804881,0.159763 -1.0708172,0.236944 -1.2960992,0.169456 z M 7.7828473,14.515613 C 8.483772,13.994251 8.9044951,13.235263 8.9966959,12.325822 9.0725444,11.577677 8.8821429,10.796737 8.4792328,10.203426 8.2327884,9.8405199 7.8146947,9.4591546 7.4490153,9.2637091 L 7.2875793,9.1774261 7.2291275,9.4271928 C 7.0595374,10.151857 7.0118765,10.716284 7.0118765,12 c 0,1.283171 0.04768,1.848218 0.2170146,2.5718 l 0.058215,0.24876 0.1345434,-0.06818 c 0.073999,-0.0375 0.2365377,-0.144044 0.3611974,-0.236769 z"
     id="path22149" />
  <path
     style="fill:#ffffff;stroke-width:0.0285036"
     d="m 16.973872,16.94115 c -0.148931,-0.02276 -0.419564,-0.09096 -0.601405,-0.151558 -2.145527,-0.71498 -3.533778,-2.876028 -3.337748,-5.195768 0.09816,-1.161641 0.49465,-2.1220599 1.229004,-2.9770493 0.697656,-0.8122645 1.7717,-1.4192681 2.767156,-1.5638788 0.54457,-0.07911 0.722987,-0.038427 0.972427,0.2217332 0.530601,0.5534068 0.888608,2.061849 0.964213,4.0626629 0.09353,2.475161 -0.315527,4.727829 -0.981373,5.404399 -0.244019,0.24795 -0.440988,0.28676 -1.012274,0.199459 z m -0.159356,-2.76036 c 0.08495,-0.672317 0.112858,-1.211501 0.112858,-2.18079 0,-1.151393 -0.04795,-1.868409 -0.172024,-2.5725314 l -0.04396,-0.249491 -0.160919,0.086007 c -0.365161,0.1951703 -0.7834,0.576748 -1.0297,0.9394414 -0.709313,1.04451 -0.709313,2.548638 0,3.593148 0.243076,0.357945 0.656303,0.734794 1.031609,0.940793 l 0.150712,0.08272 0.03409,-0.148495 c 0.01875,-0.08167 0.05355,-0.302534 0.07734,-0.490805 z"
     id="path22188" />
  <path
     style="fill:#ffffff;stroke-width:0.0285036"
     d="M 19.928704,7.7127252 C 19.819192,7.3616181 19.587769,6.8906923 19.340835,6.5164653 19.228281,6.3458894 19.1467,6.1967332 19.159544,6.185007 19.172389,6.1732809 19.703166,5.8173445 20.33905,5.3940373 l 1.156153,-0.7696494 0.525557,0.8126074 c 0.289057,0.4469341 0.528347,0.8269931 0.531756,0.8445756 0.0052,0.026585 -0.68537,0.4867803 -2.297142,1.5309168 l -0.245873,0.159281 z"
     id="path22227" />
  <path
     style="fill:#ffffff;stroke-width:0.0285036"
     d="m 20.508314,12 v -0.997625 h 1.738717 1.738717 V 12 12.997625 h -1.738717 -1.738717 z"
     id="path22266" />
  <path
     style="fill:#ffffff;stroke-width:0.0285036"
     d="m 20.330055,18.598832 c -0.638898,-0.426155 -1.16892,-0.782115 -1.177828,-0.791023 -0.0089,-0.0089 0.0496,-0.09757 0.130006,-0.197038 0.185495,-0.229446 0.4802,-0.824439 0.620485,-1.25273 l 0.108352,-0.330795 1.273214,0.829607 c 0.700268,0.456284 1.273906,0.838904 1.274751,0.850267 0.0012,0.01629 -0.903124,1.432008 -1.035489,1.62104 -0.02747,0.03922 -0.192033,-0.06134 -1.193491,-0.729328 z"
     id="path22305" />
</svg>
