<?xml version="1.0" encoding="UTF-8" standalone="no"?>
<svg
   version="1.1"
   width="24"
   height="24"
   viewBox="0 0 24 24"
   id="svg24174"
   sodipodi:docname="car_brake_abs_white.svg"
   inkscape:version="1.1 (c68e22c387, 2021-05-23)"
   xmlns:inkscape="http://www.inkscape.org/namespaces/inkscape"
   xmlns:sodipodi="http://sodipodi.sourceforge.net/DTD/sodipodi-0.dtd"
   xmlns="http://www.w3.org/2000/svg"
   xmlns:svg="http://www.w3.org/2000/svg">
  <defs
     id="defs24178" />
  <sodipodi:namedview
     id="namedview24176"
     pagecolor="#ffffff"
     bordercolor="#666666"
     borderopacity="1.0"
     inkscape:pageshadow="2"
     inkscape:pageopacity="0.0"
     inkscape:pagecheckerboard="0"
     showgrid="false"
     inkscape:zoom="35.083333"
     inkscape:cx="11.985748"
     inkscape:cy="11.985748"
     inkscape:window-width="1920"
     inkscape:window-height="1027"
     inkscape:window-x="-8"
     inkscape:window-y="-8"
     inkscape:window-maximized="1"
     inkscape:current-layer="svg24174" />
  <path
     d="M24,12C24,15.31 22.66,18.31 20.5,20.5L19.42,19.42C21.32,17.5 22.5,14.9 22.5,12C22.5,9.11 21.32,6.5 19.42,4.58L20.5,3.5C22.66,5.69 24,8.69 24,12M20,9.6V8H16.8C15.92,8 15.2,8.72 15.2,9.6V11.2C15.2,12.08 15.92,12.8 16.8,12.8H18.4V14.4H15.2V16H18.4C19.28,16 20,15.28 20,14.4V12.8C20,11.92 19.28,11.2 18.4,11.2H16.8V9.6H20M8.42,6C9.47,5.37 10.69,5 12,5C13.31,5 14.53,5.37 15.58,6H18.69C17.05,4.16 14.66,3 12,3C9.34,3 6.95,4.16 5.31,6H8.42M13.2,12C13.84,12 14.4,12.56 14.4,13.2V14.4C14.4,15.28 13.68,16 12.8,16H9.6V8H12.8C13.68,8 14.4,8.72 14.4,9.6V10.8C14.4,11.44 13.84,12 13.2,12M12.8,12.8H11.2V14.4H12.8V12.8M12.8,9.6H11.2V11.2H12.8V9.6M4.58,4.58L3.5,3.5C1.34,5.69 0,8.69 0,12C0,15.31 1.34,18.31 3.5,20.5L4.58,19.42C2.68,17.5 1.5,14.9 1.5,12C1.5,9.11 2.68,6.5 4.58,4.58M7.2,16V12.8H5.6V16H4V9.6C4,8.72 4.72,8 5.6,8H7.2C8.08,8 8.8,8.72 8.8,9.6V16H7.2M7.2,11.2V9.6H5.6V11.2H7.2M15.58,18C14.53,18.63 13.31,19 12,19C10.69,19 9.47,18.63 8.42,18H5.31C6.95,19.84 9.34,21 12,21C14.66,21 17.05,19.84 18.69,18H15.58Z"
     id="path24172" />
  <path
     style="fill:#ffffff;stroke-width:0.0285036"
     d="M 3.2360206,20.189828 C 1.991987,18.876784 0.97953201,17.07569 0.46774184,15.265233 -0.41716945,12.134859 0.01611632,8.742582 1.6602648,5.9287411 2.0747289,5.2194158 2.7260324,4.3450355 3.2382231,3.8103192 L 3.5059382,3.5308303 4.0311229,4.0581076 4.5563076,4.5853849 4.3144139,4.8395737 C 4.1813724,4.9793776 3.9697967,5.2214693 3.8442456,5.3775555 2.4939229,7.0562879 1.7085521,9.0063016 1.5225342,11.142182 c -0.042717,0.490485 -0.01887,1.693733 0.042871,2.163127 0.2607508,1.982385 1.0184667,3.750229 2.2791363,5.317504 0.1253881,0.155884 0.3368725,0.397854 0.4699654,0.537712 l 0.2419872,0.254287 -0.5275527,0.527552 -0.5275528,0.527553 z"
     id="path24254" />
  <path
     style="fill:#ffffff;stroke-width:0.0285036"
     d="m 11.301663,20.961784 c -0.05487,-0.0063 -0.221615,-0.0251 -0.370547,-0.04183 -1.6390936,-0.184179 -3.3564743,-0.924488 -4.6460804,-2.002781 -0.278036,-0.232477 -0.912114,-0.843612 -0.912114,-0.879111 0,-0.01309 0.6795642,-0.02381 1.5101426,-0.02381 h 1.5101425 l 0.3497151,0.183769 c 1.8339702,0.963723 3.9400652,1.076117 5.8449902,0.311923 0.175698,-0.07048 0.476823,-0.210849 0.669166,-0.311923 l 0.349715,-0.183769 h 1.510143 c 0.846162,0 1.510142,0.01099 1.510142,0.02499 0,0.04438 -0.720087,0.724184 -1.027281,0.969819 -1.089068,0.870825 -2.356794,1.478405 -3.691682,1.769301 -0.636457,0.138696 -0.992808,0.176175 -1.765597,0.185697 -0.407601,0.005 -0.785986,0.004 -0.840855,-0.0023 z"
     id="path24293" />
  <path
     style="fill:#ffffff;stroke-width:0.0285036"
     d="m 19.968877,19.941892 -0.525185,-0.527277 0.241894,-0.254189 c 0.664917,-0.698714 1.307459,-1.631622 1.75992,-2.555232 0.509325,-1.039687 0.822363,-2.082954 0.988392,-3.29403 0.06136,-0.447586 0.08621,-1.679459 0.04371,-2.167334 C 22.291486,9.0068537 21.50571,7.0558315 20.154722,5.3762721 20.029739,5.2208918 19.818628,4.9793776 19.685586,4.8395737 l -0.241894,-0.2541888 0.525185,-0.5272773 0.525185,-0.5272773 0.267715,0.2794889 c 1.230125,1.2842249 2.257827,3.1109345 2.770481,4.924448 0.875751,3.0979658 0.469716,6.3984168 -1.136338,9.2367288 -0.401852,0.710176 -1.108643,1.669574 -1.634143,2.218185 l -0.267715,0.279489 z"
     id="path24332" />
  <path
     style="fill:#ffffff;stroke-width:0.0285036"
     d="m 15.206651,15.206651 v -0.783848 h 1.610451 1.610451 v -0.809494 -0.809494 l -0.947743,-0.01274 c -0.796577,-0.01071 -0.972748,-0.02065 -1.104513,-0.06232 -0.420871,-0.1331 -0.798586,-0.448356 -0.980872,-0.818677 -0.177236,-0.360061 -0.193326,-0.50415 -0.180935,-1.62029 C 15.22545,9.212706 15.22363,9.2255067 15.420403,8.8354659 15.532681,8.6129119 15.85681,8.3035754 16.101699,8.1852606 16.45553,8.0143122 16.50357,8.010542 18.334917,8.0099961 l 1.660332,-4.949e-4 v 0.783848 0.7838479 h -1.610451 -1.610451 v 0.8094939 0.809494 l 0.947743,0.01274 c 0.796578,0.01071 0.972749,0.02065 1.104513,0.06232 0.530856,0.167882 0.938381,0.579684 1.101985,1.113551 0.0468,0.152704 0.05241,0.282453 0.05241,1.211402 0,0.995477 -0.0027,1.048991 -0.06322,1.239905 -0.135933,0.429021 -0.428291,0.778839 -0.812694,0.972421 -0.352268,0.1774 -0.395791,0.180929 -2.238102,0.181478 l -1.660332,4.95e-4 z"
     id="path24371" />
  <path
     style="fill:#ffffff;stroke-width:0.0285036"
     d="M 9.6199525,12 V 8.0095012 l 1.6460805,4.949e-4 c 1.837447,5.525e-4 1.888292,0.00481 2.252552,0.1885216 0.398958,0.2012131 0.717368,0.6094718 0.819794,1.0511208 0.0365,0.1573619 0.04321,0.3448861 0.03612,1.0086475 l -0.0087,0.815348 -0.08829,0.185273 c -0.178124,0.373802 -0.558597,0.668185 -0.910534,0.704508 -0.08557,0.0088 -0.155574,0.02529 -0.155574,0.03659 0,0.01129 0.07001,0.02775 0.155574,0.03659 0.351937,0.03632 0.73241,0.330706 0.910534,0.704508 l 0.08829,0.185273 0.0087,0.815348 c 0.0071,0.663762 3.7e-4,0.851286 -0.03612,1.008648 -0.101759,0.438775 -0.42357,0.851289 -0.820137,1.051294 -0.363878,0.183519 -0.415009,0.187796 -2.252209,0.188348 l -1.6460805,4.95e-4 z m 3.1923995,1.610451 V 12.7981 H 12 11.187648 v 0.812351 0.812352 H 12 12.812352 Z m 0,-3.220902 V 9.5771971 H 12 11.187648 V 10.389549 11.2019 H 12 12.812352 Z"
     id="path24410" />
  <path
     style="fill:#ffffff;stroke-width:0.0285036"
     d="m 4.0110104,12.662708 0.00806,-3.3277911 0.063343,-0.1852732 c 0.193022,-0.564572 0.6495414,-0.9821431 1.2017091,-1.0991844 0.267756,-0.056755 1.9620938,-0.056755 2.2298497,0 0.5552625,0.1176973 0.9756898,0.5010667 1.204733,1.0985438 0.060046,0.1566336 0.060382,0.1738981 0.068283,3.4994529 l 0.00794,3.342043 H 8.0102919 7.2256532 V 14.394299 12.7981 H 6.3990499 5.5724466 v 1.596199 1.5962 H 4.7876973 4.002948 Z M 7.2256532,10.389549 V 9.5771971 H 6.3990499 5.5724466 V 10.389549 11.2019 h 0.8266033 0.8266033 z"
     id="path24449" />
  <path
     style="fill:#ffffff;stroke-width:0.0285036"
     d="m 5.3729216,5.9619395 c 0,-0.035498 0.634078,-0.6466334 0.912114,-0.8791108 C 6.798537,4.6534691 7.5413499,4.1780049 8.1524197,3.8875421 8.9969276,3.4861181 9.8324708,3.2367601 10.831354,3.0880458 c 0.488379,-0.07271 1.848913,-0.07271 2.337292,0 2.014514,0.2999221 3.660342,1.1059953 5.094337,2.4950412 0.200252,0.1939758 0.364095,0.3639283 0.364095,0.3776721 0,0.014002 -0.66398,0.024989 -1.510142,0.024989 H 15.606793 L 15.257078,5.8019786 c -2.066338,-1.0858282 -4.447818,-1.0858282 -6.5141562,0 L 8.3932067,5.9857482 H 6.8830642 c -0.8305784,0 -1.5101426,-0.010714 -1.5101426,-0.023809 z"
     id="path24488" />
</svg>
