<?xml version="1.0" encoding="UTF-8" standalone="no"?>
<svg
   version="1.1"
   width="24"
   height="24"
   viewBox="0 0 24 24"
   id="svg25796"
   sodipodi:docname="car_brake_alert_white.svg"
   inkscape:version="1.1 (c68e22c387, 2021-05-23)"
   xmlns:inkscape="http://www.inkscape.org/namespaces/inkscape"
   xmlns:sodipodi="http://sodipodi.sourceforge.net/DTD/sodipodi-0.dtd"
   xmlns="http://www.w3.org/2000/svg"
   xmlns:svg="http://www.w3.org/2000/svg">
  <defs
     id="defs25800" />
  <sodipodi:namedview
     id="namedview25798"
     pagecolor="#ffffff"
     bordercolor="#666666"
     borderopacity="1.0"
     inkscape:pageshadow="2"
     inkscape:pageopacity="0.0"
     inkscape:pagecheckerboard="0"
     showgrid="false"
     inkscape:zoom="35.083333"
     inkscape:cx="11.985748"
     inkscape:cy="11.985748"
     inkscape:window-width="1920"
     inkscape:window-height="1027"
     inkscape:window-x="-8"
     inkscape:window-y="-8"
     inkscape:window-maximized="1"
     inkscape:current-layer="svg25796" />
  <path
     d="M11,15H13V17H11V15M11,7H13V13H11V7M12,3C7.03,3 3,7.03 3,12C3,16.97 7.03,21 12,21C16.97,21 21,16.97 21,12C21,7.03 16.97,3 12,3M12,19C8.14,19 5,15.86 5,12C5,8.14 8.14,5 12,5C15.86,5 19,8.14 19,12C19,15.86 15.86,19 12,19M20.5,20.5C22.66,18.31 24,15.31 24,12C24,8.69 22.66,5.69 20.5,3.5L19.42,4.58C21.32,6.5 22.5,9.11 22.5,12C22.5,14.9 21.32,17.5 19.42,19.42L20.5,20.5M4.58,19.42C2.68,17.5 1.5,14.9 1.5,12C1.5,9.11 2.68,6.5 4.58,4.58L3.5,3.5C1.34,5.69 0,8.69 0,12C0,15.31 1.34,18.31 3.5,20.5L4.58,19.42Z"
     id="path25794" />
  <path
     style="fill:#ffffff;stroke-width:0.0285036"
     d="M 3.2360206,20.189828 C 1.991987,18.876784 0.97953201,17.07569 0.46774184,15.265233 -0.41692586,12.135721 0.01727966,8.7354958 1.6600028,5.9287411 2.0767367,5.2167101 2.7264833,4.3445648 3.2382231,3.8103192 L 3.5059382,3.5308303 4.0311229,4.0581076 4.5563076,4.5853849 4.3144139,4.8395737 C 4.1813724,4.9793776 3.9697967,5.2214693 3.8442456,5.3775555 2.4939229,7.0562879 1.7085521,9.0063016 1.5225342,11.142182 c -0.042717,0.490485 -0.01887,1.693733 0.042871,2.163127 0.2604902,1.980404 1.019727,3.751796 2.2791363,5.317504 0.1253881,0.155884 0.3368725,0.397854 0.4699654,0.537712 l 0.2419872,0.254287 -0.5275527,0.527552 -0.5275528,0.527553 z"
     id="path25876" />
  <path
     style="fill:#ffffff;stroke-width:0.0285036"
     d="M 11.144893,20.948313 C 10.506343,20.882855 9.6589246,20.698872 9.0967194,20.503634 4.3956195,18.871075 1.9035373,13.800266 3.4957141,9.1068884 4.4953846,6.1600854 6.9945634,3.915501 10.032896,3.2356566 10.786152,3.0671114 11.073599,3.0382675 12,3.0382675 c 0.926401,0 1.213848,0.028844 1.967104,0.1973891 1.256224,0.2810874 2.506318,0.8686957 3.525787,1.6573015 1.101868,0.8523454 2.055107,2.0382237 2.635395,3.278567 1.408143,3.0098509 1.055955,6.5329969 -0.916885,9.1721529 -0.868762,1.162182 -1.917471,2.044963 -3.178147,2.675295 -0.93119,0.465592 -1.724643,0.716568 -2.778199,0.878768 -0.427085,0.06575 -1.671216,0.09557 -2.110162,0.05057 z m 1.86517,-2.006198 c 2.293902,-0.341943 4.226236,-1.748174 5.271894,-3.836552 0.488279,-0.975185 0.722578,-1.98218 0.722578,-3.105563 0,-1.129941 -0.224019,-2.0943332 -0.718391,-3.0926366 C 17.24551,6.8059742 15.31045,5.3992502 12.985037,5.053636 12.573143,4.9924183 11.502437,4.984822 11.102138,5.0402776 8.7377114,5.3678339 6.7476151,6.7958993 5.7131175,8.9073634 5.2159512,9.9221059 4.9954646,10.872266 4.9954646,12 c 0,1.129815 0.2224264,2.086836 0.7187765,3.092637 0.5772018,1.169638 1.4053318,2.098607 2.5090368,2.814556 0.8402474,0.54505 1.9234801,0.938557 2.8788601,1.045807 0.148931,0.01672 0.309263,0.03576 0.356294,0.04231 0.185821,0.02588 1.270653,-0.01131 1.551631,-0.05319 z"
     id="path25915" />
  <path
     style="fill:#ffffff;stroke-width:0.0285036"
     d="M 11.016627,10.004751 V 7.0118765 H 12 12.983373 v 2.9928745 2.992874 H 12 11.016627 Z"
     id="path25954" />
  <path
     style="fill:#ffffff;stroke-width:0.0285036"
     d="M 11.016627,16.004751 V 15.021378 H 12 12.983373 v 0.983373 0.983373 H 12 11.016627 Z"
     id="path25993" />
  <path
     style="fill:#ffffff;stroke-width:0.0285036"
     d="m 19.968877,19.941892 -0.525185,-0.527277 0.241894,-0.254189 c 0.664917,-0.698714 1.307459,-1.631622 1.75992,-2.555232 0.509325,-1.039687 0.822363,-2.082954 0.988392,-3.29403 0.06136,-0.447586 0.08621,-1.679459 0.04371,-2.167334 C 22.291486,9.0068537 21.50571,7.0558315 20.154722,5.3762721 20.029739,5.2208918 19.818628,4.9793776 19.685586,4.8395737 l -0.241894,-0.2541888 0.525185,-0.5272773 0.525185,-0.5272773 0.267715,0.2794889 c 1.229181,1.2832396 2.25822,3.1123257 2.770481,4.924448 0.875751,3.0979658 0.469716,6.3984168 -1.136338,9.2367288 -0.401852,0.710176 -1.108643,1.669574 -1.634143,2.218185 l -0.267715,0.279489 z"
     id="path26032" />
</svg>
