<?xml version="1.0" encoding="utf-8"?>
<!-- Generator: Adobe Illustrator 25.0.0, SVG Export Plug-In . SVG Version: 6.00 Build 0)  -->
<svg version="1.1" id="Icon" xmlns="http://www.w3.org/2000/svg" xmlns:xlink="http://www.w3.org/1999/xlink" x="0px" y="0px"
	 viewBox="0 0 24 24" enable-background="new 0 0 24 24" xml:space="preserve">
<path d="M18,19.25v1.5c0,0.276-0.224,0.5-0.5,0.5h-5.78C11.245,22.281,10.209,23,9,23c-1.304,0-2.403-0.837-2.816-2H9v-2H6.184
	C6.597,17.837,7.696,17,9,17c1.209,0,2.245,0.719,2.72,1.75h5.78C17.776,18.75,18,18.974,18,19.25z M16.5,12c0.8,0,1.5-0.7,1.5-1.5
	S17.3,9,16.5,9S15,9.7,15,10.5S15.7,12,16.5,12z M21,8v8c0,0.5-0.5,1-1,1h-1c-0.5,0-1-0.5-1-1v-1H6v1c0,0.5-0.4,1-1,1H4
	c-0.5,0-1-0.5-1-1V8l2.1-6c0.2-0.6,0.7-1,1.4-1h11c0.6,0,1.2,0.4,1.4,1L21,8z M5.8,6h12.4l-1.1-3H6.8L5.8,6z M19,8H5v5h14V8z
	 M7.5,12C8.3,12,9,11.3,9,10.5S8.3,9,7.5,9S6,9.7,6,10.5S6.7,12,7.5,12z"/>
</svg>
