<?xml version="1.0" encoding="UTF-8" standalone="no"?>
<!-- Generator: Adobe Illustrator 25.0.0, SVG Export Plug-In . SVG Version: 6.00 Build 0)  -->

<svg
   version="1.1"
   id="Icon"
   x="0px"
   y="0px"
   viewBox="0 0 24 24"
   enable-background="new 0 0 24 24"
   xml:space="preserve"
   sodipodi:docname="car_repair_outline_yellow.svg"
   inkscape:version="1.1 (c68e22c387, 2021-05-23)"
   xmlns:inkscape="http://www.inkscape.org/namespaces/inkscape"
   xmlns:sodipodi="http://sodipodi.sourceforge.net/DTD/sodipodi-0.dtd"
   xmlns="http://www.w3.org/2000/svg"
   xmlns:svg="http://www.w3.org/2000/svg"><defs
   id="defs4227" /><sodipodi:namedview
   id="namedview4225"
   pagecolor="#ffffff"
   bordercolor="#666666"
   borderopacity="1.0"
   inkscape:pageshadow="2"
   inkscape:pageopacity="0.0"
   inkscape:pagecheckerboard="0"
   showgrid="false"
   inkscape:zoom="34.666667"
   inkscape:cx="11.985577"
   inkscape:cy="12.014423"
   inkscape:window-width="1920"
   inkscape:window-height="1017"
   inkscape:window-x="-8"
   inkscape:window-y="-8"
   inkscape:window-maximized="1"
   inkscape:current-layer="Icon" />
<path
   d="M18,19.25v1.5c0,0.276-0.224,0.5-0.5,0.5h-5.78C11.245,22.281,10.209,23,9,23c-1.304,0-2.403-0.837-2.816-2H9v-2H6.184  C6.597,17.837,7.696,17,9,17c1.209,0,2.245,0.719,2.72,1.75h5.78C17.776,18.75,18,18.974,18,19.25z M16.5,12c0.8,0,1.5-0.7,1.5-1.5  S17.3,9,16.5,9S15,9.7,15,10.5S15.7,12,16.5,12z M21,8v8c0,0.5-0.5,1-1,1h-1c-0.5,0-1-0.5-1-1v-1H6v1c0,0.5-0.4,1-1,1H4  c-0.5,0-1-0.5-1-1V8l2.1-6c0.2-0.6,0.7-1,1.4-1h11c0.6,0,1.2,0.4,1.4,1L21,8z M5.8,6h12.4l-1.1-3H6.8L5.8,6z M19,8H5v5h14V8z   M7.5,12C8.3,12,9,11.3,9,10.5S8.3,9,7.5,9S6,9.7,6,10.5S6.7,12,7.5,12z"
   id="path4222" />
<path
   style="fill:#ffff00;stroke-width:0.0288462"
   d="M 3.7635231,16.947241 C 3.4569545,16.849998 3.1482348,16.536275 3.0570912,16.229362 3.0203187,16.105535 3.0144231,15.527799 3.0144231,12.048131 V 8.0105784 L 4.0848812,4.9500009 C 4.6736332,3.266683 5.1895005,1.8245192 5.231253,1.7451923 5.3353757,1.5473665 5.6206152,1.2670053 5.8130032,1.1733917 c 0.350671,-0.1706322 0.0527,-0.1627746 6.1725738,-0.1627746 6.172227,0 5.827122,-0.00993 6.179743,0.1778997 0.226849,0.1208382 0.472085,0.3480889 0.589718,0.5464693 0.05507,0.092879 0.518025,1.374009 1.161448,3.2140868 l 1.069872,3.0596501 -0.0076,4.094196 -0.0076,4.094196 -0.0848,0.172709 c -0.108009,0.219986 -0.301354,0.413332 -0.52134,0.521341 l -0.172709,0.0848 H 19.5 18.807692 l -0.172709,-0.0848 c -0.219985,-0.108009 -0.413331,-0.301355 -0.52134,-0.521341 -0.08435,-0.171801 -0.08485,-0.175856 -0.0941,-0.771266 L 18.010246,15 H 11.999964 5.9896812 l -0.00926,0.612981 c -0.00895,0.592394 -0.011817,0.618425 -0.085278,0.775096 -0.1068769,0.227937 -0.2594897,0.384416 -0.4816507,0.493855 l -0.1908798,0.09403 -0.664189,0.0064 c -0.5119075,0.0049 -0.694157,-0.0031 -0.7948967,-0.03509 z M 19.024038,10.5 V 7.9903846 H 12 4.9759615 V 10.5 13.009615 H 12 19.024038 Z M 18.202397,5.9495192 C 18.19133,5.9217548 17.950973,5.2694712 17.668269,4.5 17.385566,3.7305288 17.145208,3.0782452 17.134141,3.0504808 17.115083,3.0026666 16.841038,3 11.946219,3 H 6.7784178 L 6.2912645,4.4639423 c -0.2679343,0.8051683 -0.493145,1.4801683 -0.5004682,1.5 C 5.7801704,5.9927181 7.0341147,6 12,6 c 5.914643,0 6.221523,-0.0025 6.202397,-0.050481 z"
   id="path4303" /><path
   style="fill:#ffff00;stroke-width:0.0288462"
   d="M 7.3269231,11.966944 C 6.533722,11.8768 5.9083909,11.063856 6.0376517,10.290865 6.1873963,9.3953794 7.1202485,8.8095178 7.9415673,9.0951443 c 0.6890673,0.239634 1.13318,0.9418347 1.020781,1.6139907 -0.1313419,0.785436 -0.8600965,1.345923 -1.6354252,1.257809 z"
   id="path4342" /><path
   style="fill:#ffff00;stroke-width:0.0288462"
   d="m 16.326923,11.966944 c -0.793201,-0.09014 -1.418532,-0.903088 -1.289271,-1.676079 0.149744,-0.8954856 1.082597,-1.4813472 1.903915,-1.1957207 0.689068,0.239634 1.13318,0.9418347 1.020781,1.6139907 -0.131342,0.785436 -0.860096,1.345923 -1.635425,1.257809 z"
   id="path4381" /><path
   style="fill:#ffff00;stroke-width:0.0288462"
   d="M 8.5985985,22.960492 C 8.159742,22.891266 7.6952278,22.710489 7.3379183,22.469868 7.0734567,22.291774 6.7109117,21.918797 6.5257593,21.63434 6.3802977,21.410863 6.2163462,21.088122 6.2163462,21.025257 6.2163462,21.011159 6.8344713,21 7.6153846,21 H 9.0144231 V 19.990385 18.980769 H 7.6153846 c -0.7694711,0 -1.3990384,-0.0068 -1.3990384,-0.01506 0,-0.0546 0.1991336,-0.435946 0.3316171,-0.635056 0.1994378,-0.299737 0.6219285,-0.702265 0.9341841,-0.890045 0.80607,-0.484743 1.7942365,-0.553716 2.6762476,-0.186799 0.568338,0.236429 1.132784,0.748045 1.438101,1.3035 L 11.70241,18.75 l 2.874756,0.0013 c 1.581117,6.91e-4 2.931329,0.01219 3.000473,0.02554 0.165455,0.03196 0.263769,0.107125 0.343034,0.262251 0.06289,0.123081 0.0649,0.152932 0.0649,0.962762 0,0.789551 -0.0033,0.842644 -0.06046,0.960641 -0.04032,0.08328 -0.101235,0.148794 -0.182823,0.196607 l -0.12236,0.07171 -2.954196,4.91e-4 -2.954197,4.9e-4 -0.104833,0.194222 c -0.388013,0.718863 -1.088088,1.261018 -1.8940374,1.466789 -0.3161484,0.08072 -0.832672,0.112121 -1.1140691,0.06773 z"
   id="path4420" /></svg>
