<?xml version="1.0" encoding="UTF-8" standalone="no"?>
<svg
   version="1.1"
   width="24"
   height="24"
   viewBox="0 0 24 24"
   id="svg20490"
   sodipodi:docname="car_info_white.svg"
   inkscape:version="1.1 (c68e22c387, 2021-05-23)"
   xmlns:inkscape="http://www.inkscape.org/namespaces/inkscape"
   xmlns:sodipodi="http://sodipodi.sourceforge.net/DTD/sodipodi-0.dtd"
   xmlns="http://www.w3.org/2000/svg"
   xmlns:svg="http://www.w3.org/2000/svg">
  <defs
     id="defs20494" />
  <sodipodi:namedview
     id="namedview20492"
     pagecolor="#ffffff"
     bordercolor="#666666"
     borderopacity="1.0"
     inkscape:pageshadow="2"
     inkscape:pageopacity="0.0"
     inkscape:pagecheckerboard="0"
     showgrid="false"
     inkscape:zoom="35.083333"
     inkscape:cx="11.985748"
     inkscape:cy="11.985748"
     inkscape:window-width="1920"
     inkscape:window-height="1027"
     inkscape:window-x="-8"
     inkscape:window-y="-8"
     inkscape:window-maximized="1"
     inkscape:current-layer="svg20490" />
  <path
     d="M19 15H17V13H19M20 20V22H16V20H17V18H16V16H19V20M18.92 5A1.5 1.5 0 0 0 17.5 4H6.5A1.5 1.5 0 0 0 5.08 5L3 11V19A1 1 0 0 0 4 20H5A1 1 0 0 0 6 19V18H11A7 7 0 0 1 18 11A6.84 6.84 0 0 1 21 11.68V11M6.5 15A1.5 1.5 0 1 1 8 13.5A1.5 1.5 0 0 1 6.5 15M5 10L6.5 5.5H17.5L19 10Z"
     id="path20488" />
  <path
     style="fill:#ffffff;stroke-width:0.0285036"
     d="M 3.7152736,19.942183 C 3.3453326,19.806806 3.1159933,19.551204 3.0391413,19.188621 3.0163255,19.080977 3.0071259,17.887315 3.0071259,15.034559 V 11.031544 L 4.0023072,8.1594772 C 4.549657,6.5798408 5.0364126,5.180932 5.0839864,5.0507911 5.2712649,4.5384797 5.6399743,4.1919798 6.1340899,4.0639416 6.2891792,4.023754 6.9094016,4.0190024 12,4.0190024 c 6.17087,0 5.844464,-0.00784 6.15506,0.1479104 0.331185,0.166079 0.608405,0.4756575 0.740716,0.8271771 0.03814,0.1013383 0.525595,1.5010234 1.083225,3.1104114 l 1.013873,2.9261597 v 0.312456 0.312456 l -0.192399,-0.0865 c -1.401939,-0.630316 -3.144905,-0.751202 -4.68171,-0.324709 -1.909761,0.529997 -3.522026,1.859488 -4.39025,3.620247 -0.453081,0.918848 -0.67652,1.763866 -0.729767,2.759886 l -0.01931,0.361254 H 8.4897178 6 l -2.28e-4,0.477435 c -1.14e-4,0.262589 -0.013457,0.559036 -0.02964,0.658771 -0.056573,0.348648 -0.2607512,0.626906 -0.5645025,0.769316 -0.1591557,0.07462 -0.169093,0.07555 -0.8735761,0.08226 -0.5381857,0.0051 -0.7380926,-0.0025 -0.8167929,-0.03135 z M 6.9460583,14.946419 C 7.2621671,14.853707 7.5696448,14.625854 7.7545348,14.347305 8.3246095,13.488451 7.9038921,12.336213 6.9140665,12.045474 6.8220909,12.018458 6.6535357,12 6.4988124,12 6.0686517,12 5.722577,12.139466 5.432209,12.429834 c -0.6603986,0.660398 -0.5575991,1.809015 0.2073462,2.316757 0.3891849,0.258326 0.8610004,0.33049 1.3065031,0.199828 z M 18.266055,7.7387173 17.510645,5.4726841 H 12 6.4893552 L 5.7339446,7.7387173 4.9785339,10.004751 H 12 19.021466 Z"
     id="path20570" />
  <path
     style="fill:#ffffff;stroke-width:0.0285036"
     d="m 16.004751,20.992874 v -0.983373 h 0.498812 0.498812 v -1.011876 -1.011877 h -0.498812 -0.498812 v -0.983373 -0.983373 h 1.496437 1.496437 v 1.99525 1.995249 h 0.498812 0.498812 v 0.983373 0.983373 H 18 16.004751 Z"
     id="path20609" />
  <path
     style="fill:#ffffff;stroke-width:0.0285036"
     d="M 17.002375,14.009501 V 13.026128 H 18 18.997625 v 0.983373 0.983373 H 18 17.002375 Z"
     id="path20648" />
</svg>
