<?xml version="1.0" encoding="UTF-8" standalone="no"?>
<svg
   version="1.1"
   width="24"
   height="24"
   viewBox="0 0 24 24"
   id="svg3165"
   sodipodi:docname="car_parking_lights_green.svg"
   inkscape:version="1.1 (c68e22c387, 2021-05-23)"
   xmlns:inkscape="http://www.inkscape.org/namespaces/inkscape"
   xmlns:sodipodi="http://sodipodi.sourceforge.net/DTD/sodipodi-0.dtd"
   xmlns="http://www.w3.org/2000/svg"
   xmlns:svg="http://www.w3.org/2000/svg">
  <defs
     id="defs3169" />
  <sodipodi:namedview
     id="namedview3167"
     pagecolor="#ffffff"
     bordercolor="#666666"
     borderopacity="1.0"
     inkscape:pageshadow="2"
     inkscape:pageopacity="0.0"
     inkscape:pagecheckerboard="0"
     showgrid="false"
     inkscape:zoom="34.666667"
     inkscape:cx="11.985577"
     inkscape:cy="12.014423"
     inkscape:window-width="1920"
     inkscape:window-height="1017"
     inkscape:window-x="-8"
     inkscape:window-y="-8"
     inkscape:window-maximized="1"
     inkscape:current-layer="svg3165" />
  <path
     d="M7.3,9.2C8.1,9.6 9,10.5 9,12C9,13.5 8.1,14.4 7.3,14.8C6.9,13.4 6.9,10.6 7.3,9.2M6.5,7C4.5,7 4.5,17 6.5,17C8.5,17 11,15.1 11,12C11,8.9 8.5,7 6.5,7M16.7,9.2C17,10.6 17,13.4 16.7,14.8C15.9,14.4 15,13.5 15,12C15,10.5 15.9,9.6 16.7,9.2M17.5,7C15.5,7 13,8.9 13,12C13,15.1 15.5,17 17.5,17C19.5,17 19.5,7 17.5,7M4.9,6.2L2.5,4.6L1.4,6.3L4,8C4.2,7.3 4.5,6.6 4.9,6.2M20,8L22.6,6.3L21.5,4.6L19.1,6.2C19.4,6.6 19.8,7.2 20,8M4,16L1.4,17.7L2.5,19.4L4.9,17.8C4.6,17.4 4.2,16.8 4,16M20.5,11C20.5,11.3 20.5,11.7 20.5,12C20.5,12.3 20.5,12.6 20.5,13H24V11H20.5M19.1,17.8L21.5,19.4L22.6,17.7L20,16C19.8,16.7 19.5,17.4 19.1,17.8M3.5,12C3.5,11.7 3.5,11.4 3.5,11H0V13H3.5C3.5,12.7 3.5,12.3 3.5,12Z"
     id="path3163" />
  <path
     style="fill:#ffff00;stroke-width:0.0288462"
     d="M 1.9655587,18.541287 C 1.6681146,18.08136 1.4287015,17.702059 1.4335295,17.698397 c 0.024189,-0.01835 2.4940365,-1.625284 2.5212507,-1.640376 0.019859,-0.01101 0.066569,0.08887 0.1250316,0.267373 0.1162948,0.355078 0.3422693,0.805073 0.5946919,1.184241 0.1064183,0.159854 0.1885745,0.294881 0.182569,0.300062 -0.00601,0.0052 -0.537371,0.360059 -1.1808127,0.788619 l -1.1698939,0.779201 z"
     id="path3226" />
  <path
     style="fill:#ffff00;stroke-width:0.0288462"
     d="M 0.01442308,12 V 11.019231 H 1.7451923 3.4759615 V 12 12.980769 H 1.7451923 0.01442308 Z"
     id="path3265" />
  <path
     style="fill:#ffff00;stroke-width:0.0288462"
     d="M 2.7376584,7.1521262 C 2.0569463,6.7065949 1.482653,6.3321093 1.4614511,6.319936 1.4328705,6.3035263 1.562989,6.0811918 1.9646341,5.4601431 L 2.5063661,4.6224834 3.67626,5.4016836 c 0.6434417,0.4285601 1.1737004,0.7823319 1.1783527,0.7861596 0.00465,0.00383 -0.063921,0.102672 -0.152385,0.2196542 C 4.5020189,6.6722472 4.2661529,7.148206 4.1115683,7.5994004 4.0466345,7.7889262 3.9894141,7.9480858 3.9844118,7.9530883 c -0.005,0.005 -0.5660413,-0.3554308 -1.2467534,-0.8009621 z"
     id="path3304" />
  <path
     style="fill:#ffff00;stroke-width:0.0288462"
     d="M 6.3603902,16.965279 C 6.0464013,16.861748 5.7678672,16.511215 5.5551739,15.951923 4.9741678,14.424125 4.8429738,11.309182 5.267235,9.1153846 5.4737838,8.047349 5.8267865,7.3018984 6.2275222,7.0875061 6.541536,6.9195096 7.5150021,7.0945133 8.2098519,7.443877 c 0.5377705,0.2703857 0.9416556,0.5694913 1.3701949,1.0147262 0.7169892,0.7449231 1.1508292,1.6185758 1.3431822,2.7048588 0.05126,0.289458 0.05135,1.382803 1.44e-4,1.673076 -0.06193,0.351044 -0.197065,0.835122 -0.314848,1.127807 -0.6671319,1.657795 -2.3032226,2.915113 -3.9162173,3.009571 -0.1427885,0.0084 -0.2921513,0.0045 -0.3319175,-0.0086 z M 7.6291681,14.623878 C 8.6562883,13.949435 9.1660157,12.75681 8.9725307,11.480769 8.8690197,10.79811 8.586191,10.238814 8.1007183,9.7567516 7.896375,9.5538438 7.4042692,9.2019231 7.324878,9.2019231 c -0.067141,0 -0.1783076,0.5195074 -0.262338,1.2259619 -0.07413,0.623218 -0.07413,2.521012 0,3.14423 0.08403,0.706455 0.1951974,1.225962 0.262338,1.225962 0.02145,0 0.1583808,-0.07839 0.3042901,-0.174199 z"
     id="path3343" />
  <path
     style="fill:#ffff00;stroke-width:0.0288462"
     d="m 17.080811,16.959331 c -0.93563,-0.128074 -1.826513,-0.591373 -2.572333,-1.33773 -0.680548,-0.681038 -1.08917,-1.386727 -1.320356,-2.280255 -0.20769,-0.802711 -0.220479,-1.730349 -0.03523,-2.555012 0.36417,-1.6211283 1.635225,-3.050502 3.164214,-3.5583396 0.415337,-0.1379498 0.711843,-0.19439 1.048276,-0.1995401 0.247301,-0.00379 0.305388,0.00464 0.407093,0.059052 0.320013,0.1712058 0.607991,0.6723541 0.817197,1.4221093 0.474788,1.7015504 0.526173,4.5810924 0.116124,6.5073544 -0.215566,1.012652 -0.553996,1.698935 -0.933321,1.892635 -0.139327,0.07115 -0.398873,0.08981 -0.691667,0.04973 z m -0.338302,-2.305538 c 0.148919,-0.694385 0.23183,-2.314675 0.177842,-3.475469 -0.04383,-0.942376 -0.150773,-1.9039384 -0.219385,-1.9725503 -0.02865,-0.028652 -0.276312,0.1186775 -0.533862,0.3175892 -0.89638,0.6922921 -1.320049,1.8060311 -1.139635,2.9958681 0.136833,0.902414 0.608355,1.625134 1.395562,2.139029 0.117798,0.0769 0.230909,0.139817 0.251357,0.139817 0.02126,0 0.05043,-0.06177 0.06812,-0.144284 z"
     id="path3382" />
  <path
     style="fill:#ffff00;stroke-width:0.0288462"
     d="M 19.920601,7.6758658 C 19.802,7.3137453 19.582874,6.8763517 19.329761,6.4964959 19.220997,6.3332705 19.136922,6.1954838 19.142927,6.1903032 c 0.006,-0.00518 0.537371,-0.3600595 1.180813,-0.7886196 l 1.169894,-0.7792002 0.540807,0.8362301 c 0.297444,0.4599265 0.536857,0.8393876 0.532029,0.8432467 -0.02616,0.020912 -2.539346,1.6595783 -2.545257,1.6595783 -0.0039,0 -0.04915,-0.1285529 -0.100612,-0.2856727 z"
     id="path3421" />
  <path
     style="fill:#ffff00;stroke-width:0.0288462"
     d="m 20.524038,12 v -0.980769 h 1.73077 1.730769 V 12 12.980769 h -1.730769 -1.73077 z"
     id="path3460" />
  <path
     style="fill:#ff0000;stroke-width:0.0288462"
     d="m 20.350962,18.614378 c -0.626683,-0.418755 -1.156641,-0.771558 -1.177685,-0.784006 -0.02865,-0.01695 0.0024,-0.07638 0.123527,-0.236598 0.199579,-0.263944 0.434232,-0.737641 0.591057,-1.193174 0.06525,-0.189526 0.122956,-0.348917 0.12824,-0.354201 0.0069,-0.0069 2.476383,1.592448 2.550406,1.651677 0.007,0.0056 -0.920492,1.455405 -1.04388,1.631627 -0.0278,0.0397 -0.189291,-0.05889 -1.171665,-0.715325 z"
     id="path3499" />
  <path
     style="fill:#ff0000;stroke-width:0.0288462"
     d="m 20.524038,12 v -0.980769 h 1.73077 1.730769 V 12 12.980769 h -1.730769 -1.73077 z"
     id="path3587" />
  <path
     style="fill:#ff0000;stroke-width:0.0288462"
     d="M 20.001658,7.8538719 C 19.984634,7.8099635 19.938049,7.6831731 19.898137,7.5721154 19.795193,7.2856648 19.58503,6.8730805 19.357368,6.5104935 19.249753,6.3391014 19.166427,6.1948066 19.172199,6.1898382 c 0.0058,-0.00497 0.528892,-0.3542248 1.16249,-0.7761255 l 1.151997,-0.7670921 0.06218,0.092555 c 0.228139,0.3395623 0.99843,1.5546301 0.990139,1.5618586 -0.01014,0.00884 -1.816024,1.186045 -2.267896,1.4783759 L 20.032607,7.933705 Z"
     id="path3626" />
  <path
     style="fill:#ff0000;stroke-width:0.0288462"
     d="m 16.853981,16.90439 c -0.95713,-0.201808 -1.842001,-0.732138 -2.551829,-1.52939 -0.85003,-0.954721 -1.25529,-2.049662 -1.254495,-3.389423 5.48e-4,-0.923995 0.160962,-1.593453 0.569772,-2.3778298 0.755156,-1.4489085 2.236743,-2.4758596 3.694196,-2.5606051 0.262517,-0.015265 0.305753,-0.010535 0.42313,0.046286 0.489629,0.2370252 0.883057,1.2014643 1.08371,2.6565715 0.109445,0.7936854 0.133238,1.2002294 0.132523,2.2644234 -8.54e-4,1.271263 -0.06135,1.989022 -0.244345,2.899039 -0.232015,1.153787 -0.62628,1.908823 -1.052836,2.016231 -0.182974,0.04607 -0.510437,0.03571 -0.799826,-0.0253 z m -0.112135,-2.200063 c 0.147678,-0.461885 0.252644,-2.665261 0.179675,-3.771635 -0.04177,-0.633285 -0.110979,-1.3173337 -0.156149,-1.5432689 -0.04592,-0.229702 -0.08998,-0.2340491 -0.383358,-0.037826 -0.749847,0.5015284 -1.243428,1.2681169 -1.368869,2.1260129 -0.05461,0.373485 -0.02185,1.017226 0.0699,1.373352 0.08531,0.331152 0.302347,0.791979 0.491517,1.043631 0.260543,0.346598 0.930994,0.903484 1.087732,0.903484 0.03056,0 0.06108,-0.03597 0.07955,-0.09375 z"
     id="path3665" />
  <path
     style="fill:#ff0000;stroke-width:0.0288462"
     d="M 6.2239397,16.874364 C 5.6065371,16.520283 5.1935235,15.143798 5.0599967,12.995192 5.0229712,12.399408 5.0388088,11.125453 5.0904786,10.543269 5.2420113,8.8358913 5.6001535,7.645698 6.0929062,7.2119598 c 0.1720893,-0.1514791 0.3024889,-0.18463 0.6426707,-0.163383 0.8990104,0.05615 1.8994815,0.527502 2.6581595,1.2523389 0.7474986,0.7141557 1.2146696,1.5497416 1.4714096,2.6317763 0.05921,0.249536 0.06504,0.344968 0.06524,1.067308 l 2.3e-4,0.793269 -0.0906,0.360577 c -0.234312,0.932551 -0.606931,1.646203 -1.19547,2.289604 -0.8292098,0.906508 -2.0665312,1.519143 -3.065491,1.517818 -0.1737228,-2.31e-4 -0.226504,-0.01315 -0.3551118,-0.0869 z M 7.6167201,14.647506 C 8.2506401,14.231481 8.7113322,13.598192 8.915381,12.862305 9.0184041,12.49076 9.044104,11.850961 8.9730695,11.426144 8.8561445,10.726881 8.580529,10.204948 8.0717112,9.71924 7.830011,9.4885175 7.4266139,9.2019231 7.3435598,9.2019231 c -0.06842,0 -0.1062922,0.093249 -0.1729213,0.4257675 C 7.0276521,10.341276 7.0114577,10.582626 7.0114577,12 c 0,1.417374 0.016194,1.658724 0.1591808,2.372309 0.065805,0.328406 0.1045565,0.425768 0.1694618,0.425768 0.025952,0 0.1504312,-0.06776 0.2766198,-0.150571 z"
     id="path3704" />
  <path
     style="fill:#ff0000;stroke-width:0.0288462"
     d="M 3.8653846,7.8621421 C 3.8336538,7.8408692 3.3014423,7.4956969 2.6826923,7.0950923 2.0639423,6.6944877 1.5396708,6.3500981 1.5176444,6.329782 1.4837982,6.2985639 1.4922822,6.2668193 1.5724311,6.1247873 1.6504866,5.986465 2.3602792,4.8681085 2.479297,4.6959199 c 0.030366,-0.043932 0.1589187,0.03387 1.1860341,0.7178063 0.6335871,0.4218932 1.1563765,0.7708215 1.161754,0.7753961 0.00538,0.00457 -0.041055,0.077475 -0.1031844,0.1620014 C 4.4805776,6.6821635 4.2757568,7.0925836 4.0821726,7.6370192 4.0299912,7.783774 3.9728478,7.9031654 3.9551872,7.9023332 3.9375265,7.901501 3.8971154,7.883415 3.8653846,7.8621421 Z"
     id="path3743" />
  <path
     style="fill:#ff0000;stroke-width:0.0288462"
     d="M 0.01442308,12 V 11.019231 H 1.7451923 3.4759615 V 12 12.980769 H 1.7451923 0.01442308 Z"
     id="path3782" />
  <path
     style="fill:#00ff00;stroke-width:0.0288462"
     d="M 1.9796772,18.529238 C 1.6892163,18.077055 1.4559735,17.703672 1.4613601,17.699497 c 0.00539,-0.0042 0.5706187,-0.372056 1.2560715,-0.817514 l 1.2462778,-0.809922 0.1068964,0.278873 c 0.143469,0.374285 0.3513486,0.786969 0.5794605,1.150349 0.1035257,0.164915 0.1835063,0.303891 0.1777348,0.308835 -0.014212,0.01218 -2.2526781,1.501352 -2.2902532,1.523628 -0.016601,0.0098 -0.2632673,-0.345876 -0.5578707,-0.804508 z"
     id="path3821" />
  <path
     style="fill:#00ff00;stroke-width:0.0288462"
     d="M 0.01442308,12 V 11.019231 H 1.7451923 3.4759615 V 12 12.980769 H 1.7451923 0.01442308 Z"
     id="path3916" />
  <path
     style="fill:#00ff00;stroke-width:0.0288462"
     d="M 2.8823165,7.2035814 C 1.5458384,6.3355859 1.5144231,6.3143879 1.5144231,6.2805708 c 0,-0.036272 0.037162,-0.097694 0.5401209,-0.892726 0.2280519,-0.3604835 0.4274473,-0.66334 0.4431009,-0.6730144 0.015654,-0.00967 0.128597,0.04439 0.2509851,0.1201432 0.1748903,0.1082499 2.0092263,1.3202006 2.0495051,1.3541134 0.00532,0.00448 -0.054614,0.1034139 -0.1331867,0.2198541 C 4.4762536,6.6885747 4.3062837,7.0277328 4.1264769,7.483408 4.0455625,7.6884649 3.9656617,7.8608051 3.9489196,7.8663857 3.9321774,7.8719665 3.452206,7.5737045 2.8823165,7.2035814 Z"
     id="path3955" />
  <path
     style="fill:#00ff00;stroke-width:0.0288462"
     d="M 6.4417489,16.928493 C 5.7562285,16.830428 5.2619294,15.469957 5.0894692,13.206583 5.043002,12.596746 5.0694201,10.772087 5.1324149,10.240385 5.3074169,8.7632941 5.597507,7.7960299 6.0052112,7.33017 6.1895733,7.1195101 6.3105674,7.0687348 6.6300841,7.0679412 c 0.8474127,-0.0021 1.9017656,0.4672568 2.6984269,1.2012463 0.738204,0.6801307 1.194219,1.4566195 1.49327,2.5426955 0.07337,0.266452 0.07752,0.318563 0.08928,1.119283 l 0.01233,0.839819 -0.105025,0.400565 c -0.388387,1.481311 -1.2048552,2.55939 -2.4719823,3.264047 -0.6164318,0.342801 -1.4485383,0.558141 -1.9046278,0.492896 z m 1.213691,-2.295028 C 8.2634461,14.230556 8.7320412,13.574936 8.9343551,12.844112 8.988784,12.647497 8.9964211,12.544567 8.9969836,12 8.9976845,11.320353 8.9770059,11.194634 8.7860668,10.717787 8.5757077,10.192439 8.1302755,9.6729597 7.5790312,9.3100962 7.3943451,9.1885242 7.3004971,9.174244 7.2542406,9.260675 7.2109694,9.341528 7.092107,9.925873 7.0469118,10.279934 c -0.052016,0.407492 -0.052016,3.03264 0,3.440132 0.045195,0.354061 0.1640576,0.938406 0.2073288,1.019259 0.049771,0.093 0.1350848,0.07049 0.4011993,-0.10586 z"
     id="path3994" />
  <path
     style="fill:#00ff00;stroke-width:0.0288462"
     d="m 16.889423,16.899153 c -1.679001,-0.353902 -3.160497,-1.758636 -3.634298,-3.445992 -0.140502,-0.500372 -0.182716,-0.849674 -0.180848,-1.49643 0.0026,-0.908968 0.127662,-1.466514 0.493428,-2.2002275 0.272591,-0.5468078 0.49432,-0.866505 0.880083,-1.2689351 0.838389,-0.8746125 1.972273,-1.4202607 2.951371,-1.4202607 0.294126,0 0.405259,0.048174 0.5931,0.2570983 0.416059,0.4627584 0.724811,1.5255744 0.893192,3.074632 0.05133,0.472216 0.05085,2.654092 -7.07e-4,3.201924 -0.161925,1.720651 -0.613388,3.016999 -1.139368,3.271622 -0.103239,0.04998 -0.1749,0.05959 -0.425156,0.05702 -0.165544,-0.0017 -0.359403,-0.0154 -0.430797,-0.03045 z m -0.141802,-2.17958 c 0.04264,-0.112145 0.103523,-0.55656 0.147322,-1.075342 0.0586,-0.694101 0.05012,-2.859822 -0.01349,-3.447116 -0.06203,-0.5726063 -0.107888,-0.8790473 -0.141383,-0.9447112 -0.03958,-0.077602 -0.139487,-0.060571 -0.312839,0.053333 -0.677295,0.4450287 -1.105523,1.0140112 -1.346047,1.7884832 -0.07716,0.248439 -0.07969,0.277264 -0.07822,0.891357 0.0013,0.553059 0.0093,0.662962 0.06224,0.855185 0.122663,0.445573 0.358357,0.907769 0.605381,1.187153 0.182432,0.206329 0.535644,0.520196 0.738958,0.656642 0.203401,0.136504 0.295858,0.14608 0.338084,0.03502 z"
     id="path4033" />
  <path
     style="fill:#00ff00;stroke-width:0.0288462"
     d="M 19.931627,7.6230081 C 19.792597,7.2614495 19.644125,6.9638298 19.391441,6.5401796 19.280028,6.3533842 19.193972,6.1961281 19.200205,6.1907216 c 0.05493,-0.047639 2.283398,-1.5194811 2.289982,-1.5124669 0.06124,0.065246 1.032102,1.6124658 1.01898,1.6238987 -0.01716,0.014947 -2.258663,1.4730931 -2.3642,1.5379598 l -0.105033,0.064557 z"
     id="path4072" />
  <path
     style="fill:#00ff00;stroke-width:0.0288462"
     d="m 20.524038,12 v -0.980769 h 1.73077 1.730769 V 12 12.980769 h -1.730769 -1.73077 z"
     id="path4111" />
  <path
     style="fill:#00ff00;stroke-width:0.0288462"
     d="M 21.346154,19.243973 C 21.266827,19.19821 20.744639,18.85682 20.185736,18.48533 l -1.016188,-0.675438 0.146405,-0.215042 c 0.202766,-0.297828 0.413847,-0.724833 0.573353,-1.159863 l 0.134891,-0.367897 0.487902,0.312685 c 0.528705,0.338835 2.010961,1.302507 2.025964,1.317158 0.01102,0.01076 -0.90705,1.456449 -0.989986,1.558946 l -0.05769,0.0713 z"
     id="path4150" />
</svg>
