<?xml version="1.0" encoding="UTF-8" standalone="no"?>
<svg
   version="1.1"
   width="24"
   height="24"
   viewBox="0 0 24 24"
   id="svg23476"
   sodipodi:docname="car_battery_white.svg"
   inkscape:version="1.1 (c68e22c387, 2021-05-23)"
   xmlns:inkscape="http://www.inkscape.org/namespaces/inkscape"
   xmlns:sodipodi="http://sodipodi.sourceforge.net/DTD/sodipodi-0.dtd"
   xmlns="http://www.w3.org/2000/svg"
   xmlns:svg="http://www.w3.org/2000/svg">
  <defs
     id="defs23480" />
  <sodipodi:namedview
     id="namedview23478"
     pagecolor="#ffffff"
     bordercolor="#666666"
     borderopacity="1.0"
     inkscape:pageshadow="2"
     inkscape:pageopacity="0.0"
     inkscape:pagecheckerboard="0"
     showgrid="false"
     inkscape:zoom="35.083333"
     inkscape:cx="11.985748"
     inkscape:cy="11.985748"
     inkscape:window-width="1920"
     inkscape:window-height="1027"
     inkscape:window-x="-8"
     inkscape:window-y="-8"
     inkscape:window-maximized="1"
     inkscape:current-layer="svg23476" />
  <path
     d="M4,3V6H1V20H23V6H20V3H14V6H10V3H4M3,8H21V18H3V8M15,10V12H13V14H15V16H17V14H19V12H17V10H15M5,12V14H11V12H5Z"
     id="path23474" />
  <path
     style="fill:#ffffff;stroke-width:0.0285036"
     d="M 1.0118765,12.997625 V 6.0142518 h 1.496437 1.4964371 V 4.5178147 3.0213777 h 2.9928741 2.9928741 v 1.496437 1.4964371 H 12 14.009501 V 4.5178147 3.0213777 h 2.992874 2.992874 v 1.496437 1.4964371 h 1.496437 1.496438 v 6.9833732 6.983373 H 12 1.0118765 Z m 20.0095015,0 V 7.9809976 H 12 2.9786223 v 5.0166274 5.016627 H 12 21.021378 Z"
     id="path23556" />
  <path
     style="fill:#ffffff;stroke-width:0.0285036"
     d="M 5.0023753,12.997625 V 12 h 2.9928741 2.9928746 v 0.997625 0.997624 H 7.9952494 5.0023753 Z"
     id="path23595" />
  <path
     style="fill:#ffffff;stroke-width:0.0285036"
     d="M 15.007126,14.992874 V 13.995249 H 14.009501 13.011876 V 12.997625 12 h 0.997625 0.997625 v -0.997625 -0.997624 h 0.983373 0.983373 V 11.002375 12 h 1.011876 1.011877 v 0.997625 0.997624 h -1.011877 -1.011876 v 0.997625 0.997625 h -0.983373 -0.983373 z"
     id="path23634" />
</svg>
