<?xml version="1.0" encoding="UTF-8" standalone="no"?>
<svg
   version="1.1"
   width="24"
   height="24"
   viewBox="0 0 24 24"
   id="svg3165"
   sodipodi:docname="car_parking_lights_yellow.svg"
   inkscape:version="1.1 (c68e22c387, 2021-05-23)"
   xmlns:inkscape="http://www.inkscape.org/namespaces/inkscape"
   xmlns:sodipodi="http://sodipodi.sourceforge.net/DTD/sodipodi-0.dtd"
   xmlns="http://www.w3.org/2000/svg"
   xmlns:svg="http://www.w3.org/2000/svg">
  <defs
     id="defs3169" />
  <sodipodi:namedview
     id="namedview3167"
     pagecolor="#ffffff"
     bordercolor="#666666"
     borderopacity="1.0"
     inkscape:pageshadow="2"
     inkscape:pageopacity="0.0"
     inkscape:pagecheckerboard="0"
     showgrid="false"
     inkscape:zoom="34.666667"
     inkscape:cx="11.985577"
     inkscape:cy="12.014423"
     inkscape:window-width="1920"
     inkscape:window-height="1017"
     inkscape:window-x="-8"
     inkscape:window-y="-8"
     inkscape:window-maximized="1"
     inkscape:current-layer="svg3165" />
  <path
     d="M7.3,9.2C8.1,9.6 9,10.5 9,12C9,13.5 8.1,14.4 7.3,14.8C6.9,13.4 6.9,10.6 7.3,9.2M6.5,7C4.5,7 4.5,17 6.5,17C8.5,17 11,15.1 11,12C11,8.9 8.5,7 6.5,7M16.7,9.2C17,10.6 17,13.4 16.7,14.8C15.9,14.4 15,13.5 15,12C15,10.5 15.9,9.6 16.7,9.2M17.5,7C15.5,7 13,8.9 13,12C13,15.1 15.5,17 17.5,17C19.5,17 19.5,7 17.5,7M4.9,6.2L2.5,4.6L1.4,6.3L4,8C4.2,7.3 4.5,6.6 4.9,6.2M20,8L22.6,6.3L21.5,4.6L19.1,6.2C19.4,6.6 19.8,7.2 20,8M4,16L1.4,17.7L2.5,19.4L4.9,17.8C4.6,17.4 4.2,16.8 4,16M20.5,11C20.5,11.3 20.5,11.7 20.5,12C20.5,12.3 20.5,12.6 20.5,13H24V11H20.5M19.1,17.8L21.5,19.4L22.6,17.7L20,16C19.8,16.7 19.5,17.4 19.1,17.8M3.5,12C3.5,11.7 3.5,11.4 3.5,11H0V13H3.5C3.5,12.7 3.5,12.3 3.5,12Z"
     id="path3163" />
  <path
     style="fill:#ffff00;stroke-width:0.0288462"
     d="M 1.9655587,18.541287 C 1.6681146,18.08136 1.4287015,17.702059 1.4335295,17.698397 c 0.024189,-0.01835 2.4940365,-1.625284 2.5212507,-1.640376 0.019859,-0.01101 0.066569,0.08887 0.1250316,0.267373 0.1162948,0.355078 0.3422693,0.805073 0.5946919,1.184241 0.1064183,0.159854 0.1885745,0.294881 0.182569,0.300062 -0.00601,0.0052 -0.537371,0.360059 -1.1808127,0.788619 l -1.1698939,0.779201 z"
     id="path3226" />
  <path
     style="fill:#ffff00;stroke-width:0.0288462"
     d="M 0.01442308,12 V 11.019231 H 1.7451923 3.4759615 V 12 12.980769 H 1.7451923 0.01442308 Z"
     id="path3265" />
  <path
     style="fill:#ffff00;stroke-width:0.0288462"
     d="M 2.7376584,7.1521262 C 2.0569463,6.7065949 1.482653,6.3321093 1.4614511,6.319936 1.4328705,6.3035263 1.562989,6.0811918 1.9646341,5.4601431 L 2.5063661,4.6224834 3.67626,5.4016836 c 0.6434417,0.4285601 1.1737004,0.7823319 1.1783527,0.7861596 0.00465,0.00383 -0.063921,0.102672 -0.152385,0.2196542 C 4.5020189,6.6722472 4.2661529,7.148206 4.1115683,7.5994004 4.0466345,7.7889262 3.9894141,7.9480858 3.9844118,7.9530883 c -0.005,0.005 -0.5660413,-0.3554308 -1.2467534,-0.8009621 z"
     id="path3304" />
  <path
     style="fill:#ffff00;stroke-width:0.0288462"
     d="M 6.3603902,16.965279 C 6.0464013,16.861748 5.7678672,16.511215 5.5551739,15.951923 4.9741678,14.424125 4.8429738,11.309182 5.267235,9.1153846 5.4737838,8.047349 5.8267865,7.3018984 6.2275222,7.0875061 6.541536,6.9195096 7.5150021,7.0945133 8.2098519,7.443877 c 0.5377705,0.2703857 0.9416556,0.5694913 1.3701949,1.0147262 0.7169892,0.7449231 1.1508292,1.6185758 1.3431822,2.7048588 0.05126,0.289458 0.05135,1.382803 1.44e-4,1.673076 -0.06193,0.351044 -0.197065,0.835122 -0.314848,1.127807 -0.6671319,1.657795 -2.3032226,2.915113 -3.9162173,3.009571 -0.1427885,0.0084 -0.2921513,0.0045 -0.3319175,-0.0086 z M 7.6291681,14.623878 C 8.6562883,13.949435 9.1660157,12.75681 8.9725307,11.480769 8.8690197,10.79811 8.586191,10.238814 8.1007183,9.7567516 7.896375,9.5538438 7.4042692,9.2019231 7.324878,9.2019231 c -0.067141,0 -0.1783076,0.5195074 -0.262338,1.2259619 -0.07413,0.623218 -0.07413,2.521012 0,3.14423 0.08403,0.706455 0.1951974,1.225962 0.262338,1.225962 0.02145,0 0.1583808,-0.07839 0.3042901,-0.174199 z"
     id="path3343" />
  <path
     style="fill:#ffff00;stroke-width:0.0288462"
     d="m 17.080811,16.959331 c -0.93563,-0.128074 -1.826513,-0.591373 -2.572333,-1.33773 -0.680548,-0.681038 -1.08917,-1.386727 -1.320356,-2.280255 -0.20769,-0.802711 -0.220479,-1.730349 -0.03523,-2.555012 0.36417,-1.6211283 1.635225,-3.050502 3.164214,-3.5583396 0.415337,-0.1379498 0.711843,-0.19439 1.048276,-0.1995401 0.247301,-0.00379 0.305388,0.00464 0.407093,0.059052 0.320013,0.1712058 0.607991,0.6723541 0.817197,1.4221093 0.474788,1.7015504 0.526173,4.5810924 0.116124,6.5073544 -0.215566,1.012652 -0.553996,1.698935 -0.933321,1.892635 -0.139327,0.07115 -0.398873,0.08981 -0.691667,0.04973 z m -0.338302,-2.305538 c 0.148919,-0.694385 0.23183,-2.314675 0.177842,-3.475469 -0.04383,-0.942376 -0.150773,-1.9039384 -0.219385,-1.9725503 -0.02865,-0.028652 -0.276312,0.1186775 -0.533862,0.3175892 -0.89638,0.6922921 -1.320049,1.8060311 -1.139635,2.9958681 0.136833,0.902414 0.608355,1.625134 1.395562,2.139029 0.117798,0.0769 0.230909,0.139817 0.251357,0.139817 0.02126,0 0.05043,-0.06177 0.06812,-0.144284 z"
     id="path3382" />
  <path
     style="fill:#ffff00;stroke-width:0.0288462"
     d="M 19.920601,7.6758658 C 19.802,7.3137453 19.582874,6.8763517 19.329761,6.4964959 19.220997,6.3332705 19.136922,6.1954838 19.142927,6.1903032 c 0.006,-0.00518 0.537371,-0.3600595 1.180813,-0.7886196 l 1.169894,-0.7792002 0.540807,0.8362301 c 0.297444,0.4599265 0.536857,0.8393876 0.532029,0.8432467 -0.02616,0.020912 -2.539346,1.6595783 -2.545257,1.6595783 -0.0039,0 -0.04915,-0.1285529 -0.100612,-0.2856727 z"
     id="path3421" />
  <path
     style="fill:#ffff00;stroke-width:0.0288462"
     d="m 20.524038,12 v -0.980769 h 1.73077 1.730769 V 12 12.980769 h -1.730769 -1.73077 z"
     id="path3460" />
  <path
     style="fill:#ffff00;stroke-width:0.0288462"
     d="m 20.350962,18.614378 c -0.626683,-0.418755 -1.156641,-0.771558 -1.177685,-0.784006 -0.02865,-0.01695 0.0024,-0.07638 0.123527,-0.236598 0.199579,-0.263944 0.434232,-0.737641 0.591057,-1.193174 0.06525,-0.189526 0.122956,-0.348917 0.12824,-0.354201 0.0069,-0.0069 2.476383,1.592448 2.550406,1.651677 0.007,0.0056 -0.920492,1.455405 -1.04388,1.631627 -0.0278,0.0397 -0.189291,-0.05889 -1.171665,-0.715325 z"
     id="path3499" />
</svg>
