<?xml version="1.0" encoding="UTF-8" standalone="no"?>
<svg
   version="1.1"
   width="24"
   height="24"
   viewBox="0 0 24 24"
   id="svg1261"
   sodipodi:docname="car_brake_alert_red.svg"
   inkscape:version="1.1 (c68e22c387, 2021-05-23)"
   xmlns:inkscape="http://www.inkscape.org/namespaces/inkscape"
   xmlns:sodipodi="http://sodipodi.sourceforge.net/DTD/sodipodi-0.dtd"
   xmlns="http://www.w3.org/2000/svg"
   xmlns:svg="http://www.w3.org/2000/svg">
  <defs
     id="defs1265" />
  <sodipodi:namedview
     id="namedview1263"
     pagecolor="#ffffff"
     bordercolor="#666666"
     borderopacity="1.0"
     inkscape:pageshadow="2"
     inkscape:pageopacity="0.0"
     inkscape:pagecheckerboard="0"
     showgrid="false"
     inkscape:zoom="34.666667"
     inkscape:cx="11.985577"
     inkscape:cy="12.014423"
     inkscape:window-width="1920"
     inkscape:window-height="1017"
     inkscape:window-x="-8"
     inkscape:window-y="-8"
     inkscape:window-maximized="1"
     inkscape:current-layer="svg1261" />
  <path
     d="M11,15H13V17H11V15M11,7H13V13H11V7M12,3C7.03,3 3,7.03 3,12C3,16.97 7.03,21 12,21C16.97,21 21,16.97 21,12C21,7.03 16.97,3 12,3M12,19C8.14,19 5,15.86 5,12C5,8.14 8.14,5 12,5C15.86,5 19,8.14 19,12C19,15.86 15.86,19 12,19M20.5,20.5C22.66,18.31 24,15.31 24,12C24,8.69 22.66,5.69 20.5,3.5L19.42,4.58C21.32,6.5 22.5,9.11 22.5,12C22.5,14.9 21.32,17.5 19.42,19.42L20.5,20.5M4.58,19.42C2.68,17.5 1.5,14.9 1.5,12C1.5,9.11 2.68,6.5 4.58,4.58L3.5,3.5C1.34,5.69 0,8.69 0,12C0,15.31 1.34,18.31 3.5,20.5L4.58,19.42Z"
     id="path1259" />
  <path
     style="fill:#ff0000;stroke-width:0.0288462"
     d="M 3.2296615,20.185096 C 2.700052,19.623705 1.9909777,18.657384 1.5945141,17.956731 0.76028091,16.482426 0.25608372,14.893065 0.06630654,13.139423 0.01717294,12.685403 0.01780285,11.314108 0.06735995,10.846154 0.24934491,9.1277187 0.76264411,7.5133979 1.5945141,6.0432692 1.9975498,5.3310014 2.7130207,4.3584459 3.2391404,3.8076923 L 3.5009218,3.5336538 4.0268778,4.0577656 4.5528338,4.5818774 4.3139784,4.8366118 C 3.5047465,5.6996418 2.7968737,6.7875649 2.327623,7.8894231 0.70605874,11.697055 1.4737247,16.098675 4.2888689,19.134755 l 0.2631416,0.283793 -0.5160894,0.516688 c -0.2838491,0.284178 -0.5247404,0.516687 -0.535314,0.516687 -0.010574,0 -0.132499,-0.120072 -0.2709456,-0.266827 z"
     id="path1322" />
  <path
     style="fill:#ff0000;stroke-width:0.0288462"
     d="M 11.524038,20.967788 C 8.6871545,20.829776 6.0709376,19.320776 4.478209,16.903846 4.1704333,16.436804 3.7315203,15.560173 3.5466515,15.043269 2.842027,13.073097 2.842027,10.926903 3.5466515,8.9567308 3.7315203,8.4398267 4.1704333,7.5631964 4.478209,7.0961538 5.8113562,5.0731329 7.8707083,3.6703384 10.196175,3.2011759 10.847297,3.069812 11.290592,3.0270105 12,3.0270105 c 0.709408,0 1.152703,0.042802 1.803825,0.1741654 2.68111,0.5409134 4.990157,2.317006 6.226313,4.7892087 0.480993,0.9619419 0.772194,1.9351362 0.901981,3.0144234 0.04954,0.411928 0.04954,1.578456 0,1.990384 -0.239683,1.993162 -1.096904,3.810897 -2.465414,5.22791 -1.832221,1.897158 -4.301105,2.873197 -6.942667,2.744686 z m 1.514424,-2.028531 c 2.161279,-0.342485 4.006379,-1.616694 5.077628,-3.506565 0.430165,-0.758885 0.732186,-1.683456 0.852775,-2.610577 0.04353,-0.33467 0.04353,-1.30956 0,-1.64423 C 18.757013,9.5491047 18.063237,8.1375788 16.919026,7.0073723 16.350645,6.4459486 15.745696,6.0224311 15.00717,5.6689057 14.387233,5.3721473 13.722666,5.1674365 13.02301,5.0577119 c -0.466122,-0.0731 -1.579898,-0.0731 -2.04602,0 C 10.590479,5.1183271 10.002968,5.2653704 9.6346154,5.3936842 9.0172881,5.6087269 8.1094881,6.1207592 7.5833864,6.5506526 6.4857681,7.447549 5.6914038,8.6361265 5.2779265,10.000227 4.967094,11.025692 4.9059297,12.198843 5.1066396,13.285563 c 0.314427,1.702428 1.2735761,3.255439 2.6529758,4.295579 1.0352172,0.780608 2.2337446,1.258613 3.5048076,1.397811 0.355544,0.03894 1.429467,0.01491 1.774039,-0.0397 z"
     id="path1361" />
  <path
     style="fill:#ff0000;stroke-width:0.0288462"
     d="M 11.004808,9.9951923 V 7.0096154 H 12 12.995192 V 9.9951923 12.980769 H 12 11.004808 Z"
     id="path1400" />
  <path
     style="fill:#ff0000;stroke-width:0.0288462"
     d="M 11.004808,15.995192 V 15 H 12 12.995192 v 0.995192 0.995193 H 12 11.004808 Z"
     id="path1439" />
  <path
     style="fill:#ff0000;stroke-width:0.0288462"
     d="m 19.963764,19.93492 -0.516405,-0.517003 0.238759,-0.254632 c 1.262588,-1.346523 2.175448,-3.079218 2.580939,-4.898862 C 23.012953,10.917202 22.03374,7.3404075 19.686022,4.8366118 L 19.447166,4.5818774 19.973122,4.0577656 20.499078,3.5336538 20.76086,3.8076923 c 0.526119,0.5507536 1.24159,1.5233091 1.644626,2.2355769 0.831621,1.4696885 1.331973,3.0431778 1.527265,4.8028848 0.04816,0.43391 0.04816,1.873782 0,2.307692 -0.195292,1.759707 -0.695644,3.333196 -1.527265,4.802885 -0.23035,0.407087 -0.771266,1.200345 -1.081847,1.586538 -0.295992,0.368052 -0.786376,0.908654 -0.824246,0.908654 -0.01057,0 -0.251607,-0.232651 -0.535629,-0.517003 z"
     id="path1478" />
</svg>
