<?xml version="1.0" encoding="UTF-8" standalone="no"?>
<svg
   version="1.1"
   width="24"
   height="24"
   viewBox="0 0 24 24"
   id="svg4642"
   sodipodi:docname="car_tire_alert_red.svg"
   inkscape:version="1.1 (c68e22c387, 2021-05-23)"
   xmlns:inkscape="http://www.inkscape.org/namespaces/inkscape"
   xmlns:sodipodi="http://sodipodi.sourceforge.net/DTD/sodipodi-0.dtd"
   xmlns="http://www.w3.org/2000/svg"
   xmlns:svg="http://www.w3.org/2000/svg">
  <defs
     id="defs4646" />
  <sodipodi:namedview
     id="namedview4644"
     pagecolor="#ffffff"
     bordercolor="#666666"
     borderopacity="1.0"
     inkscape:pageshadow="2"
     inkscape:pageopacity="0.0"
     inkscape:pagecheckerboard="0"
     showgrid="false"
     inkscape:zoom="34.666667"
     inkscape:cx="11.985577"
     inkscape:cy="12.014423"
     inkscape:window-width="1920"
     inkscape:window-height="1017"
     inkscape:window-x="-8"
     inkscape:window-y="-8"
     inkscape:window-maximized="1"
     inkscape:current-layer="svg4642" />
  <path
     d="M11,13H13V15H11V13M11,5H13V11H11V5M17,4.76C18.86,6.19 20,8.61 20,11C20,14 18.33,16.64 15.86,18H8.14C5.67,16.64 4,14 4,11C4,8.61 5.09,6.17 7,4.76V2H5V3.86C3.15,5.68 2,8.2 2,11C2,13.8 3.15,16.32 5,18.14V22H7V20H9V22H11V20H13V22H15V20H17V22H19V18.14C20.85,16.32 22,13.8 22,11C22,8.2 20.85,5.68 19,3.86V2H17V4.76Z"
     id="path4640" />
  <path
     style="fill:#ffff00;stroke-width:0.0288462"
     d="M 5.0038313,20.055288 5.0028534,18.129808 4.685194,17.783654 C 2.6093209,15.521572 1.6855357,12.558905 2.1217678,9.5625 2.4157247,7.5433598 3.3108498,5.6918325 4.73201,4.1633279 L 5.0048077,3.8699251 V 2.9445779 2.0192308 H 6 6.9951923 V 3.3825083 4.7457857 L 6.7872655,4.904143 C 6.5168406,5.1100985 5.9927761,5.6316834 5.7441652,5.9423077 5.120299,6.7217913 4.5966027,7.7381463 4.3128803,8.7200501 4.1072875,9.431563 4.0244061,9.9830807 4.0039354,10.77586 c -0.018075,0.699987 0.00987,1.088078 0.1224187,1.700102 0.4085512,2.221652 1.7722964,4.189224 3.7238045,5.372596 L 8.0999034,18 h 3.8948316 3.894831 l 0.160986,-0.09075 c 0.96344,-0.54313 1.996759,-1.522355 2.634881,-2.496949 0.87831,-1.341428 1.319375,-2.806531 1.319375,-4.382622 0,-1.1364876 -0.207933,-2.1588986 -0.65178,-3.2048165 C 18.887527,6.7279122 18.078335,5.6185044 17.254029,4.9471154 L 17.006115,4.7451923 17.00546,3.3822115 17.004808,2.0192308 H 18 18.995192 v 0.9253471 0.9253472 l 0.272798,0.2934028 c 2.228725,2.3970678 3.146183,5.5894964 2.523004,8.7791651 -0.350388,1.793422 -1.19539,3.445473 -2.476189,4.841161 l -0.31766,0.346154 -9.77e-4,1.92548 -9.76e-4,1.925481 H 18 17.004808 v -0.995192 -0.995192 h -1.009616 -1.009615 v 0.995192 0.995192 h -0.980769 -0.98077 V 20.985577 19.990385 H 12 10.975962 v 0.995192 0.995192 H 9.9951923 9.0144231 V 20.985577 19.990385 H 8.0048077 6.9951923 v 0.995192 0.995192 H 6 5.0048077 l -9.779e-4,-1.925481 z"
     id="path4703" />
  <path
     style="fill:#ffff00;stroke-width:0.0288462"
     d="M 11.004808,14.004808 V 13.009615 H 12 12.995192 V 14.004808 15 H 12 11.004808 Z"
     id="path4742" />
  <path
     style="fill:#00ff00;stroke-width:0.0288462"
     d="M 11.004808,8.0048077 V 5.0192308 H 12 12.995192 V 8.0048077 10.990385 H 12 11.004808 Z"
     id="path4781" />
  <path
     style="fill:#00ff00;stroke-width:0.0288462"
     d="M 11.004808,14.004808 V 13.009615 H 12 12.995192 V 14.004808 15 H 12 11.004808 Z"
     id="path4864" />
  <path
     style="fill:#ff0000;stroke-width:0.0288462"
     d="M 5.0048077,20.044172 V 18.107575 L 4.78125,17.862814 C 4.040052,17.051316 3.525232,16.311713 3.0749046,15.411434 2.5651169,14.392285 2.2669952,13.412903 2.1023274,12.216346 2.0300376,11.691054 2.0289811,10.354934 2.1004369,9.8255342 2.4001011,7.6053871 3.283667,5.7369753 4.7981682,4.1208396 L 5.0048077,3.9003331 V 2.9597819 2.0192308 H 6 6.9951923 V 3.3697643 4.7202977 L 6.77145,4.8965331 C 6.4551756,5.1456531 5.8298815,5.791631 5.5916253,6.1153846 4.7844935,7.2121517 4.2683773,8.4544278 4.0636104,9.7932692 4.0035005,10.18629 3.9779551,11.438276 4.0214214,11.86096 c 0.2476607,2.408357 1.612662,4.593382 3.7007361,5.92395 L 8.0596996,18 h 3.9293564 3.929356 l 0.160986,-0.09045 c 0.982146,-0.551808 2.087016,-1.633434 2.739497,-2.681866 0.633424,-1.01781 1.039212,-2.202224 1.15844,-3.381255 0.04567,-0.451617 0.02076,-1.630702 -0.04308,-2.0387387 C 19.709761,8.3726449 19.115727,7.0308023 18.19751,5.8846154 17.960019,5.5881609 17.461034,5.0844453 17.213942,4.891723 L 17.033654,4.7511048 v -0.842082 c 0,-0.4631451 -0.0085,-1.0778168 -0.01897,-1.365937 l -0.01898,-0.523855 h 0.999744 0.999744 v 0.9402808 0.9402808 l 0.2339,0.249623 c 1.510205,1.6117197 2.421419,3.576347 2.684574,5.7880846 0.05694,0.478543 0.04868,1.721137 -0.01476,2.221154 -0.273953,2.159165 -1.090815,3.922759 -2.600265,5.613936 l -0.303447,0.33998 v 1.934099 1.9341 H 18 17.004808 v -0.995192 -0.995192 h -1.009616 -1.009615 v 0.995192 0.995192 h -0.980769 -0.98077 V 20.985577 19.990385 H 12 10.975962 v 0.995192 0.995192 H 9.9951923 9.0144231 V 20.985577 19.990385 H 8.0048077 6.9951923 v 0.995192 0.995192 H 6 5.0048077 Z"
     id="path4903" />
  <path
     style="fill:#ff0000;stroke-width:0.0288462"
     d="M 11.004808,14.004808 V 13.009615 H 12 12.995192 V 14.004808 15 H 12 11.004808 Z"
     id="path4988" />
  <path
     style="fill:#ff0000;stroke-width:0.0288462"
     d="M 11.004808,8.0048077 V 5.0192308 H 12 12.995192 V 8.0048077 10.990385 H 12 11.004808 Z"
     id="path5027" />
</svg>
