<?xml version="1.0" encoding="utf-8"?>
<!-- Generator: Adobe Illustrator 25.0.0, SVG Export Plug-In . SVG Version: 6.00 Build 0)  -->
<svg version="1.1" id="Icon" xmlns="http://www.w3.org/2000/svg" xmlns:xlink="http://www.w3.org/1999/xlink" x="0px" y="0px"
	 viewBox="0 0 24 24" enable-background="new 0 0 24 24" xml:space="preserve">
<path d="M15.5,10c0.687,0,1.26,0.464,1.438,1.094C17.705,11.24,18.4,11.569,19,12.023V9l-2.08-6c-0.2-0.58-0.76-1-1.42-1h-11
	C3.84,2,3.28,2.42,3.08,3L1,9v8c0,0.552,0.448,1,1,1h1c0.552,0,1-0.448,1-1v-1h7c0-2.053,1.239-3.812,3.008-4.582
	C14.052,10.628,14.7,10,15.5,10z M4.5,13C3.672,13,3,12.328,3,11.5S3.672,10,4.5,10S6,10.672,6,11.5S5.328,13,4.5,13z M3,8l1.5-4.5
	h11L17,8H3z M22.83,21.828l-1.04,1.03c-0.18,0.19-0.45,0.19-0.63,0l-4.11-4.1c-1.04,0.4-2.26,0.18-3.12-0.68
	c-0.88-0.91-1.13-2.26-0.59-3.35l1.99,1.95l1.35-1.36l-1.94-1.94c1.09-0.5,2.44-0.32,3.34,0.59c0.86,0.85,1.09,2.07,0.68,3.11
	l4.11,4.11C23.05,21.328,23.05,21.648,22.83,21.828z"/>
</svg>
