<?xml version="1.0" encoding="UTF-8" standalone="no"?>
<svg
   version="1.1"
   width="24"
   height="24"
   viewBox="0 0 24 24"
   id="svg26090"
   sodipodi:docname="car_brake_hold_white.svg"
   inkscape:version="1.1 (c68e22c387, 2021-05-23)"
   xmlns:inkscape="http://www.inkscape.org/namespaces/inkscape"
   xmlns:sodipodi="http://sodipodi.sourceforge.net/DTD/sodipodi-0.dtd"
   xmlns="http://www.w3.org/2000/svg"
   xmlns:svg="http://www.w3.org/2000/svg">
  <defs
     id="defs26094" />
  <sodipodi:namedview
     id="namedview26092"
     pagecolor="#ffffff"
     bordercolor="#666666"
     borderopacity="1.0"
     inkscape:pageshadow="2"
     inkscape:pageopacity="0.0"
     inkscape:pagecheckerboard="0"
     showgrid="false"
     inkscape:zoom="35.083333"
     inkscape:cx="11.985748"
     inkscape:cy="11.985748"
     inkscape:window-width="1920"
     inkscape:window-height="1027"
     inkscape:window-x="-8"
     inkscape:window-y="-8"
     inkscape:window-maximized="1"
     inkscape:current-layer="svg26090" />
  <path
     d="M12,3C7,3 3,7 3,12C3,17 7,21 12,21C17,21 21,17 21,12C21,7 17,3 12,3M12,19C8.1,19 5,15.9 5,12C5,8.1 8.1,5 12,5C15.9,5 19,8.1 19,12C19,15.9 15.9,19 12,19M20.5,20.5C22.7,18.3 24,15.3 24,12C24,8.7 22.7,5.7 20.5,3.5L19.4,4.6C21.3,6.5 22.5,9.1 22.5,12C22.5,14.9 21.3,17.5 19.4,19.4L20.5,20.5M4.6,19.4C2.7,17.5 1.5,14.9 1.5,12C1.5,9.1 2.7,6.5 4.6,4.6L3.5,3.5C1.3,5.7 0,8.7 0,12C0,15.3 1.3,18.3 3.5,20.5L4.6,19.4M9,7V17H11V13H13V17H15V7H13V11H11V7H9Z"
     id="path26088" />
  <path
     style="fill:#ffffff;stroke-width:0.0285036"
     d="M 3.2101625,20.164391 C 2.0333838,18.931848 1.0454643,17.215358 0.52900797,15.505938 -0.10390624,13.411054 -0.15015786,11.070251 0.39966382,8.9598074 0.89959089,7.0408797 1.9120468,5.1952384 3.2112482,3.8344719 L 3.5014561,3.5305121 4.0378971,4.0663958 4.5743381,4.6022796 4.4086048,4.7738239 C 2.9872769,6.2449846 1.985793,8.2112605 1.6427111,10.204276 1.5291397,10.864029 1.5106888,11.114992 1.5106888,12 c 0,0.881911 0.018937,1.141411 0.1300017,1.781473 0.3503245,2.018903 1.3411296,3.967894 2.7679143,5.444703 l 0.1657333,0.171544 -0.536441,0.535884 -0.536441,0.535884 z"
     id="path26170" />
  <path
     style="fill:#ffffff;stroke-width:0.0285036"
     d="M 11.287411,20.961301 C 9.3620984,20.768363 7.822121,20.159552 6.3705463,19.017478 6.0431678,18.759903 5.2581442,17.977902 4.9914624,17.643705 4.201462,16.653703 3.60104,15.447585 3.2958215,14.23753 3.0995744,13.459497 3.0247392,12.841803 3.0247392,12 c 0,-0.841803 0.074835,-1.459497 0.2710823,-2.2375297 0.8197207,-3.249828 3.4316889,-5.7916892 6.7060685,-6.5260726 0.725759,-0.1627745 1.073472,-0.1975635 1.983858,-0.1984866 0.877061,-8.894e-4 1.176562,0.024813 1.821026,0.1562767 1.456195,0.2970482 2.857087,0.9739233 3.993701,1.9296547 0.329397,0.2769766 0.9422,0.9027596 1.206887,1.232452 0.250333,0.3118133 0.68268,0.9610658 0.882613,1.3254157 1.343912,2.4490908 1.453116,5.4699568 0.291089,8.0522568 -0.271623,0.603608 -0.749997,1.381975 -1.173702,1.909738 -0.264687,0.329693 -0.87749,0.955476 -1.206887,1.232452 -1.304295,1.096728 -2.864347,1.784793 -4.610997,2.033694 -0.291969,0.04161 -1.637188,0.07799 -1.902067,0.05145 z m 1.752969,-2.020469 c 1.539103,-0.234399 2.865937,-0.904451 3.947744,-1.993612 0.765854,-0.771061 1.328849,-1.687016 1.663448,-2.706317 0.250416,-0.762855 0.353033,-1.414222 0.353033,-2.240903 0,-0.834495 -0.100752,-1.471953 -0.355198,-2.2473358 -0.820185,-2.4993819 -2.96632,-4.2879821 -5.637531,-4.6983489 -0.460151,-0.070691 -1.563601,-0.070691 -2.023752,0 -0.766963,0.1178252 -1.446247,0.3295016 -2.1235159,0.6617236 -2.0896116,1.0250207 -3.5108282,3.022881 -3.8213828,5.3718681 -0.056125,0.424525 -0.063393,1.276272 -0.014591,1.710193 0.146323,1.301044 0.6751636,2.578613 1.5001941,3.624157 0.090955,0.115264 0.3266355,0.370355 0.5237353,0.566868 1.136888,1.133504 2.6063504,1.823023 4.2490993,1.993816 0.35233,0.03663 1.386085,0.01159 1.738717,-0.04211 z"
     id="path26209" />
  <path
     style="fill:#ffffff;stroke-width:0.0285036"
     d="M 9.0213777,12 V 7.0118765 h 0.9833733 0.983373 V 9.0071259 11.002375 H 12 13.011876 V 9.0071259 7.0118765 h 0.983373 0.983373 V 12 16.988124 h -0.983373 -0.983373 v -1.99525 -1.995249 H 12 10.988124 v 1.995249 1.99525 H 10.004751 9.0213777 Z"
     id="path26248" />
  <path
     style="fill:#ffffff;stroke-width:0.0285036"
     d="m 19.958097,19.929599 -0.53486,-0.535416 0.07613,-0.07001 c 0.04187,-0.03851 0.206165,-0.217519 0.365102,-0.397804 1.508513,-1.71114 2.408394,-3.785263 2.60935,-6.014252 0.038,-0.421459 0.038,-1.402769 0,-1.824228 C 22.265881,8.7814831 21.288023,6.5968144 19.698531,4.8875161 L 19.429615,4.598331 19.964079,4.0644215 20.498544,3.5305121 20.787975,3.8336579 c 0.764783,0.8010244 1.417245,1.7505698 1.958614,2.8504276 0.660431,1.3417428 1.007516,2.5548163 1.186621,4.1472685 0.02191,0.19483 0.03687,0.668864 0.03687,1.168646 0,0.849601 -0.02094,1.149948 -0.130114,1.866449 -0.289904,1.902572 -1.061085,3.749353 -2.209204,5.290473 -0.31553,0.423536 -0.711411,0.890217 -0.970844,1.144469 l -0.166958,0.163624 z"
     id="path26287" />
</svg>
