<?xml version="1.0" encoding="UTF-8" standalone="no"?>
<svg
   version="1.1"
   width="24"
   height="24"
   viewBox="0 0 24 24"
   id="svg5816"
   sodipodi:docname="car_door_lock_red.svg"
   inkscape:version="1.1 (c68e22c387, 2021-05-23)"
   xmlns:inkscape="http://www.inkscape.org/namespaces/inkscape"
   xmlns:sodipodi="http://sodipodi.sourceforge.net/DTD/sodipodi-0.dtd"
   xmlns="http://www.w3.org/2000/svg"
   xmlns:svg="http://www.w3.org/2000/svg">
  <defs
     id="defs5820" />
  <sodipodi:namedview
     id="namedview5818"
     pagecolor="#ffffff"
     bordercolor="#666666"
     borderopacity="1.0"
     inkscape:pageshadow="2"
     inkscape:pageopacity="0.0"
     inkscape:pagecheckerboard="0"
     showgrid="false"
     inkscape:zoom="34.666667"
     inkscape:cx="11.985577"
     inkscape:cy="12.014423"
     inkscape:window-width="1920"
     inkscape:window-height="1017"
     inkscape:window-x="-8"
     inkscape:window-y="-8"
     inkscape:window-maximized="1"
     inkscape:current-layer="svg5816" />
  <path
     d="M21 3H11L3 11V12H4.5C7.5 12 10 14.91 10 18.5V21H22V4A1 1 0 0 0 21 3M19 16H16V14H19M20 11H5.83L11.83 5H20M7 17V16.5A2.5 2.5 0 0 0 2 16.5V17A1 1 0 0 0 1 18V22A1 1 0 0 0 2 23H7A1 1 0 0 0 8 22V18A1 1 0 0 0 7 17M6.2 17H2.8V16.5A1.7 1.7 0 0 1 6.2 16.5Z"
     id="path5814" />
  <path
     style="fill:#00ff00;stroke-width:0.0288462"
     d="M 1.7475395,22.944934 C 1.6615708,22.921617 1.5498521,22.876964 1.4992757,22.845706 1.3370353,22.745436 1.151145,22.520251 1.0852703,22.344185 1.0227509,22.177087 1.0226782,22.173909 1.0305646,19.951413 l 0.0079,-2.225451 0.09831,-0.181305 c 0.054071,-0.09972 0.1443438,-0.221722 0.2006068,-0.271122 0.1300813,-0.114213 0.3808096,-0.229501 0.5375353,-0.247166 l 0.1214416,-0.01369 0.016929,-0.436628 c 0.020086,-0.518058 0.079249,-0.780298 0.2612026,-1.157783 0.3237983,-0.671757 0.8831522,-1.12509 1.6485899,-1.336112 0.2399216,-0.06614 0.9139246,-0.06614 1.1538462,0 0.7630725,0.21037 1.3262726,0.666796 1.6486748,1.336112 0.1818978,0.377625 0.2410364,0.639843 0.2611177,1.157783 l 0.016929,0.436628 0.1214418,0.01369 c 0.1567254,0.01767 0.4074539,0.132953 0.5375351,0.247166 0.056263,0.0494 0.1465361,0.171405 0.2006068,0.271122 l 0.098311,0.181305 0.0079,2.225451 c 0.00786,2.213931 0.00758,2.226325 -0.054001,2.394231 -0.046165,0.125879 -0.1070094,0.213352 -0.2393757,0.34414 -0.3124746,0.30875 -0.060875,0.285205 -3.1183662,0.291811 -2.257321,0.0049 -2.6772007,-6e-4 -2.8101528,-0.03666 z M 6.2158454,16.680288 C 6.2148989,16.039962 6.0744392,15.661387 5.699503,15.288615 5.3553234,14.946422 4.9925778,14.798077 4.5,14.798077 c -0.4888656,0 -0.854459,0.149399 -1.2000158,0.490385 -0.3736435,0.3687 -0.5148807,0.749791 -0.5158295,1.391826 l -5.009e-4,0.338943 H 4.5 6.2163462 l -5.02e-4,-0.338943 z"
     id="path5877" />
  <path
     style="fill:#ff0000;stroke-width:0.0288462"
     d="M 10.023592,19.723558 C 10.023105,18.33369 9.9966179,17.773519 9.905413,17.224339 9.7189468,16.101553 9.2440419,14.99658 8.5756168,14.130271 7.7568398,13.069098 6.7175057,12.379992 5.5096154,12.097429 5.168745,12.017689 5.1470607,12.016295 4.0889423,12.006063 L 3.0144231,11.995673 V 11.500201 11.00473 L 7.0168656,7.0023649 11.019308,3 l 4.9615,2.179e-4 c 3.272383,1.437e-4 5.023977,0.010356 5.145016,0.029996 0.351241,0.056994 0.621505,0.2629605 0.774154,0.5899785 l 0.08079,0.1730769 0.0074,8.6033657 L 21.995664,21 H 16.009851 10.024038 Z M 19.024038,15 V 13.990385 H 17.509615 15.995192 V 15 16.009615 h 1.514423 1.514423 z m 0.98077,-6.9951923 V 4.9903846 H 15.915814 11.82682 L 8.8125,8.0048077 5.7981805,11.019231 h 7.1033135 7.103314 z"
     id="path5916" />
  <path
     style="fill:#ff0000;stroke-width:0.0288462"
     d="M 1.7663789,22.930913 C 1.4973978,22.865659 1.2531258,22.654831 1.123214,22.375805 L 1.053448,22.225962 1.0531662,19.974265 1.0528844,17.722567 1.1558777,17.551188 c 0.056646,-0.09426 0.1312857,-0.202277 0.1658654,-0.240041 0.078555,-0.08579 0.4402108,-0.26292 0.5380198,-0.263512 0.1348276,-8.16e-4 0.1424166,-0.02299 0.1730942,-0.505698 0.033567,-0.528171 0.092134,-0.777371 0.2644017,-1.125023 C 2.6038591,14.79817 3.1088485,14.368258 3.8076923,14.131041 3.9890224,14.06949 4.0596268,14.0625 4.5,14.0625 c 0.4403732,0 0.5109776,0.007 0.6923077,0.06854 0.701132,0.237994 1.210798,0.673076 1.5153493,1.293596 0.162851,0.331807 0.2267642,0.609793 0.2602021,1.131732 0.02995,0.467492 0.038007,0.490452 0.1723777,0.491266 0.097809,5.92e-4 0.4594647,0.177725 0.53802,0.263512 0.03458,0.03776 0.1094461,0.146159 0.1663696,0.240878 l 0.1034977,0.172218 -0.00772,2.279705 c -0.00884,2.612535 0.017982,2.368313 -0.2952548,2.688131 -0.1117668,0.114115 -0.2152682,0.190947 -0.2893844,0.214819 -0.09011,0.02902 -0.7030211,0.03861 -2.7980769,0.04376 -1.5460368,0.0038 -2.728715,-0.0046 -2.7913134,-0.01975 z m 4.4499673,-6.282068 c 0,-0.615729 -0.1145256,-0.943745 -0.4565954,-1.307752 -0.3697515,-0.393463 -0.7113635,-0.543016 -1.2403662,-0.543016 -0.5485335,0 -0.8621501,0.127688 -1.231594,0.501439 -0.387496,0.392013 -0.5041368,0.704204 -0.5041368,1.349329 v 0.370386 H 4.5 6.2163462 Z"
     id="path5998" />
</svg>
