<?xml version="1.0" encoding="UTF-8" standalone="no"?>
<svg
   version="1.1"
   width="24"
   height="24"
   viewBox="0 0 24 24"
   id="svg27"
   sodipodi:docname="car_brake_parking_red.svg"
   inkscape:version="1.1 (c68e22c387, 2021-05-23)"
   xmlns:inkscape="http://www.inkscape.org/namespaces/inkscape"
   xmlns:sodipodi="http://sodipodi.sourceforge.net/DTD/sodipodi-0.dtd"
   xmlns="http://www.w3.org/2000/svg"
   xmlns:svg="http://www.w3.org/2000/svg">
  <defs
     id="defs31" />
  <sodipodi:namedview
     id="namedview29"
     pagecolor="#ffffff"
     bordercolor="#666666"
     borderopacity="1.0"
     inkscape:pageshadow="2"
     inkscape:pageopacity="0.0"
     inkscape:pagecheckerboard="0"
     showgrid="false"
     inkscape:zoom="33.708333"
     inkscape:cx="12"
     inkscape:cy="12"
     inkscape:window-width="1920"
     inkscape:window-height="1017"
     inkscape:window-x="-8"
     inkscape:window-y="-8"
     inkscape:window-maximized="1"
     inkscape:current-layer="svg27" />
  <path
     d="M12,3C7,3 3,7 3,12C3,17 7,21 12,21C17,21 21,17 21,12C21,7 17,3 12,3M12,19C8.1,19 5,15.9 5,12C5,8.1 8.1,5 12,5C15.9,5 19,8.1 19,12C19,15.9 15.9,19 12,19M20.5,20.5C22.7,18.3 24,15.3 24,12C24,8.7 22.7,5.7 20.5,3.5L19.4,4.6C21.3,6.5 22.5,9.1 22.5,12C22.5,14.9 21.3,17.5 19.4,19.4L20.5,20.5M4.6,19.4C2.7,17.5 1.5,14.9 1.5,12C1.5,9.1 2.7,6.5 4.6,4.6L3.5,3.5C1.3,5.7 0,8.7 0,12C0,15.3 1.3,18.3 3.5,20.5L4.6,19.4M9.5,7V17H11.5V13H13.5C14.6,13 15.5,12.1 15.5,11V9C15.5,7.9 14.6,7 13.5,7H9.5M11.5,9H13.5V11H11.5V9Z"
     id="path25" />
  <path
     style="fill:#ff0000;stroke-width:0.0296663"
     d="M 3.2098813,20.168302 C 1.455448,18.281356 0.41432799,16.000097 0.08438904,13.319852 0.01181414,12.730293 0.01140145,11.258558 0.08364875,10.679852 0.28291375,9.0837229 0.68288941,7.7616973 1.3635717,6.449367 1.8615715,5.4892419 2.5449599,4.5275833 3.2652611,3.7733253 L 3.500618,3.526873 4.0318265,4.0600933 4.5630349,4.5933135 4.2438221,4.9498057 C 2.6577483,6.7211104 1.7402055,8.7827801 1.528638,11.05068 c -0.044322,0.475109 -0.036863,1.53591 0.014185,2.017305 0.2378871,2.243346 1.1378006,4.236451 2.7010959,5.982317 l 0.3193095,0.3566 -0.5340721,0.534072 -0.5340721,0.534072 z"
     id="path168" />
  <path
     style="fill:#ff0000;stroke-width:0.0296663"
     d="M 11.080346,20.942101 C 8.9786086,20.711974 7.1080785,19.821067 5.636089,18.349078 4.9332173,17.646206 4.4049845,16.907803 3.9602087,16.006407 3.4847971,15.042923 3.2323038,14.212195 3.0806244,13.112485 c -0.071146,-0.515824 -0.071146,-1.709146 0,-2.22497 C 3.2320803,9.7894259 3.483415,8.9620438 3.9592699,7.9950556 4.4036363,7.0920558 4.924185,6.3641643 5.6362977,5.6500413 7.0050304,4.2774449 8.7116808,3.4173546 10.679852,3.1082716 11.040797,3.0515885 11.213655,3.0430482 12,3.0430482 c 0.786345,0 0.959203,0.00854 1.320148,0.065223 1.968171,0.309083 3.674822,1.1691733 5.043554,2.5417697 0.707383,0.7093793 1.238416,1.4517741 1.677384,2.3450143 0.372917,0.7588346 0.597867,1.4030293 0.751054,2.1508038 0.488616,2.385165 0.02,4.842985 -1.301027,6.823635 -0.365678,0.548272 -0.672165,0.923483 -1.127617,1.380465 -1.170909,1.174841 -2.587625,1.973248 -4.212577,2.374047 -0.727658,0.179479 -1.118111,0.225159 -2.017421,0.236026 -0.440544,0.0053 -0.914462,-0.0027 -1.053152,-0.01793 z m 1.957973,-2.000589 c 2.272973,-0.340098 4.215175,-1.740222 5.229375,-3.769832 0.312419,-0.62521 0.51605,-1.245435 0.651453,-1.984214 0.05737,-0.312991 0.0654,-0.458823 0.0654,-1.187466 0,-0.728643 -0.008,-0.874475 -0.0654,-1.187466 C 18.649117,9.3392149 18.040371,8.1372816 17.043422,7.1090231 15.957898,5.9894086 14.603488,5.2975274 13.023486,5.0554962 c -0.498492,-0.076361 -1.54848,-0.076361 -2.046972,0 C 9.9198556,5.2173595 8.9465367,5.5891052 8.1010104,6.1537549 7.6331359,6.4662055 7.3528465,6.6999625 6.9553264,7.1092379 6.0223773,8.0697751 5.4051223,9.2361597 5.1307248,10.557062 c -0.1771329,0.852688 -0.1771329,2.033188 0,2.885876 0.5200123,2.50325 2.3590662,4.52707 4.7816873,5.262094 0.3786969,0.114897 1.0011709,0.240295 1.3904309,0.280104 0.368149,0.03765 1.358708,0.01275 1.735476,-0.04362 z"
     id="path207" />
  <path
     style="fill:#ff0000;stroke-width:0.0296663"
     d="M 9.5080346,11.998393 V 6.9980214 l 2.1433874,0.010375 c 2.403868,0.011636 2.276144,6.342e-4 2.751545,0.2370038 0.427087,0.212348 0.782925,0.6185459 0.975291,1.1133177 l 0.07776,0.1999966 0.0089,1.3584745 c 0.01,1.531508 0.0093,1.538055 -0.206674,1.978611 -0.229251,0.467617 -0.721843,0.870126 -1.255735,1.02609 -0.152535,0.04456 -0.344562,0.05373 -1.342398,0.0641 l -1.1644,0.0121 v 2.000337 2.000337 H 10.501854 9.5080346 Z M 13.512979,9.9975278 V 8.9888752 H 12.504326 11.495674 V 9.9975278 11.00618 h 1.008652 1.008653 z"
     id="path246" />
  <path
     style="fill:#ff0000;stroke-width:0.0296663"
     d="m 19.967162,19.937498 -0.530672,-0.531287 0.27663,-0.306319 c 1.593825,-1.764884 2.503655,-3.764846 2.744057,-6.031907 0.05699,-0.537453 0.05699,-1.598517 0,-2.13597 C 22.219185,8.687676 21.3201,6.6963723 19.756178,4.9498057 l -0.319213,-0.3564922 0.530434,-0.5310491 0.530435,-0.531049 0.114385,0.1107829 c 0.18337,0.1775946 0.603385,0.6632917 0.871917,1.0082677 1.94938,2.5043188 2.815555,5.736201 2.395168,8.936879 -0.277506,2.112835 -1.106269,4.106773 -2.395168,5.762589 -0.268532,0.344976 -0.688547,0.830673 -0.871917,1.008268 l -0.114385,0.110783 z"
     id="path285" />
</svg>
