<?xml version="1.0" encoding="UTF-8" standalone="no"?>
<svg
   version="1.1"
   width="24"
   height="24"
   viewBox="0 0 24 24"
   id="svg27"
   sodipodi:docname="car_brake_parking_yellow.svg"
   inkscape:version="1.1 (c68e22c387, 2021-05-23)"
   xmlns:inkscape="http://www.inkscape.org/namespaces/inkscape"
   xmlns:sodipodi="http://sodipodi.sourceforge.net/DTD/sodipodi-0.dtd"
   xmlns="http://www.w3.org/2000/svg"
   xmlns:svg="http://www.w3.org/2000/svg">
  <defs
     id="defs31" />
  <sodipodi:namedview
     id="namedview29"
     pagecolor="#ffffff"
     bordercolor="#666666"
     borderopacity="1.0"
     inkscape:pageshadow="2"
     inkscape:pageopacity="0.0"
     inkscape:pagecheckerboard="0"
     showgrid="false"
     inkscape:zoom="33.708333"
     inkscape:cx="12"
     inkscape:cy="12"
     inkscape:window-width="1920"
     inkscape:window-height="1017"
     inkscape:window-x="-8"
     inkscape:window-y="-8"
     inkscape:window-maximized="1"
     inkscape:current-layer="svg27" />
  <path
     d="M12,3C7,3 3,7 3,12C3,17 7,21 12,21C17,21 21,17 21,12C21,7 17,3 12,3M12,19C8.1,19 5,15.9 5,12C5,8.1 8.1,5 12,5C15.9,5 19,8.1 19,12C19,15.9 15.9,19 12,19M20.5,20.5C22.7,18.3 24,15.3 24,12C24,8.7 22.7,5.7 20.5,3.5L19.4,4.6C21.3,6.5 22.5,9.1 22.5,12C22.5,14.9 21.3,17.5 19.4,19.4L20.5,20.5M4.6,19.4C2.7,17.5 1.5,14.9 1.5,12C1.5,9.1 2.7,6.5 4.6,4.6L3.5,3.5C1.3,5.7 0,8.7 0,12C0,15.3 1.3,18.3 3.5,20.5L4.6,19.4M9.5,7V17H11.5V13H13.5C14.6,13 15.5,12.1 15.5,11V9C15.5,7.9 14.6,7 13.5,7H9.5M11.5,9H13.5V11H11.5V9Z"
     id="path25" />
  <path
     style="fill:#ff0000;stroke-width:0.0296663"
     d="M 3.2098813,20.168302 C 1.455448,18.281356 0.41432799,16.000097 0.08438904,13.319852 0.01181414,12.730293 0.01140145,11.258558 0.08364875,10.679852 0.28291375,9.0837229 0.68288941,7.7616973 1.3635717,6.449367 1.8615715,5.4892419 2.5449599,4.5275833 3.2652611,3.7733253 L 3.500618,3.526873 4.0318265,4.0600933 4.5630349,4.5933135 4.2438221,4.9498057 C 2.6577483,6.7211104 1.7402055,8.7827801 1.528638,11.05068 c -0.044322,0.475109 -0.036863,1.53591 0.014185,2.017305 0.2378871,2.243346 1.1378006,4.236451 2.7010959,5.982317 l 0.3193095,0.3566 -0.5340721,0.534072 -0.5340721,0.534072 z"
     id="path168" />
  <path
     style="fill:#ff0000;stroke-width:0.0296663"
     d="M 11.080346,20.942101 C 8.9786086,20.711974 7.1080785,19.821067 5.636089,18.349078 4.9332173,17.646206 4.4049845,16.907803 3.9602087,16.006407 3.4847971,15.042923 3.2323038,14.212195 3.0806244,13.112485 c -0.071146,-0.515824 -0.071146,-1.709146 0,-2.22497 C 3.2320803,9.7894259 3.483415,8.9620438 3.9592699,7.9950556 4.4036363,7.0920558 4.924185,6.3641643 5.6362977,5.6500413 7.0050304,4.2774449 8.7116808,3.4173546 10.679852,3.1082716 11.040797,3.0515885 11.213655,3.0430482 12,3.0430482 c 0.786345,0 0.959203,0.00854 1.320148,0.065223 1.968171,0.309083 3.674822,1.1691733 5.043554,2.5417697 0.707383,0.7093793 1.238416,1.4517741 1.677384,2.3450143 0.372917,0.7588346 0.597867,1.4030293 0.751054,2.1508038 0.488616,2.385165 0.02,4.842985 -1.301027,6.823635 -0.365678,0.548272 -0.672165,0.923483 -1.127617,1.380465 -1.170909,1.174841 -2.587625,1.973248 -4.212577,2.374047 -0.727658,0.179479 -1.118111,0.225159 -2.017421,0.236026 -0.440544,0.0053 -0.914462,-0.0027 -1.053152,-0.01793 z m 1.957973,-2.000589 c 2.272973,-0.340098 4.215175,-1.740222 5.229375,-3.769832 0.312419,-0.62521 0.51605,-1.245435 0.651453,-1.984214 0.05737,-0.312991 0.0654,-0.458823 0.0654,-1.187466 0,-0.728643 -0.008,-0.874475 -0.0654,-1.187466 C 18.649117,9.3392149 18.040371,8.1372816 17.043422,7.1090231 15.957898,5.9894086 14.603488,5.2975274 13.023486,5.0554962 c -0.498492,-0.076361 -1.54848,-0.076361 -2.046972,0 C 9.9198556,5.2173595 8.9465367,5.5891052 8.1010104,6.1537549 7.6331359,6.4662055 7.3528465,6.6999625 6.9553264,7.1092379 6.0223773,8.0697751 5.4051223,9.2361597 5.1307248,10.557062 c -0.1771329,0.852688 -0.1771329,2.033188 0,2.885876 0.5200123,2.50325 2.3590662,4.52707 4.7816873,5.262094 0.3786969,0.114897 1.0011709,0.240295 1.3904309,0.280104 0.368149,0.03765 1.358708,0.01275 1.735476,-0.04362 z"
     id="path207" />
  <path
     style="fill:#ff0000;stroke-width:0.0296663"
     d="M 9.5080346,11.998393 V 6.9980214 l 2.1433874,0.010375 c 2.403868,0.011636 2.276144,6.342e-4 2.751545,0.2370038 0.427087,0.212348 0.782925,0.6185459 0.975291,1.1133177 l 0.07776,0.1999966 0.0089,1.3584745 c 0.01,1.531508 0.0093,1.538055 -0.206674,1.978611 -0.229251,0.467617 -0.721843,0.870126 -1.255735,1.02609 -0.152535,0.04456 -0.344562,0.05373 -1.342398,0.0641 l -1.1644,0.0121 v 2.000337 2.000337 H 10.501854 9.5080346 Z M 13.512979,9.9975278 V 8.9888752 H 12.504326 11.495674 V 9.9975278 11.00618 h 1.008652 1.008653 z"
     id="path246" />
  <path
     style="fill:#00ff00;stroke-width:0.0296663"
     d="m 19.967162,19.937498 -0.530672,-0.531287 0.27663,-0.306319 c 1.593825,-1.764884 2.503655,-3.764846 2.744057,-6.031907 0.05699,-0.537453 0.05699,-1.598517 0,-2.13597 C 22.219185,8.687676 21.3201,6.6963723 19.756178,4.9498057 l -0.319213,-0.3564922 0.530434,-0.5310491 0.530435,-0.531049 0.114385,0.1107829 c 0.18337,0.1775946 0.603385,0.6632917 0.871917,1.0082677 1.94938,2.5043188 2.815555,5.736201 2.395168,8.936879 -0.277506,2.112835 -1.106269,4.106773 -2.395168,5.762589 -0.268532,0.344976 -0.688547,0.830673 -0.871917,1.008268 l -0.114385,0.110783 z"
     id="path285" />
  <path
     style="fill:#00ff00;stroke-width:0.0296663"
     d="M 9.5080346,12.003725 V 7.0086855 l 1.9208904,0.012368 c 1.056489,0.0068 2.074412,0.024711 2.262052,0.039798 0.325015,0.026132 0.355202,0.034419 0.637824,0.1750804 0.477099,0.2374536 0.747453,0.5229025 0.994444,1.0499669 l 0.118041,0.2518924 v 1.3911263 c 0,1.5638875 -1.4e-5,1.5640115 -0.21512,1.9789965 -0.216299,0.417289 -0.6264,0.771062 -1.108903,0.956596 -0.202624,0.07791 -0.210239,0.0785 -1.331107,0.101718 -0.620025,0.01285 -1.16403,0.02431 -1.2089,0.02547 l -0.08158,0.0021 v 2.002472 2.002472 H 10.501854 9.5080346 Z M 13.512979,9.9975278 V 8.9888752 H 12.504326 11.495674 V 9.9975278 11.00618 h 1.008652 1.008653 z"
     id="path369" />
  <path
     style="fill:#00ff00;stroke-width:0.0296663"
     d="M 11.035847,20.923664 C 10.682965,20.876789 10.15581,20.781934 9.8936959,20.718149 6.4067715,19.869609 3.7735879,17.051885 3.1604117,13.512979 3.0611271,12.939965 3.0323448,12.473219 3.0506481,11.733004 3.0864261,10.286083 3.3839721,9.1528435 4.0820487,7.8047908 4.8086167,6.4017185 5.9308877,5.1996013 7.3061648,4.3512887 8.0571228,3.8880754 9.0435723,3.4818184 9.9204673,3.2746211 10.637791,3.1051282 10.868661,3.0786867 11.765947,3.0632585 c 0.964828,-0.016589 1.330219,0.00969 1.992398,0.1432818 2.96459,0.5981057 5.371845,2.5822737 6.537236,5.3882851 0.269405,0.6486684 0.464233,1.3613563 0.578095,2.1146926 0.06014,0.397913 0.06957,0.571672 0.07001,1.290482 4.42e-4,0.723265 -0.0085,0.890103 -0.06919,1.290482 -0.389578,2.570275 -1.773118,4.753057 -3.921963,6.187599 -1.176222,0.785231 -2.699269,1.329799 -4.01494,1.435547 -0.359231,0.02887 -1.706416,0.03598 -1.901748,0.01004 z m 1.664418,-1.938439 c 1.745151,-0.140705 3.471619,-1.029982 4.634104,-2.386956 0.784696,-0.915978 1.300273,-1.979954 1.566937,-3.233621 0.0665,-0.312654 0.07765,-0.450632 0.09154,-1.133319 0.01805,-0.88708 -0.0088,-1.231385 -0.140252,-1.801287 C 18.462733,8.7403342 17.522258,7.3131848 16.127659,6.2950214 15.27623,5.6734127 14.253134,5.2522846 13.110415,5.0530591 c -0.422177,-0.073604 -1.798653,-0.073604 -2.22083,0 C 9.3583013,5.3200284 8.069199,5.9731664 7.0441237,7.0014052 6.4517343,7.5956226 6.0623644,8.1392713 5.6950309,8.8850433 5.1411803,10.009488 4.9406346,11.04821 5.004848,12.459827 c 0.045166,0.9929 0.3056799,1.939002 0.7832611,2.844554 0.8185622,1.552093 2.2197484,2.761465 3.8512364,3.324026 0.3650275,0.125867 0.9749825,0.272317 1.4113345,0.338861 0.339328,0.05175 1.124476,0.06029 1.649585,0.01796 z"
     id="path408" />
  <path
     style="fill:#ffff00;stroke-width:0.0296663"
     d="M 3.2497068,20.182758 C 1.7213556,18.55391 0.71590235,16.584789 0.26819141,14.343634 0.0803285,13.403229 0.06097484,13.182844 0.06107659,11.985167 0.06117581,10.817142 0.08686649,10.526139 0.26874973,9.6328103 0.71743778,7.4290573 1.7173613,5.4663364 3.2081109,3.8632235 L 3.4948812,3.5548383 4.0094925,4.0688194 c 0.2830363,0.2826896 0.5144007,0.5207991 0.5141432,0.5291322 -2.67e-4,0.00833 -0.1412725,0.1747513 -0.3133661,0.3698182 -1.533169,1.7378364 -2.404882,3.6470409 -2.668457,5.8443882 -0.072688,0.605983 -0.048799,2.110945 0.042873,2.700821 0.3245278,2.088233 1.1739782,3.873865 2.6255843,5.519251 0.1720936,0.195067 0.3131083,0.361485 0.3133661,0.369819 2.67e-4,0.0083 -0.2309862,0.246321 -0.513875,0.528863 l -0.5143429,0.513713 z"
     id="path447" />
  <path
     style="fill:#ffff00;stroke-width:0.0296663"
     d="M 10.590853,20.840014 C 9.2431841,20.602601 8.1114479,20.157852 7.0457355,19.446857 5.1822147,18.203599 3.8789499,16.36012 3.3216385,14.179091 3.1449993,13.487816 3.097067,13.119619 3.0793608,12.318007 3.0407697,10.570882 3.2845067,9.4479643 4.0217689,7.9762475 5.199402,5.6254656 7.2558212,3.9763242 9.8286212,3.3194534 10.649409,3.1098952 10.728058,3.1019274 11.985167,3.1009764 c 1.24241,-9.399e-4 1.300039,0.00468 2.140547,0.208924 3.182417,0.7733112 5.69761,3.2435657 6.522331,6.405798 0.239386,0.9178776 0.294113,1.4209606 0.273754,2.5164966 -0.01672,0.899762 -0.05408,1.187345 -0.258873,1.992774 -0.394206,1.550374 -1.20632,2.97401 -2.343853,4.108776 -1.291788,1.288647 -2.956192,2.152554 -4.806094,2.494599 -0.29841,0.05517 -0.476853,0.06444 -1.42398,0.07396 -1.044716,0.0105 -1.097433,0.0083 -1.498146,-0.06229 z m 2.595384,-1.895832 c 1.220651,-0.213815 2.314003,-0.707744 3.28006,-1.481791 0.282728,-0.226534 0.804278,-0.750141 1.038024,-1.042119 0.61219,-0.764701 1.076485,-1.717744 1.335918,-2.742195 0.143398,-0.566249 0.169515,-0.889618 0.152516,-1.888352 -0.01586,-0.931713 -0.03532,-1.081228 -0.227869,-1.750387 C 18.43717,8.9004181 17.882007,7.9423271 17.058356,7.0942389 16.028601,6.0339323 14.862399,5.4020337 13.349815,5.0847913 13.046392,5.0211527 12.886485,5.0076438 12.266996,4.9933144 11.162311,4.967762 10.617084,5.039683 9.7579701,5.324281 8.7139802,5.6701225 7.8901101,6.1685079 7.1088623,6.9268112 6.503145,7.5147391 6.1046367,8.0500687 5.7394585,8.7663782 5.3742466,9.4827536 5.1698374,10.110778 5.0538988,10.872682 c -0.074664,0.490665 -0.089321,1.555721 -0.02817,2.046972 0.1886078,1.515163 0.8567438,2.900799 1.9291409,4.000812 0.711082,0.729393 1.5248016,1.274326 2.4345001,1.63034 0.3635872,0.142291 1.1469562,0.349616 1.5871442,0.42005 0.375778,0.06013 1.813239,0.04278 2.209723,-0.02667 z"
     id="path534" />
  <path
     style="fill:#ffff00;stroke-width:0.0296663"
     d="M 9.5080346,12.00998 V 7.021196 l 2.0543884,0.020178 c 1.129913,0.011098 2.151845,0.033025 2.27096,0.048726 0.163793,0.021591 0.281921,0.0623 0.484721,0.1670413 0.487311,0.2516865 0.708612,0.4861485 0.990044,1.0489227 l 0.140694,0.2813429 -0.02139,1.3651343 c -0.01177,0.7508238 -0.03365,1.4312108 -0.04863,1.5119718 -0.03728,0.200941 -0.204923,0.529837 -0.38098,0.747423 -0.270063,0.333766 -0.750108,0.632341 -1.115383,0.693737 -0.09715,0.01633 -0.670586,0.03951 -1.274295,0.0515 l -1.097651,0.02181 -0.0076,2.009889 -0.0076,2.009889 H 10.501647 9.5080346 Z M 13.512979,9.9975278 V 8.9888752 H 12.504326 11.495674 V 9.9975278 11.00618 h 1.008652 1.008653 z"
     id="path573" />
  <path
     style="fill:#ffff00;stroke-width:0.0296663"
     d="m 19.980552,19.92122 -0.517273,-0.517907 0.07594,-0.08237 c 0.680688,-0.738344 1.28558,-1.567724 1.726089,-2.366675 0.560559,-1.016686 0.956512,-2.203579 1.152977,-3.456119 0.06097,-0.388706 0.06747,-0.533082 0.06747,-1.498146 0,-0.965064 -0.0065,-1.10944 -0.06747,-1.498146 C 22.083082,8.3647933 21.247539,6.621832 19.730513,4.8951032 l -0.264542,-0.3011109 0.515927,-0.5165597 0.515927,-0.5165597 0.115038,0.1107873 c 0.06327,0.060933 0.231699,0.2442854 0.374284,0.4074498 1.724727,1.9736586 2.711776,4.3072444 2.941334,6.953914 0.05055,0.582765 0.01878,1.941972 -0.05866,2.509621 -0.331933,2.433315 -1.292386,4.558424 -2.882678,6.378245 -0.142585,0.163164 -0.311013,0.346517 -0.374284,0.40745 l -0.115038,0.110787 z"
     id="path612" />
</svg>
