<?xml version="1.0" encoding="UTF-8" standalone="no"?>
<svg
   version="1.1"
   width="24"
   height="24"
   viewBox="0 0 24 24"
   id="svg2952"
   sodipodi:docname="car_info_yellow.svg"
   inkscape:version="1.1 (c68e22c387, 2021-05-23)"
   xmlns:inkscape="http://www.inkscape.org/namespaces/inkscape"
   xmlns:sodipodi="http://sodipodi.sourceforge.net/DTD/sodipodi-0.dtd"
   xmlns="http://www.w3.org/2000/svg"
   xmlns:svg="http://www.w3.org/2000/svg">
  <defs
     id="defs2956" />
  <sodipodi:namedview
     id="namedview2954"
     pagecolor="#ffffff"
     bordercolor="#666666"
     borderopacity="1.0"
     inkscape:pageshadow="2"
     inkscape:pageopacity="0.0"
     inkscape:pagecheckerboard="0"
     showgrid="false"
     inkscape:zoom="34.666667"
     inkscape:cx="11.985577"
     inkscape:cy="12.014423"
     inkscape:window-width="1920"
     inkscape:window-height="1017"
     inkscape:window-x="-8"
     inkscape:window-y="-8"
     inkscape:window-maximized="1"
     inkscape:current-layer="svg2952" />
  <path
     d="M19 15H17V13H19M20 20V22H16V20H17V18H16V16H19V20M18.92 5A1.5 1.5 0 0 0 17.5 4H6.5A1.5 1.5 0 0 0 5.08 5L3 11V19A1 1 0 0 0 4 20H5A1 1 0 0 0 6 19V18H11A7 7 0 0 1 18 11A6.84 6.84 0 0 1 21 11.68V11M6.5 15A1.5 1.5 0 1 1 8 13.5A1.5 1.5 0 0 1 6.5 15M5 10L6.5 5.5H17.5L19 10Z"
     id="path2950" />
  <path
     style="fill:#ffff00;stroke-width:0.0288462"
     d="M 3.7623851,19.952099 C 3.4649018,19.869278 3.2398166,19.675755 3.1038783,19.385932 l -0.075032,-0.15997 -0.0076,-4.107471 -0.0076,-4.10747 1.0558039,-3.0463761 C 4.6501414,6.2891383 5.1569822,4.859637 5.1957621,4.7879755 5.3662009,4.4730213 5.6769058,4.2153327 6.0355895,4.0914499 L 6.2307692,4.0240385 H 12 17.769231 l 0.195179,0.067411 c 0.358649,0.1238705 0.669247,0.3814535 0.839883,0.6965256 0.03881,0.071662 0.545477,1.5004385 1.125924,3.1750601 l 1.05536,3.0447668 v 0.320864 0.320865 l -0.257409,-0.111644 c -1.51048,-0.655131 -3.345655,-0.725096 -4.951416,-0.188769 -2.690769,0.89872 -4.555275,3.301075 -4.770066,6.146074 -0.01677,0.222116 -0.03054,0.426563 -0.03061,0.454327 C 10.975964,17.997206 10.837965,18 8.4828213,18 H 5.9896812 l -0.00926,0.612981 c -0.00895,0.592394 -0.011817,0.618425 -0.085278,0.775096 -0.1068769,0.227937 -0.2594897,0.384416 -0.4816507,0.493855 l -0.1908798,0.09403 -0.664189,0.0064 c -0.4672016,0.0045 -0.7032923,-0.0045 -0.7960347,-0.03028 z m 3.1482447,-4.99812 C 7.5742376,14.75906 8.0048077,14.186904 8.0048077,13.5 c 0,-0.686904 -0.4305701,-1.25906 -1.0941779,-1.453979 -0.2465449,-0.07242 -0.6631154,-0.06089 -0.906769,0.02509 -1.0888982,0.384244 -1.3691692,1.803363 -0.5062311,2.56324 0.1647912,0.145111 0.433844,0.289592 0.6211712,0.33357 0.1878395,0.0441 0.620149,0.03649 0.7918289,-0.01394 z M 18.264515,7.7451923 17.509844,5.4807692 H 12 6.4901556 L 5.7354849,7.7451923 4.9808142,10.009615 H 12 19.019186 Z"
     id="path3031" />
  <path
     style="fill:#ffff00;stroke-width:0.0288462"
     d="m 16.024038,21 v -0.980769 h 0.490385 0.490385 V 19.009615 18 h -0.490385 -0.490385 v -0.995192 -0.995193 h 1.485577 1.485577 v 2.004808 2.004808 h 0.490385 0.490385 V 21 21.980769 H 18 16.024038 Z"
     id="path3070" />
  <path
     style="fill:#ffff00;stroke-width:0.0288462"
     d="M 17.004808,14.004808 V 13.009615 H 18 18.995192 V 14.004808 15 H 18 17.004808 Z"
     id="path3109" />
</svg>
