<?xml version="1.0" encoding="UTF-8" standalone="no"?>
<svg
   version="1.1"
   width="24"
   height="24"
   viewBox="0 0 24 24"
   id="svg26360"
   sodipodi:docname="car_tire_alert_white.svg"
   inkscape:version="1.1 (c68e22c387, 2021-05-23)"
   xmlns:inkscape="http://www.inkscape.org/namespaces/inkscape"
   xmlns:sodipodi="http://sodipodi.sourceforge.net/DTD/sodipodi-0.dtd"
   xmlns="http://www.w3.org/2000/svg"
   xmlns:svg="http://www.w3.org/2000/svg">
  <defs
     id="defs26364" />
  <sodipodi:namedview
     id="namedview26362"
     pagecolor="#ffffff"
     bordercolor="#666666"
     borderopacity="1.0"
     inkscape:pageshadow="2"
     inkscape:pageopacity="0.0"
     inkscape:pagecheckerboard="0"
     showgrid="false"
     inkscape:zoom="35.083333"
     inkscape:cx="11.985748"
     inkscape:cy="11.985748"
     inkscape:window-width="1920"
     inkscape:window-height="1027"
     inkscape:window-x="-8"
     inkscape:window-y="-8"
     inkscape:window-maximized="1"
     inkscape:current-layer="svg26360" />
  <path
     d="M11,13H13V15H11V13M11,5H13V11H11V5M17,4.76C18.86,6.19 20,8.61 20,11C20,14 18.33,16.64 15.86,18H8.14C5.67,16.64 4,14 4,11C4,8.61 5.09,6.17 7,4.76V2H5V3.86C3.15,5.68 2,8.2 2,11C2,13.8 3.15,16.32 5,18.14V22H7V20H9V22H11V20H13V22H15V20H17V22H19V18.14C20.85,16.32 22,13.8 22,11C22,8.2 20.85,5.68 19,3.86V2H17V4.76Z"
     id="path26358" />
  <path
     style="fill:#ffffff;stroke-width:0.0285036"
     d="M 5.0023753,20.048298 V 18.120349 L 4.7956096,17.903405 C 3.5997935,16.648722 2.7348496,15.092882 2.324974,13.459284 2.1030353,12.574726 2.0263747,11.939289 2.0268473,10.988124 2.0272378,10.202337 2.0664464,9.7897955 2.2115298,9.0449478 2.5605481,7.2531127 3.4672754,5.4970592 4.7281911,4.1709445 L 5.0023753,3.8825828 V 2.9531679 2.023753 H 6 6.9976247 L 6.9965074,3.3847981 6.99539,4.7458432 6.7898574,4.9026128 C 6.4771405,5.1411372 5.9004998,5.7332964 5.6240813,6.0997625 4.1391483,8.0684346 3.6255788,10.645637 4.2463165,13.013684 c 0.2792662,1.06537 0.7255423,1.977559 1.4075582,2.877052 0.1188661,0.15677 0.4281509,0.497499 0.6872996,0.757177 0.5037212,0.504749 0.9655328,0.873642 1.4874772,1.188192 l 0.2956073,0.178147 h 3.8757432 3.875743 l 0.295607,-0.178147 c 0.953285,-0.574496 1.944007,-1.537285 2.551799,-2.479851 0.477758,-0.740909 0.806692,-1.488627 1.030536,-2.34257 C 20.383771,10.609982 19.839235,8.0178924 18.28337,6.0147118 18.025474,5.6826724 17.505875,5.1465215 17.219414,4.9168646 L 17.006091,4.7458432 17.004232,3.3847981 17.002375,2.023753 H 18 18.997625 v 0.9294149 0.9294149 l 0.267445,0.2812743 c 1.468728,1.544672 2.397762,3.5458219 2.658704,5.7268792 0.102196,0.8541867 0.05752,2.0692467 -0.107953,2.9358667 -0.361854,1.895143 -1.250477,3.639347 -2.557958,5.020807 l -0.260238,0.274963 v 1.926937 1.926937 H 18 17.002375 v -0.997625 -0.997624 h -1.011876 -1.011877 v 0.997624 0.997625 H 13.995249 13.011876 V 20.978622 19.980998 H 12 10.988124 v 0.997624 0.997625 H 10.004751 9.0213777 V 20.978622 19.980998 H 8.0095012 6.9976247 v 0.997624 0.997625 H 6 5.0023753 Z"
     id="path26440" />
  <path
     style="fill:#ffffff;stroke-width:0.0285036"
     d="M 11.016627,14.009501 V 13.026128 H 12 12.983373 v 0.983373 0.983373 H 12 11.016627 Z"
     id="path26479" />
  <path
     style="fill:#ffffff;stroke-width:0.0285036"
     d="M 11.016627,7.9952494 V 5.0166271 H 12 12.983373 V 7.9952494 10.973872 H 12 11.016627 Z"
     id="path26518" />
</svg>
