<?xml version="1.0" encoding="UTF-8" standalone="no"?>
<svg
   version="1.1"
   width="24"
   height="24"
   viewBox="0 0 24 24"
   id="svg4"
   sodipodi:docname="engine_off_red.svg"
   inkscape:version="1.1 (c68e22c387, 2021-05-23)"
   xmlns:inkscape="http://www.inkscape.org/namespaces/inkscape"
   xmlns:sodipodi="http://sodipodi.sourceforge.net/DTD/sodipodi-0.dtd"
   xmlns="http://www.w3.org/2000/svg"
   xmlns:svg="http://www.w3.org/2000/svg">
  <defs
     id="defs8" />
  <sodipodi:namedview
     id="namedview6"
     pagecolor="#ffffff"
     bordercolor="#666666"
     borderopacity="1.0"
     inkscape:pageshadow="2"
     inkscape:pageopacity="0.0"
     inkscape:pagecheckerboard="0"
     showgrid="false"
     inkscape:zoom="34.666667"
     inkscape:cx="11.985577"
     inkscape:cy="12.014423"
     inkscape:window-width="1920"
     inkscape:window-height="1017"
     inkscape:window-x="-8"
     inkscape:window-y="-8"
     inkscape:window-maximized="1"
     inkscape:current-layer="svg4" />
  <path
     d="M3.78,2.5L21.5,20.22L20.23,21.5L18,19.27V20H10L8,18H5V15H3V18H1V10H3V13H5V10L6.87,8.14L2.5,3.77L3.78,2.5M20,9V12H18V8H12V6H15V4H7.82L22.82,19H23V9H20Z"
     id="path2" />
  <path
     style="fill:#ff0000;stroke-width:0.0288462"
     d="m 19.125,20.365385 c -0.602728,-0.602885 -1.105669,-1.096154 -1.117646,-1.096154 -0.01198,0 -0.02178,0.162259 -0.02178,0.360577 v 0.360577 H 13.997439 10.009302 L 9.0144231,18.995192 8.0195443,18 H 6.5121762 5.0048077 V 16.5 15 H 3.9951923 2.9855769 V 16.5 18 H 2.0048077 1.0240385 v -3.995192 -3.995193 h 0.9807692 0.9807692 v 1.5 1.5 H 3.9951923 5.0048077 V 11.516988 10.024362 L 5.9494018,9.079442 6.8939957,8.1345225 4.7088658,5.9492507 2.5237358,3.763979 2.9349448,3.3601662 C 3.1611098,3.1380692 3.4468623,2.8593007 3.5699503,2.7406807 L 3.7937468,2.525008 12.620387,11.351446 c 4.854653,4.854541 8.826661,8.841622 8.826685,8.86018 4.5e-5,0.03463 -1.17409,1.249912 -1.207594,1.249912 -0.01023,0 -0.51175,-0.493269 -1.114478,-1.096153 z"
     id="path65" />
  <path
     style="fill:#ff0000;stroke-width:0.0288462"
     d="M 15.331731,11.495192 7.8461955,4.0096154 h 3.5696905 3.569691 V 5.0048077 6 h -1.5 -1.5 v 1.0096154 1.0096154 h 3 3 V 10.009615 12 h 1.009615 1.009616 V 10.5 9 h 1.485577 1.485577 v 4.990385 4.990384 h -0.07935 c -0.06713,0 -1.231787,-1.152445 -7.564883,-7.485577 z"
     id="path104" />
</svg>
