<?xml version="1.0" encoding="UTF-8" standalone="no"?>
<svg
   version="1.1"
   width="24"
   height="24"
   viewBox="0 0 24 24"
   id="svg4"
   sodipodi:docname="engine_outline_yellow.svg"
   inkscape:version="1.1 (c68e22c387, 2021-05-23)"
   xmlns:inkscape="http://www.inkscape.org/namespaces/inkscape"
   xmlns:sodipodi="http://sodipodi.sourceforge.net/DTD/sodipodi-0.dtd"
   xmlns="http://www.w3.org/2000/svg"
   xmlns:svg="http://www.w3.org/2000/svg">
  <defs
     id="defs8" />
  <sodipodi:namedview
     id="namedview6"
     pagecolor="#ffffff"
     bordercolor="#666666"
     borderopacity="1.0"
     inkscape:pageshadow="2"
     inkscape:pageopacity="0.0"
     inkscape:pagecheckerboard="0"
     showgrid="false"
     inkscape:zoom="34.666667"
     inkscape:cx="11.985577"
     inkscape:cy="12.014423"
     inkscape:window-width="1920"
     inkscape:window-height="1017"
     inkscape:window-x="-8"
     inkscape:window-y="-8"
     inkscape:window-maximized="1"
     inkscape:current-layer="svg4" />
  <path
     d="M8,10H16V18H11L9,16H7V11M7,4V6H10V8H7L5,10V13H3V10H1V18H3V15H5V18H8L10,20H18V16H20V19H23V9H20V12H18V8H12V6H15V4H7Z"
     id="path2" />
  <path
     style="fill:#ffff00;stroke-width:0.0288462"
     d="M 9.0144231,18.995192 8.0195443,18 H 6.5121762 5.0048077 V 16.5 15 H 3.9951923 2.9855769 V 16.5 18 H 2.0048077 1.0240385 v -3.995192 -3.995193 h 0.9807692 0.9807692 v 1.5 1.5 H 3.9951923 5.0048077 V 11.516672 10.02373 L 6.0073638,9.02148 7.00992,8.0192308 H 8.5169792 10.024038 V 7.0096154 6 h -1.4999995 -1.5 V 5.0048077 4.0096154 h 3.9807695 3.980769 V 5.0048077 6 h -1.5 -1.5 v 1.0096154 1.0096154 h 3 3 V 10.009615 12 h 1.009615 1.009616 V 10.5 9 h 1.485577 1.485577 v 4.990385 4.990384 h -1.485577 -1.485577 v -1.5 -1.5 h -1.009616 -1.009615 v 2.004808 2.004808 H 13.997439 10.009302 Z M 16.024038,13.990385 V 9.9807692 H 12.007512 7.9909861 L 7.493089,10.478056 6.9951923,10.975343 v 2.517136 2.517136 H 7.98333 8.9714674 L 9.9663462,17.004808 10.961225,18 h 2.531407 2.531406 z"
     id="path65" />
</svg>
