<?xml version="1.0" encoding="UTF-8" standalone="no"?>
<svg
   version="1.1"
   width="24"
   height="24"
   viewBox="0 0 24 24"
   id="svg5087"
   sodipodi:docname="engine_off_outline_yellow.svg"
   inkscape:version="1.1 (c68e22c387, 2021-05-23)"
   xmlns:inkscape="http://www.inkscape.org/namespaces/inkscape"
   xmlns:sodipodi="http://sodipodi.sourceforge.net/DTD/sodipodi-0.dtd"
   xmlns="http://www.w3.org/2000/svg"
   xmlns:svg="http://www.w3.org/2000/svg">
  <defs
     id="defs5091" />
  <sodipodi:namedview
     id="namedview5089"
     pagecolor="#ffffff"
     bordercolor="#666666"
     borderopacity="1.0"
     inkscape:pageshadow="2"
     inkscape:pageopacity="0.0"
     inkscape:pagecheckerboard="0"
     showgrid="false"
     inkscape:zoom="34.666667"
     inkscape:cx="11.985577"
     inkscape:cy="12.014423"
     inkscape:window-width="1920"
     inkscape:window-height="1017"
     inkscape:window-x="-8"
     inkscape:window-y="-8"
     inkscape:window-maximized="1"
     inkscape:current-layer="svg5087" />
  <path
     d="M2.5,3.77L6.87,8.14L5,10V13H3V10H1V18H3V15H5V18H8L10,20H18V19.27L21.23,22.5L22.5,21.22L3.78,2.5L2.5,3.77M16,18H11L9,16H7V11L8,10H8.73L16,17.27V18M23,9V19H22.82L16,12.18V10H13.82L7.82,4H15V6H12V8H18V12H20V9H23Z"
     id="path5085" />
  <path
     style="fill:#ff0000;stroke-width:0.0288462"
     d="m 19.629734,20.870118 c -0.880381,-0.880488 -1.610472,-1.600887 -1.622425,-1.600887 -0.01195,0 -0.02173,0.162259 -0.02173,0.360577 v 0.360577 h -3.98814 -3.988137 L 9.0144231,18.995192 8.0195443,18 H 6.5121762 5.0048077 V 16.5 15 H 3.9951923 2.9855769 V 16.5 18 H 2.0048077 1.0240385 v -3.995192 -3.995193 h 0.9807692 0.9807692 v 1.5 1.5 H 3.9951923 5.0048077 V 11.516988 10.024362 L 5.9494018,9.079442 6.8939957,8.1345225 4.7088658,5.9492507 2.5237358,3.763979 2.9349448,3.3601662 C 3.1611098,3.1380692 3.4468536,2.8593093 3.5699311,2.7406998 L 3.7937084,2.5250461 13.125136,11.856273 c 5.132285,5.132175 9.331465,9.344321 9.331511,9.360325 5.8e-5,0.016 -0.275835,0.304792 -0.613069,0.641752 l -0.613152,0.612655 z M 16.024038,17.632254 V 17.264508 L 12.382254,13.622639 8.74047,9.9807692 H 8.3657282 7.9909861 L 7.493089,10.478056 6.9951923,10.975343 v 2.517136 2.517136 H 7.98333 8.9714674 L 9.9663462,17.004808 10.961225,18 h 2.531407 2.531406 z"
     id="path5148" />
  <path
     style="fill:#ffff00;stroke-width:0.0288462"
     d="m 19.420627,15.584089 -3.396589,-3.39668 V 11.084089 9.9807692 H 14.920621 13.817203 L 10.831731,6.9951923 7.8462584,4.0096154 h 3.5696596 3.569659 V 5.0048077 6 h -1.5 -1.5 v 1.0096154 1.0096154 h 3 3 V 10.009615 12 h 1.009615 1.009616 V 10.5 9 h 1.485577 1.485577 v 4.990385 4.990384 h -0.07937 c -0.06692,0 -0.612265,-0.532906 -3.475962,-3.39668 z"
     id="path5187" />
  <path
     style="fill:#ffff00;stroke-width:0.0288462"
     d="m 19.638487,20.854354 c -0.875756,-0.871818 -1.605924,-1.585123 -1.622597,-1.585123 -0.01957,0 -0.03031,0.127786 -0.03031,0.360577 v 0.360577 H 14.011862 10.038148 L 9.0432692,18.995192 8.0483905,18 H 6.5265992 5.0048077 V 16.5 15 H 3.9951923 2.9855769 V 16.5 18 H 2.0048077 1.0240385 v -3.995192 -3.995193 h 0.9807692 0.9807692 v 1.5 1.5 H 3.9951923 5.0048077 V 11.531409 10.053203 L 5.9638261,9.0938639 6.9228444,8.1345251 4.7357267,5.9472658 2.5486095,3.7600062 3.1597845,3.163657 c 0.3361463,-0.3279921 0.6198119,-0.5963493 0.630368,-0.5963493 0.010556,0 4.2095307,4.1914627 9.3310545,9.3143623 8.096473,8.098647 9.307997,9.321335 9.282261,9.367788 -0.01628,0.02938 -0.286798,0.30916 -0.601149,0.621723 l -0.57155,0.568296 z M 16.024038,17.617831 V 17.235662 L 12.396678,13.608216 8.7693167,9.9807692 H 8.3657368 7.9621569 L 7.4786746,10.463624 6.9951923,10.946479 v 2.531568 2.531568 H 7.9689069 8.9426213 L 9.9375,17.004808 10.932379,18 h 2.545829 2.54583 z"
     id="path5269" />
</svg>
