<?xml version="1.0" encoding="UTF-8" standalone="no"?>
<svg
   version="1.1"
   width="24"
   height="24"
   viewBox="0 0 24 24"
   id="svg26920"
   sodipodi:docname="hazard_lights_white.svg"
   inkscape:version="1.1 (c68e22c387, 2021-05-23)"
   xmlns:inkscape="http://www.inkscape.org/namespaces/inkscape"
   xmlns:sodipodi="http://sodipodi.sourceforge.net/DTD/sodipodi-0.dtd"
   xmlns="http://www.w3.org/2000/svg"
   xmlns:svg="http://www.w3.org/2000/svg">
  <defs
     id="defs26924" />
  <sodipodi:namedview
     id="namedview26922"
     pagecolor="#ffffff"
     bordercolor="#666666"
     borderopacity="1.0"
     inkscape:pageshadow="2"
     inkscape:pageopacity="0.0"
     inkscape:pagecheckerboard="0"
     showgrid="false"
     inkscape:zoom="35.083333"
     inkscape:cx="11.985748"
     inkscape:cy="11.985748"
     inkscape:window-width="1920"
     inkscape:window-height="1027"
     inkscape:window-x="-8"
     inkscape:window-y="-8"
     inkscape:window-maximized="1"
     inkscape:current-layer="svg26920" />
  <path
     d="M12,12L14.33,16H9.68L12,12M12,8L6.21,18H17.8L12,8M12,2L1,21H23L12,2M12,6L19.53,19H4.47L12,6Z"
     id="path26918" />
  <path
     style="fill:#ffffff;stroke-width:0.0285036"
     d="m 1.0725217,20.914489 c 0.018781,-0.03527 2.4733059,-4.277672 5.4544998,-9.427553 2.9811939,-5.1498814 5.4321935,-9.3842456 5.4466655,-9.4096984 0.02024,-0.035593 1.270141,2.1022546 5.413486,9.2592844 2.962946,5.118059 5.43003,9.381283 5.48241,9.473831 l 0.09524,0.168269 H 12.001596 1.0383743 Z M 19.531138,18.976247 C 19.481408,18.851057 12.019735,6.0086739 11.998234,6.0112669 11.976169,6.0139283 4.513719,18.863741 4.4689018,18.976247 4.4575687,19.004697 5.9751993,19.011876 12,19.011876 c 6.024779,0 7.542439,-0.0072 7.531138,-0.03563 z"
     id="path27000" />
  <path
     style="fill:#ffffff;stroke-width:0.0285036"
     d="m 6.2565321,17.970449 c 0,-0.0136 5.5778779,-9.6601448 5.6977589,-9.8538677 l 0.04839,-0.078193 2.863268,4.9350387 c 1.574797,2.714271 2.873525,4.952427 2.886062,4.97368 0.01915,0.03247 -0.897399,0.03864 -5.736342,0.03864 -3.1675247,0 -5.7591359,-0.0069 -5.7591359,-0.0153 z M 14.261507,15.850635 C 13.649267,14.768259 12.021791,12.00479 12,12.010575 c -0.0296,0.0079 -2.3230404,3.941193 -2.3230404,3.984107 0,0.01338 1.0529514,0.02432 2.3398914,0.02432 h 2.339892 z"
     id="path27039" />
</svg>
