<?xml version="1.0" encoding="UTF-8" standalone="no"?>
<svg
   version="1.1"
   width="24"
   height="24"
   viewBox="0 0 24 24"
   id="svg5371"
   sodipodi:docname="oil_green.svg"
   inkscape:version="1.1 (c68e22c387, 2021-05-23)"
   xmlns:inkscape="http://www.inkscape.org/namespaces/inkscape"
   xmlns:sodipodi="http://sodipodi.sourceforge.net/DTD/sodipodi-0.dtd"
   xmlns="http://www.w3.org/2000/svg"
   xmlns:svg="http://www.w3.org/2000/svg">
  <defs
     id="defs5375" />
  <sodipodi:namedview
     id="namedview5373"
     pagecolor="#ffffff"
     bordercolor="#666666"
     borderopacity="1.0"
     inkscape:pageshadow="2"
     inkscape:pageopacity="0.0"
     inkscape:pagecheckerboard="0"
     showgrid="false"
     inkscape:zoom="34.666667"
     inkscape:cx="11.985577"
     inkscape:cy="12.014423"
     inkscape:window-width="1920"
     inkscape:window-height="1017"
     inkscape:window-x="-8"
     inkscape:window-y="-8"
     inkscape:window-maximized="1"
     inkscape:current-layer="svg5371" />
  <path
     d="M22,12.5C22,12.5 24,14.67 24,16C24,17.1 23.1,18 22,18C20.9,18 20,17.1 20,16C20,14.67 22,12.5 22,12.5M6,6H10C10.55,6 11,6.45 11,7C11,7.55 10.55,8 10,8H9V10H11C11.74,10 12.39,10.4 12.73,11L19.24,7.24L22.5,9.13C23,9.4 23.14,10 22.87,10.5C22.59,10.97 22,11.14 21.5,10.86L19.4,9.65L15.75,15.97C15.41,16.58 14.75,17 14,17H5C3.9,17 3,16.1 3,15V12C3,10.9 3.9,10 5,10H7V8H6C5.45,8 5,7.55 5,7C5,6.45 5.45,6 6,6M5,12V15H14L16.06,11.43L12.6,13.43L11.69,12H5M0.38,9.21L2.09,7.5C2.5,7.11 3.11,7.11 3.5,7.5C3.89,7.89 3.89,8.5 3.5,8.91L1.79,10.62C1.4,11 0.77,11 0.38,10.62C0,10.23 0,9.6 0.38,9.21Z"
     id="path5369" />
  <path
     style="fill:#ffff00;stroke-width:0.0288462"
     d="M 4.6298077,16.947505 C 4.2281834,16.86601 3.8911988,16.68303 3.595771,16.386029 3.368674,16.157723 3.2153387,15.908196 3.107435,15.591346 L 3.0288462,15.360577 V 13.5 11.639423 l 0.078589,-0.230769 c 0.1981536,-0.581861 0.6250498,-1.037368 1.1762188,-1.25505 0.32229,-0.127288 0.5149681,-0.143989 1.6611915,-0.143989 h 1.079193 V 9 7.9903846 H 6.4773813 c -0.6403732,0 -0.7758738,-0.023346 -1.0086291,-0.1737832 C 5.1705773,7.6238816 4.9722697,7.2189461 5.0186365,6.8974846 5.0637462,6.5847388 5.2863824,6.2670844 5.55797,6.1279707 5.7987692,6.0046276 5.9683145,5.9965967 8.136795,6.0058196 l 2.045897,0.0087 0.16447,0.066405 c 0.365408,0.1475344 0.600277,0.4747499 0.622142,0.8667559 0.01755,0.3147229 -0.05961,0.5090879 -0.293703,0.7398176 -0.266523,0.2626919 -0.33829,0.2824367 -1.0770433,0.2963215 l -0.6129808,0.011521 v 1.0051211 1.0051213 l 1.1754811,0.01163 c 1.013482,0.01003 1.199333,0.01862 1.348557,0.06234 0.189449,0.0555 0.528401,0.217022 0.646384,0.308023 0.146983,0.11337 0.385712,0.359822 0.47215,0.487425 0.04836,0.07139 0.09071,0.133608 0.09411,0.138253 0.0034,0.0046 0.374489,-0.204404 0.824652,-0.464553 4.142806,-2.3941291 5.679787,-3.2794691 5.693272,-3.2794691 0.0087,0 0.771626,0.4381009 1.695347,0.9735577 1.811184,1.0498955 1.874175,1.0938504 1.982511,1.3834038 0.07896,0.2110515 0.07735,0.5024216 -0.004,0.7198246 -0.11811,0.315679 -0.458248,0.582465 -0.803077,0.629891 -0.274873,0.0378 -0.421381,-0.02694 -1.608945,-0.711051 -0.608201,-0.3503611 -1.109888,-0.6322495 -1.11486,-0.6264191 -0.005,0.00583 -0.836864,1.4449751 -1.84865,3.1981001 -1.011786,1.753125 -1.875486,3.239865 -1.919333,3.303866 -0.149339,0.21798 -0.471084,0.491984 -0.725371,0.617741 -0.477864,0.236327 0.01549,0.215736 -5.3168849,0.221902 -3.8433859,0.0044 -4.7957093,-0.0018 -4.9471154,-0.03254 z M 15.013342,13.276442 c 0.5461,-0.947956 1.013102,-1.755385 1.037782,-1.794285 0.04265,-0.06723 0.04202,-0.06964 -0.01274,-0.04871 -0.04534,0.01733 -2.984154,1.706464 -3.346075,1.923222 l -0.08654,0.05183 -0.44694,-0.704248 L 11.711889,12 H 8.3439251 4.9759615 v 1.5 1.5 h 4.5222358 4.5222357 z"
     id="path5432" />
  <path
     style="fill:#ffff00;stroke-width:0.0288462"
     d="M 0.92741789,10.872866 C 0.50144103,10.803588 0.17249382,10.457796 0.11559096,10.019466 0.08964999,9.8196391 0.16148641,9.5450778 0.28798312,9.3605769 0.3423709,9.28125 0.79314724,8.8115086 1.2897083,8.3167071 2.1071447,7.5021673 2.2111812,7.4083478 2.389546,7.3248809 2.7598657,7.1515873 3.1392012,7.2086714 3.4398121,7.4829296 3.6572137,7.681273 3.7422966,7.8595455 3.7577207,8.1490385 3.7677516,8.3373114 3.7581995,8.4116799 3.7058507,8.5528846 3.6458215,8.7148059 3.5784689,8.789476 2.6608897,9.7113733 2.0302717,10.344959 1.6324953,10.722585 1.5467776,10.769047 1.4290562,10.832856 1.3631788,10.851275 1.125,10.88697 1.093269,10.89177 1.0043573,10.88537 0.92741789,10.87287 Z"
     id="path5471" />
  <path
     style="fill:#ff0000;stroke-width:0.0288462"
     d="m 21.773599,17.965645 c -0.882756,-0.09119 -1.615484,-0.81625 -1.739387,-1.721186 -0.08023,-0.58595 0.17811,-1.279376 0.850508,-2.282921 0.267802,-0.39969 0.724364,-0.994232 1.0079,-1.3125 l 0.102793,-0.115384 0.119799,0.129808 c 0.230431,0.249683 0.719226,0.880318 0.971544,1.25347 0.857944,1.268812 1.064909,2.024786 0.762453,2.784991 -0.114132,0.286865 -0.278832,0.526043 -0.512521,0.744282 -0.432113,0.403546 -0.966353,0.581083 -1.563089,0.51944 z"
     id="path5510" />
  <path
     style="fill:#ff0000;stroke-width:0.0288462"
     d="M 4.657229,16.930935 C 4.2986431,16.87814 3.9321338,16.681856 3.6271034,16.379249 3.4034761,16.157399 3.2752292,15.958928 3.1398921,15.625254 L 3.0442397,15.389423 V 13.5 11.610577 l 0.095652,-0.235831 c 0.1354705,-0.334003 0.2642982,-0.535593 0.4828529,-0.755571 0.2935865,-0.295499 0.6627591,-0.490957 1.0361572,-0.548593 0.1029884,-0.0159 0.6772757,-0.038 1.276194,-0.04911 l 1.0889427,-0.0202 V 8.9958274 7.9903846 L 6.7283654,7.9885373 C 6.1619296,7.9849983 5.7807854,7.946248 5.6174866,7.8755962 5.4142825,7.7876792 5.1750068,7.5289748 5.0909318,7.306286 4.9701111,6.9862696 5.0564916,6.6232397 5.3219942,6.3352034 5.4622725,6.1830194 5.645081,6.0907347 5.8770764,6.0549889 5.9844635,6.0384427 6.9056074,6.0304254 8.1490385,6.0352144 l 2.0913465,0.00805 0.14423,0.071002 c 0.212865,0.1047886 0.425746,0.3300759 0.500372,0.529532 0.08856,0.2366912 0.08494,0.5319442 -0.009,0.7336876 -0.0887,0.1905192 -0.320866,0.4250506 -0.498587,0.5036652 -0.126339,0.055886 -0.53118,0.088739 -1.3269372,0.1076837 l -0.064904,0.00155 V 9 10.009615 l 0.079327,0.0022 c 0.04363,0.0012 0.5920674,0.01188 1.2187502,0.02369 l 1.139423,0.02146 0.254446,0.104426 c 0.139946,0.05743 0.316268,0.144097 0.391827,0.192583 0.137189,0.08803 0.443053,0.390899 0.580927,0.57523 l 0.07292,0.09749 0.121638,-0.06206 c 0.0669,-0.03413 1.455383,-0.831576 3.085516,-1.7721005 1.630133,-0.9405244 3.043448,-1.753683 3.140701,-1.8070186 l 0.176823,-0.096974 0.544331,0.3126874 c 1.185452,0.6809762 2.407011,1.3997754 2.643288,1.5553848 0.431187,0.2839745 0.526994,0.4492122 0.506583,0.8736989 -0.01013,0.210767 -0.02618,0.279008 -0.09554,0.4063 -0.09937,0.182383 -0.246001,0.321079 -0.453681,0.429132 -0.125875,0.06549 -0.190223,0.07951 -0.368824,0.08034 -0.275961,0.0013 -0.353965,-0.03524 -1.631189,-0.763778 -0.528121,-0.3012447 -0.973844,-0.5477169 -0.990495,-0.5477169 -0.03544,0 0.0993,-0.2290442 -1.992416,3.3868769 -0.907783,1.569272 -1.70235,2.935299 -1.765706,3.035616 -0.199919,0.31655 -0.654103,0.67855 -1.012052,0.80664 -0.06829,0.02444 -0.307768,0.05545 -0.540834,0.07004 -0.516884,0.03235 -9.2128607,0.02972 -9.434117,-0.0029 z m 9.706137,-2.487301 c 0.173409,-0.304816 0.624908,-1.089694 1.003332,-1.744174 0.378423,-0.654479 0.695504,-1.209407 0.704624,-1.233173 0.0092,-0.02398 7.59e-4,-0.04321 -0.01897,-0.04321 -0.03394,0 -1.36817,0.757185 -2.78107,1.578282 -0.363777,0.211407 -0.668825,0.37248 -0.677884,0.35794 -0.0091,-0.01454 -0.204693,-0.325853 -0.434741,-0.691809 L 11.740385,12.002116 8.3581731,12.001058 4.9759615,12 v 1.5 1.5 l 4.5360577,-0.0011 4.5360578,-0.0011 0.315289,-0.554211 z"
     id="path5593" />
  <path
     style="fill:#00ff00;stroke-width:0.0288462"
     d="M 0.83653846,10.836643 C 0.56208689,10.745997 0.37395436,10.591981 0.24328863,10.350976 0.15239242,10.183323 0.14426239,10.148067 0.1446146,9.9230769 0.14526641,9.5067007 0.16210923,9.4833181 1.2384078,8.404583 1.7471874,7.8946517 2.2170869,7.4443811 2.282629,7.4039817 2.4607035,7.2942186 2.709085,7.2305715 2.8874987,7.2489854 3.1107606,7.2720281 3.2845056,7.3616208 3.4746268,7.5517421 3.6734175,7.750533 3.7357373,7.9135498 3.7352951,8.233601 3.7347903,8.5996144 3.7153638,8.625457 2.6127235,9.7270066 1.7983473,10.540577 1.6105257,10.713942 1.4775215,10.774834 c -0.1937372,0.0887 -0.4769037,0.116001 -0.64098304,0.06181 z"
     id="path5632" />
  <path
     style="fill:#00ff00;stroke-width:0.0288462"
     d="M 4.5865385,16.903273 C 4.0009082,16.78604 3.4528853,16.299982 3.1639903,15.641573 l -0.091875,-0.209388 v -1.929418 -1.929418 l 0.08433,-0.197732 c 0.1370516,-0.321351 0.2332426,-0.471876 0.4419515,-0.691592 0.2384867,-0.251065 0.4949085,-0.423231 0.7773687,-0.521938 0.2345302,-0.08196 0.679147,-0.118615 1.4800035,-0.12202 0.2379808,-0.001 0.5981971,-0.01028 0.8004808,-0.0206 l 0.3677885,-0.01876 V 8.9993227 7.9979332 L 6.9158654,7.9800533 C 6.8563702,7.9702194 6.6625979,7.9620305 6.4852604,7.9618559 6.0734423,7.9614505 5.7449948,7.9161991 5.5873745,7.838151 5.4221867,7.7563557 5.2197171,7.5353376 5.129548,7.3383824 4.9403865,6.9251993 5.1628457,6.3698888 5.6043912,6.153062 L 5.7692308,6.072115 7.9968753,6.064055 10.22452,6.055995 10.371996,6.130726 c 0.291327,0.1476269 0.497567,0.4209785 0.547061,0.7250781 0.04842,0.297509 -0.03839,0.5604979 -0.260176,0.7881975 C 10.410702,7.8987938 10.304607,7.927068 9.4808556,7.9579402 L 9,7.9759615 V 9 10.024038 l 1.038462,0.01961 c 1.519368,0.02868 1.390383,0.01476 1.754005,0.189324 0.270272,0.129748 0.343449,0.181397 0.550616,0.388622 0.131407,0.131443 0.270512,0.281115 0.309125,0.332606 l 0.0702,0.09362 0.475333,-0.268444 c 0.261432,-0.147644 1.611149,-0.9224512 2.99937,-1.7217931 1.388222,-0.7993418 2.642686,-1.5208115 2.7877,-1.6032659 l 0.263661,-0.1499171 1.017593,0.5888277 c 2.195996,1.2707073 2.458197,1.4413237 2.587498,1.6837015 0.06289,0.117885 0.06835,0.157723 0.05952,0.4337369 -0.0092,0.288161 -0.01478,0.31179 -0.106962,0.45545 -0.101314,0.157885 -0.263539,0.305934 -0.435929,0.397837 -0.07593,0.04048 -0.161742,0.05376 -0.346154,0.05355 -0.238422,-2.6e-4 -0.253291,-0.0044 -0.538501,-0.15027 -0.16132,-0.0825 -0.635118,-0.343387 -1.052885,-0.579756 -0.848513,-0.480081 -0.985983,-0.5531067 -1.039676,-0.5522858 -0.02046,3.116e-4 -0.0809,0.074952 -0.134292,0.1658654 -0.0534,0.090913 -0.73993,1.2751524 -1.52563,2.6316424 -2.37787,4.105334 -2.203306,3.828512 -2.599456,4.122191 -0.300143,0.222505 -0.517174,0.311574 -0.846403,0.347361 -0.332976,0.03619 -9.5201218,0.03717 -9.7006565,0.001 z M 14.618083,14.033654 c 0.300704,-0.523558 0.75304,-1.311322 1.005192,-1.750586 0.25215,-0.439265 0.458456,-0.812462 0.458456,-0.829327 0,-0.01687 -0.01638,-0.03066 -0.03641,-0.03066 -0.04492,0 -0.826014,0.435079 -2.066148,1.150873 -0.517394,0.298635 -1.038071,0.595869 -1.157062,0.66052 l -0.216346,0.117548 -0.419517,-0.668797 -0.419518,-0.668798 -3.3953863,-0.0073 -3.3953862,-0.0073 v 1.500208 1.500208 l 4.5476928,-0.0073 4.5476927,-0.0073 z"
     id="path5717" />
  <path
     style="fill:#00ff00;stroke-width:0.0288462"
     d="m 21.721154,17.942264 c -0.246688,-0.0371 -0.396072,-0.08693 -0.620192,-0.206854 -0.482354,-0.258109 -0.803298,-0.647081 -0.985701,-1.194631 -0.08468,-0.25421 -0.09133,-0.708154 -0.01453,-0.992219 0.146486,-0.541815 0.565144,-1.288158 1.191979,-2.124945 0.271838,-0.362887 0.674516,-0.846692 0.704715,-0.846692 0.03397,0 0.353284,0.37691 0.660106,0.779176 0.573571,0.751997 1.033605,1.536163 1.201317,2.047747 0.07071,0.215698 0.08057,0.290301 0.08192,0.620192 0.0014,0.337028 -0.0063,0.396424 -0.07574,0.586575 -0.114515,0.313496 -0.242228,0.510413 -0.500265,0.771346 -0.443325,0.448299 -1.038742,0.651277 -1.643604,0.560305 z"
     id="path5756" />
</svg>
