<?xml version="1.0" encoding="UTF-8" standalone="no"?>
<svg
   version="1.1"
   width="24"
   height="24"
   viewBox="0 0 24 24"
   id="svg27308"
   sodipodi:docname="oil_temperature_white.svg"
   inkscape:version="1.1 (c68e22c387, 2021-05-23)"
   xmlns:inkscape="http://www.inkscape.org/namespaces/inkscape"
   xmlns:sodipodi="http://sodipodi.sourceforge.net/DTD/sodipodi-0.dtd"
   xmlns="http://www.w3.org/2000/svg"
   xmlns:svg="http://www.w3.org/2000/svg">
  <defs
     id="defs27312" />
  <sodipodi:namedview
     id="namedview27310"
     pagecolor="#ffffff"
     bordercolor="#666666"
     borderopacity="1.0"
     inkscape:pageshadow="2"
     inkscape:pageopacity="0.0"
     inkscape:pagecheckerboard="0"
     showgrid="false"
     inkscape:zoom="35.083333"
     inkscape:cx="11.985748"
     inkscape:cy="11.985748"
     inkscape:window-width="1920"
     inkscape:window-height="1027"
     inkscape:window-x="-8"
     inkscape:window-y="-8"
     inkscape:window-maximized="1"
     inkscape:current-layer="svg27308" />
  <path
     d="M10,5H13V3H10V2C10,1.4 9.6,1 9,1V15.3C7.4,15.6 7,16.3 7,17C7,18.1 7.9,19 9,19C11,16.3 10.6,15.6 10,15.3V13H13V11H10V9H13V7H10V5M22,17.5C22,17.5 24,19.7 24,21C24,22.1 23.1,23 22,23C20,19.7 22,17.5 22,17.5M22.9,15.5C22.6,16 22,16.1 21.5,15.9L19.4,14.7L15.8,21C15.5,21.6 14.8,22 14,22H5C3.9,22 3,21.1 3,20V17C3,15.9 3.9,15 5,15V20H14L16.1,16.4L13,18.2V15.8L19.2,12.2L22.5,14.1C23,14.4 23.1,15 22.9,15.5M3.5,13.9L1.8,15.6C1.4,16 .8,16 .4,15.6L2.1,12.5C2.5,12.1 3.1,12.1 3.5,12.5Z"
     id="path27306" />
  <path
     style="fill:#ffffff;stroke-width:0.0285036"
     d="m 0.77508214,15.821711 c -0.18599534,-0.07462 -0.3414667,-0.196419 -0.32545032,-0.254963 0.007005,-0.02561 0.3855427,-0.726368 0.84119378,-1.557247 0.739143,-1.347826 0.8417445,-1.520601 0.9517133,-1.602634 0.1865174,-0.139135 0.3618046,-0.188102 0.6184598,-0.172768 0.2301833,0.01375 0.3766292,0.07026 0.541371,0.208878 l 0.089317,0.07515 v 0.690434 0.690433 l -0.9083548,0.903088 c -1.0314429,1.025462 -1.067849,1.052106 -1.457441,1.066631 -0.15922412,0.0059 -0.24874514,-0.0061 -0.35080856,-0.04701 z"
     id="path27351" />
  <path
     style="fill:#ffffff;stroke-width:0.0285036"
     d="M 4.5048879,21.919665 C 4.151245,21.823953 3.9044079,21.67717 3.618197,21.392389 3.3344818,21.110091 3.2054882,20.898417 3.0881291,20.522565 l -0.066751,-0.213776 v -1.795725 c 0,-2.01525 -0.00578,-1.950289 0.2131935,-2.397168 0.1397126,-0.285127 0.4193086,-0.596242 0.7017366,-0.780841 0.2329773,-0.152278 0.5922402,-0.280336 0.8554268,-0.304913 l 0.1821371,-0.01701 v 2.498271 2.498271 l 4.5243358,-0.0072 4.5243351,-0.0072 1.046823,-1.794637 c 0.575753,-0.98705 1.041763,-1.799697 1.035579,-1.805881 -0.0062,-0.0062 -0.698105,0.387744 -1.5376,0.875397 -0.839496,0.487653 -1.532906,0.886642 -1.540912,0.886642 -0.008,0 -0.01394,-0.529098 -0.01319,-1.175772 l 0.0014,-1.175772 3.090501,-1.790755 c 1.699776,-0.984916 3.100466,-1.785546 3.112646,-1.77918 0.452112,0.23633 3.332659,1.923468 3.425916,2.006561 0.409389,0.364773 0.454245,1.072283 0.09094,1.434354 -0.328659,0.32754 -0.84537,0.396799 -1.282319,0.171878 -0.08807,-0.04533 -0.583409,-0.325339 -1.100749,-0.622231 -0.51734,-0.296891 -0.948155,-0.53543 -0.957368,-0.530086 -0.0092,0.0053 -0.849356,1.468698 -1.866984,3.251898 -1.752806,3.071461 -1.860739,3.252893 -2.049757,3.445593 -0.221703,0.226021 -0.450674,0.366159 -0.7981,0.488464 l -0.228029,0.08027 -4.8741085,0.0057 c -4.6927234,0.0054 -4.8814851,0.0037 -5.0723092,-0.04799 z"
     id="path27390" />
  <path
     style="fill:#ffffff;stroke-width:0.0285036"
     d="m 8.608076,18.941128 c -0.9307667,-0.205245 -1.5838773,-0.99907 -1.5812509,-1.921934 0.0013,-0.456421 0.105214,-0.713076 0.4116239,-1.016648 0.3062238,-0.303388 0.6975383,-0.48242 1.4617885,-0.668789 l 0.1211402,-0.02954 V 8.1651723 1.0261283 l 0.1068883,6.765e-4 c 0.1273488,8.061e-4 0.3963265,0.1063686 0.514233,0.2018151 0.1320207,0.106872 0.2563634,0.3090785 0.3042109,0.4947083 0.032185,0.1248644 0.043789,0.3193672 0.043789,0.7339668 v 0.5640827 h 1.4964371 1.496437 V 4.0047506 4.9881235 H 11.486936 9.9904988 V 6 7.0118765 h 1.4964372 1.496437 V 7.9952494 8.9786223 H 11.486936 9.9904988 v 1.0118765 1.0118762 h 1.4964372 1.496437 V 12 12.997625 H 11.486936 9.9904988 v 1.162164 1.162164 l 0.1027692,0.05534 c 0.227172,0.12234 0.382039,0.405117 0.381592,0.696759 -8.53e-4,0.554848 -0.5117548,1.586512 -1.3454791,2.716917 -0.1603467,0.217406 -0.1846207,0.224398 -0.5213049,0.150154 z"
     id="path27429" />
  <path
     style="fill:#ffffff;stroke-width:0.0285036"
     d="m 21.853712,22.710214 c -0.302916,-0.547949 -0.531324,-1.169121 -0.652438,-1.774347 -0.07825,-0.391029 -0.07141,-1.324652 0.01246,-1.701171 0.08278,-0.371604 0.184667,-0.670139 0.333848,-0.978164 0.123097,-0.254168 0.382733,-0.675393 0.436956,-0.708905 0.0304,-0.01879 0.4953,0.534512 0.832419,0.990704 0.537555,0.727423 0.971031,1.526141 1.100078,2.02699 0.06149,0.23865 0.07107,0.326782 0.05885,0.541567 -0.04111,0.722738 -0.457865,1.344663 -1.125885,1.68017 -0.190006,0.09543 -0.540773,0.186814 -0.717057,0.186814 h -0.133474 z"
     id="path27468" />
</svg>
