<?xml version="1.0" encoding="UTF-8" standalone="no"?>
<svg
   version="1.1"
   width="24"
   height="24"
   viewBox="0 0 24 24"
   id="svg4"
   sodipodi:docname="oil_level_yellow.svg"
   inkscape:version="1.1 (c68e22c387, 2021-05-23)"
   xmlns:inkscape="http://www.inkscape.org/namespaces/inkscape"
   xmlns:sodipodi="http://sodipodi.sourceforge.net/DTD/sodipodi-0.dtd"
   xmlns="http://www.w3.org/2000/svg"
   xmlns:svg="http://www.w3.org/2000/svg">
  <defs
     id="defs8" />
  <sodipodi:namedview
     id="namedview6"
     pagecolor="#ffffff"
     bordercolor="#666666"
     borderopacity="1.0"
     inkscape:pageshadow="2"
     inkscape:pageopacity="0.0"
     inkscape:pagecheckerboard="0"
     showgrid="false"
     inkscape:zoom="34.666667"
     inkscape:cx="11.985577"
     inkscape:cy="12.014423"
     inkscape:window-width="1920"
     inkscape:window-height="1017"
     inkscape:window-x="-8"
     inkscape:window-y="-8"
     inkscape:window-maximized="1"
     inkscape:current-layer="svg4" />
  <path
     d="M8 18C6.67 18 5.79 18.79 5.29 19.29S4.67 20 4 20 3.21 19.79 2.71 19.29C2.35 18.93 1.79 18.42 1 18.16V20.41C1.09 20.5 1.18 20.59 1.29 20.71C1.79 21.21 2.67 22 4 22S6.21 21.21 6.71 20.71 7.33 20 8 20 8.79 20.21 9.29 20.71C9.73 21.14 10.44 21.8 11.5 21.96C11.66 22 11.83 22 12 22C13.33 22 14.21 21.21 14.71 20.71S15.33 20 16 20 16.79 20.21 17.29 20.71 18.67 22 20 22 22.21 21.21 22.71 20.71C22.82 20.59 22.91 20.5 23 20.41V18.16C22.21 18.42 21.65 18.93 21.29 19.29C20.79 19.79 20.67 20 20 20S19.21 19.79 18.71 19.29 17.33 18 16 18 13.79 18.79 13.29 19.29 12.67 20 12 20C11.78 20 11.63 19.97 11.5 19.92C11.22 19.82 11.05 19.63 10.71 19.29C10.21 18.79 9.33 18 8 18M22 10.5C22 10.5 24 12.67 24 14C24 15.1 23.1 16 22 16S20 15.1 20 14C20 12.67 22 10.5 22 10.5M22.5 7.13L19.24 5.24L12.73 9C12.39 8.4 11.74 8 11 8H9V6H10C10.55 6 11 5.55 11 5S10.55 4 10 4H6C5.45 4 5 4.45 5 5S5.45 6 6 6H7V8H5C3.9 8 3 8.9 3 10V13C3 14.1 3.9 15 5 15H14C14.75 15 15.41 14.58 15.75 13.97L19.4 7.65L21.5 8.86C22 9.14 22.59 8.97 22.87 8.5C23.14 8 23 7.4 22.5 7.13M14 13H5V10H11.69L12.6 11.43L16.06 9.43L14 13M3.5 6.92L1.79 8.62A1 1 0 0 1 .38 7.21L2.09 5.5A1 1 0 0 1 3.5 5.5C3.89 5.89 3.89 6.5 3.5 6.92Z"
     id="path2" />
  <path
     style="fill:#ff0000;stroke-width:0.0288462"
     d="M 3.4371713,21.936575 C 2.7104306,21.799275 2.0890758,21.445509 1.3932648,20.772885 L 1.0240385,20.415963 v -1.110147 -1.110147 l 0.078119,0.01961 c 0.1409209,0.03537 0.5910583,0.275855 0.8560065,0.457322 0.1517497,0.103935 0.4685072,0.37937 0.7613849,0.662058 0.3215564,0.310368 0.553774,0.510553 0.6471246,0.557857 0.3103039,0.157243 0.9413562,0.160122 1.260247,0.0057 0.081947,-0.03967 0.3096017,-0.23588 0.5963729,-0.513999 0.5360045,-0.519834 0.8576469,-0.771078 1.2484338,-0.975187 0.5299082,-0.276773 0.9640999,-0.384056 1.5475039,-0.382369 0.611567,0.0018 1.134375,0.148601 1.6654575,0.467747 0.3534024,0.212373 0.5939594,0.406539 1.0764044,0.868827 0.238794,0.228816 0.493747,0.450943 0.566562,0.493615 0.293988,0.172288 0.864628,0.206439 1.221072,0.07308 0.138942,-0.05198 0.237541,-0.131899 0.6442,-0.522122 0.526598,-0.505312 0.761741,-0.696672 1.122385,-0.913396 0.531082,-0.319146 1.05389,-0.465978 1.665457,-0.467747 0.583404,-0.0017 1.017596,0.105596 1.547504,0.382369 0.39308,0.205307 0.719218,0.459995 1.250573,0.976602 0.287539,0.279557 0.511536,0.472859 0.594158,0.512737 0.322434,0.155626 0.950035,0.151332 1.265763,-0.0087 0.0981,-0.04971 0.304148,-0.225153 0.587867,-0.500546 0.473546,-0.459652 0.630107,-0.594545 0.902866,-0.777912 0.199946,-0.134417 0.64975,-0.366257 0.768343,-0.396022 l 0.07812,-0.01961 v 1.106963 1.106963 l -0.32452,0.319133 c -0.508925,0.500479 -0.786994,0.704925 -1.277383,0.939179 -0.870901,0.41602 -1.891704,0.41487 -2.76478,-0.0031 -0.471653,-0.225803 -0.800781,-0.478117 -1.479958,-1.134553 -0.476334,-0.460386 -0.579763,-0.515064 -1.01054,-0.534223 -0.32933,-0.01465 -0.592039,0.02498 -0.77106,0.116312 -0.06338,0.03233 -0.303843,0.242498 -0.534363,0.467031 -0.487508,0.474846 -0.656184,0.619503 -0.952781,0.817109 -0.775257,0.51651 -1.682498,0.702709 -2.509615,0.515064 C 10.562351,21.732624 10.074214,21.435278 9.225401,20.616758 8.9686024,20.369124 8.7086677,20.141095 8.6477686,20.110027 8.4731299,20.020933 8.207914,19.981487 7.8812192,19.996016 7.438828,20.015692 7.3596176,20.060254 6.7869456,20.611632 6.5286447,20.860329 6.2165331,21.139845 6.0933643,21.23278 5.6591688,21.560393 5.2160605,21.777367 4.7363498,21.897261 4.41918,21.976531 3.755037,21.996628 3.4371713,21.936575 Z"
     id="path65" />
  <path
     style="fill:#ff0000;stroke-width:0.0288462"
     d="M 4.8028846,14.971898 C 4.0692161,14.893987 3.4278736,14.400873 3.1511578,13.701923 3.0210107,13.373187 3.0144231,13.267252 3.0144231,11.503101 c 0,-1.9047178 0.00257,-1.932437 0.2212879,-2.3857696 C 3.4796399,8.611742 3.9665332,8.2207385 4.5324013,8.0760138 4.7347626,8.0242587 4.8549004,8.0192308 5.8892296,8.0192308 H 7.0240385 V 7.0096154 6 L 6.5408654,5.9997808 C 5.7868655,5.999442 5.5551387,5.9392392 5.3019447,5.6779092 5.062886,5.4311688 4.9669362,5.0963447 5.0463999,4.7861672 5.1298074,4.460596 5.3224155,4.230255 5.6299182,4.0883347 l 0.1393126,-0.064296 2.162584,-0.0081 c 2.1302502,-0.00798 2.1655832,-0.00719 2.3632022,0.052838 0.171706,0.052154 0.226238,0.086578 0.378401,0.2388665 0.23595,0.2361447 0.31341,0.430438 0.296012,0.7424873 -0.0152,0.2725714 -0.09539,0.4487025 -0.29582,0.6497573 -0.241457,0.2422055 -0.370409,0.2769443 -1.0894754,0.2934978 l -0.5985577,0.013779 v 1.0060313 1.0060316 l 1.1177881,5.019e-4 c 1.270464,5.683e-4 1.374674,0.01256 1.760064,0.2025222 0.295249,0.1455303 0.53596,0.3430105 0.718159,0.5891775 0.07676,0.1037123 0.149569,0.1885682 0.161795,0.1885685 0.01223,0 1.474864,-0.8388935 3.250307,-1.8642078 1.775442,-1.0253146 3.236455,-1.8642022 3.246693,-1.8641948 0.04802,3.46e-5 3.358327,1.9367893 3.448696,2.0177235 0.05663,0.050713 0.140465,0.1610493 0.18631,0.2451923 0.117914,0.2164128 0.135433,0.5655615 0.04096,0.816236 -0.186788,0.4956055 -0.782392,0.7553781 -1.267307,0.552735 C 21.561779,8.8670198 21.026011,8.5687702 20.458443,8.2407084 19.890874,7.9126451 19.416722,7.6442308 19.40477,7.6442308 c -0.01195,0 -0.824901,1.3921875 -1.806554,3.0937502 -0.981652,1.701562 -1.854146,3.199439 -1.938874,3.328616 -0.34773,0.530144 -0.853403,0.837368 -1.488364,0.904261 -0.303841,0.03201 -9.067298,0.03298 -9.3680934,10e-4 z m 10.2424014,-3.74422 c 0.56433,-0.979309 1.016203,-1.7846259 1.004162,-1.7895917 -0.01204,-0.00497 -0.789345,0.4345029 -1.727342,0.9765977 -0.937997,0.542095 -1.714389,0.976752 -1.725316,0.965904 -0.01093,-0.01085 -0.215471,-0.326999 -0.454542,-0.702559 L 11.707573,9.9951923 8.3417671,9.9878611 4.9759615,9.9805298 v 1.5145432 1.514542 l 4.5216347,-6.86e-4 4.5216348,-6.87e-4 1.026055,-1.780563 z"
     id="path104" />
  <path
     style="fill:#ff0000;stroke-width:0.0288462"
     d="M 0.91971652,8.8150448 C 0.62559288,8.7436656 0.38289937,8.5432627 0.24018643,8.2539265 0.18636953,8.1448183 0.17416277,8.0723864 0.17389631,7.8605769 0.17336742,7.4401643 0.17503249,7.4378663 1.2754024,6.3403856 2.3667311,5.2519224 2.3903493,5.2348014 2.7980769,5.2365883 c 0.1871081,8.2e-4 0.2618588,0.015393 0.3950914,0.077024 0.1998776,0.092461 0.3915245,0.2781363 0.4859336,0.4707934 C 3.7810457,5.9924383 3.792407,6.3271059 3.7055172,6.5625 3.645836,6.7241828 3.5796811,6.7979146 2.7006228,7.6824885 2.1830687,8.2032897 1.7031159,8.6628756 1.634061,8.7037901 1.5105039,8.7769967 1.2380302,8.8567889 1.125,8.8528653 1.0932692,8.8517634 1.0008917,8.8347447 0.91971652,8.8150448 Z"
     id="path143" />
  <path
     style="fill:#ffff00;stroke-width:0.0288462"
     d="m 21.677885,15.960964 c -0.129591,-0.02147 -0.439264,-0.126784 -0.574858,-0.195494 -0.715797,-0.362722 -1.184418,-1.222896 -1.070228,-1.964451 0.09184,-0.596434 0.517287,-1.426452 1.189503,-2.320656 0.255419,-0.339766 0.677475,-0.855453 0.748113,-0.914077 0.03166,-0.02627 0.08866,0.02487 0.284585,0.255336 0.925283,1.088394 1.564487,2.180183 1.701287,2.905873 0.06906,0.366351 0.0044,0.751417 -0.193879,1.155151 -0.107741,0.219345 -0.178724,0.317645 -0.366292,0.50725 -0.191258,0.193335 -0.281414,0.259239 -0.506693,0.370393 -0.150721,0.07437 -0.364904,0.154172 -0.475961,0.177345 -0.187401,0.0391 -0.567602,0.05116 -0.735577,0.02333 z"
     id="path182" />
  <path
     style="fill:#ffff00;stroke-width:0.0288462"
     d="M 11.694402,21.95093 C 11.232059,21.899584 10.730037,21.732766 10.342953,21.501854 10.05273,21.328724 9.7817965,21.109177 9.2503387,20.616472 9.0072557,20.391114 8.7565321,20.171779 8.693175,20.12906 8.530781,20.019564 8.3143289,19.982843 7.9071404,19.99571 7.3962831,20.01185 7.4356578,19.98781 6.4851424,20.863959 5.7952085,21.499913 5.1616405,21.833891 4.4726983,21.924796 4.0668225,21.978346 3.459043,21.946626 3.1565928,21.856096 2.5020608,21.660175 1.981576,21.323248 1.3052885,20.657682 l -0.28125,-0.276792 v -1.088204 -1.088204 l 0.1221583,0.0431 c 0.1518322,0.05357 0.495459,0.240635 0.7432263,0.4046 0.1925234,0.127407 0.3954916,0.301944 1.0146818,0.872545 0.19553,0.180186 0.400942,0.350582 0.4564713,0.378658 0.2950203,0.14916 0.9528815,0.156225 1.2537284,0.01346 0.089877,-0.04265 0.2203281,-0.155648 0.9674262,-0.838003 0.8579827,-0.78363 1.7362803,-1.114076 2.7136133,-1.020955 0.8711859,0.08301 1.4723034,0.398981 2.3921559,1.257424 0.678509,0.63321 0.743668,0.66934 1.254991,0.695875 0.331586,0.01721 0.597424,-0.03528 0.764601,-0.150965 0.05573,-0.03856 0.289381,-0.246744 0.519231,-0.462624 0.685003,-0.643373 1.063511,-0.913989 1.573881,-1.125258 0.454209,-0.18802 0.96859,-0.261107 1.505851,-0.21396 0.752473,0.06603 1.420687,0.388863 2.112214,1.020463 0.970251,0.886169 0.934709,0.859753 1.231882,0.915573 0.239623,0.04501 0.709278,0.01545 0.897067,-0.05646 0.172667,-0.06612 0.323339,-0.188021 0.841379,-0.680709 0.198772,-0.189045 0.461742,-0.418426 0.584379,-0.509737 0.237257,-0.176651 0.686857,-0.431489 0.883932,-0.501021 l 0.119054,-0.042 v 1.091318 1.091317 l -0.368508,0.356922 c -0.542743,0.52568 -0.88712,0.767159 -1.381499,0.968715 -0.469376,0.191363 -0.631326,0.220928 -1.221147,0.222932 -0.471798,0.0016 -0.562001,-0.0059 -0.77821,-0.06499 -0.698071,-0.190694 -1.183356,-0.495028 -1.947752,-1.221479 -0.64868,-0.616479 -0.7302,-0.658829 -1.26818,-0.658829 -0.363092,0 -0.570838,0.0437 -0.728718,0.153301 -0.05988,0.04157 -0.323054,0.277478 -0.584833,0.524248 -0.261778,0.24677 -0.586298,0.527613 -0.721153,0.624095 -0.696487,0.498301 -1.538381,0.741435 -2.28156,0.658901 z"
     id="path266" />
  <path
     style="fill:#ffff00;stroke-width:0.0288462"
     d="M 4.6153846,14.925148 C 3.855737,14.767851 3.1919852,14.086494 3.0716715,13.340489 3.0276536,13.067555 3.0273351,9.9279537 3.0712971,9.6490385 3.0927667,9.5128249 3.1502201,9.3501891 3.2478492,9.1492644 3.3648507,8.9084703 3.4323349,8.811274 3.6001334,8.6418759 3.828736,8.4110937 4.1113901,8.2306214 4.3990385,8.1317818 4.6162315,8.0571516 5.1728559,8.0255253 6.3389423,8.0215604 l 0.6850962,-0.00233 V 7.0148798 6.0105289 L 6.4110577,5.9790141 C 5.6950985,5.9422048 5.5946339,5.9160403 5.3656366,5.7067497 5.1381869,5.4988734 5.0480705,5.2996636 5.0480999,5.0048077 5.0481188,4.8150492 5.061807,4.7448363 5.1251244,4.6097164 5.2214466,4.4041637 5.4075323,4.2157104 5.6138579,4.1147648 l 0.1587921,-0.07769 2.2338674,0.0079 2.2338676,0.0079 0.164498,0.08078 c 0.17813,0.087474 0.385801,0.2955425 0.47247,0.4733739 0.0644,0.1321413 0.0886,0.4947198 0.04406,0.6601302 -0.06934,0.2574883 -0.368436,0.5782084 -0.603047,0.6466353 -0.08595,0.025067 -0.8961409,0.080061 -1.2534632,0.085082 L 8.9855769,6 v 1.0058054 1.0058057 l 1.1322111,0.02042 c 1.272981,0.022959 1.39395,0.037741 1.742349,0.2129132 0.285919,0.1437571 0.507502,0.3226702 0.701372,0.5663094 C 12.644113,8.9150642 12.72598,9 12.743435,9 12.784695,9 12.897161,8.936127 15.908654,7.2023348 17.31274,6.3939669 18.638869,5.6320316 18.855606,5.5091453 l 0.394068,-0.2234297 0.932855,0.5384015 c 0.513071,0.2961208 1.286746,0.7493027 1.719279,1.0070708 0.853419,0.5085954 0.939581,0.5820919 1.020366,0.8703714 0.178294,0.6362444 -0.27584,1.245206 -0.930938,1.248322 -0.246249,0.00117 -0.293553,-0.021358 -1.551831,-0.7390795 -0.546308,-0.311614 -1.007193,-0.566571 -1.024188,-0.566571 -0.04054,0 -0.0443,0.00634 -1.754334,2.9567312 -2.141578,3.694945 -2.048135,3.540809 -2.301283,3.795993 -0.168208,0.169562 -0.272514,0.246097 -0.461538,0.338656 -0.491715,0.240778 -0.0058,0.220187 -5.335562,0.226091 -4.0469163,0.0045 -4.7749062,-8.97e-4 -4.9471154,-0.03655 z m 9.6295814,-2.27611 c 1.350695,-2.342152 1.822006,-3.1830275 1.797709,-3.2073241 -0.0091,-0.00914 -0.734265,0.3923758 -1.611381,0.8922661 -0.877115,0.499891 -1.647625,0.935548 -1.712243,0.968128 L 12.601563,11.361348 12.158556,10.67106 11.715549,9.9807722 H 8.3457554 4.9759615 v 1.5145128 1.514513 l 4.5346907,-0.0073 4.5346908,-0.0073 z"
     id="path305" />
  <path
     style="fill:#ffff00;stroke-width:0.0288462"
     d="M 0.85096154,8.7788564 C 0.57986063,8.6806393 0.37673165,8.4953357 0.25542114,8.2355769 0.20247581,8.1222066 0.1880033,8.0416383 0.1877818,7.8590292 0.187315,7.4741975 0.20690975,7.4471466 1.2235711,6.4290995 2.1698574,5.4815236 2.3453736,5.3269556 2.5322166,5.276644 2.7158864,5.2271869 3.033778,5.2539998 3.1947121,5.332523 c 0.1865302,0.091012 0.385164,0.2909893 0.4699748,0.4731541 0.057174,0.1228051 0.070326,0.1969071 0.070326,0.396246 0,0.4138504 -0.00313,0.418162 -1.0926879,1.5065744 C 1.8335957,8.5163749 1.6730144,8.6636697 1.529227,8.7294978 1.3174742,8.8264413 1.0383691,8.8467522 0.85096154,8.7788564 Z"
     id="path344" />
</svg>
