<?xml version="1.0" encoding="UTF-8" standalone="no"?>
<svg
   version="1.1"
   width="24"
   height="24"
   viewBox="0 0 24 24"
   id="svg5371"
   sodipodi:docname="oil_yellow.svg"
   inkscape:version="1.1 (c68e22c387, 2021-05-23)"
   xmlns:inkscape="http://www.inkscape.org/namespaces/inkscape"
   xmlns:sodipodi="http://sodipodi.sourceforge.net/DTD/sodipodi-0.dtd"
   xmlns="http://www.w3.org/2000/svg"
   xmlns:svg="http://www.w3.org/2000/svg">
  <defs
     id="defs5375" />
  <sodipodi:namedview
     id="namedview5373"
     pagecolor="#ffffff"
     bordercolor="#666666"
     borderopacity="1.0"
     inkscape:pageshadow="2"
     inkscape:pageopacity="0.0"
     inkscape:pagecheckerboard="0"
     showgrid="false"
     inkscape:zoom="34.666667"
     inkscape:cx="11.985577"
     inkscape:cy="12.014423"
     inkscape:window-width="1920"
     inkscape:window-height="1017"
     inkscape:window-x="-8"
     inkscape:window-y="-8"
     inkscape:window-maximized="1"
     inkscape:current-layer="svg5371" />
  <path
     d="M22,12.5C22,12.5 24,14.67 24,16C24,17.1 23.1,18 22,18C20.9,18 20,17.1 20,16C20,14.67 22,12.5 22,12.5M6,6H10C10.55,6 11,6.45 11,7C11,7.55 10.55,8 10,8H9V10H11C11.74,10 12.39,10.4 12.73,11L19.24,7.24L22.5,9.13C23,9.4 23.14,10 22.87,10.5C22.59,10.97 22,11.14 21.5,10.86L19.4,9.65L15.75,15.97C15.41,16.58 14.75,17 14,17H5C3.9,17 3,16.1 3,15V12C3,10.9 3.9,10 5,10H7V8H6C5.45,8 5,7.55 5,7C5,6.45 5.45,6 6,6M5,12V15H14L16.06,11.43L12.6,13.43L11.69,12H5M0.38,9.21L2.09,7.5C2.5,7.11 3.11,7.11 3.5,7.5C3.89,7.89 3.89,8.5 3.5,8.91L1.79,10.62C1.4,11 0.77,11 0.38,10.62C0,10.23 0,9.6 0.38,9.21Z"
     id="path5369" />
  <path
     style="fill:#ffff00;stroke-width:0.0288462"
     d="M 4.6298077,16.947505 C 4.2281834,16.86601 3.8911988,16.68303 3.595771,16.386029 3.368674,16.157723 3.2153387,15.908196 3.107435,15.591346 L 3.0288462,15.360577 V 13.5 11.639423 l 0.078589,-0.230769 c 0.1981536,-0.581861 0.6250498,-1.037368 1.1762188,-1.25505 0.32229,-0.127288 0.5149681,-0.143989 1.6611915,-0.143989 h 1.079193 V 9 7.9903846 H 6.4773813 c -0.6403732,0 -0.7758738,-0.023346 -1.0086291,-0.1737832 C 5.1705773,7.6238816 4.9722697,7.2189461 5.0186365,6.8974846 5.0637462,6.5847388 5.2863824,6.2670844 5.55797,6.1279707 5.7987692,6.0046276 5.9683145,5.9965967 8.136795,6.0058196 l 2.045897,0.0087 0.16447,0.066405 c 0.365408,0.1475344 0.600277,0.4747499 0.622142,0.8667559 0.01755,0.3147229 -0.05961,0.5090879 -0.293703,0.7398176 -0.266523,0.2626919 -0.33829,0.2824367 -1.0770433,0.2963215 l -0.6129808,0.011521 v 1.0051211 1.0051213 l 1.1754811,0.01163 c 1.013482,0.01003 1.199333,0.01862 1.348557,0.06234 0.189449,0.0555 0.528401,0.217022 0.646384,0.308023 0.146983,0.11337 0.385712,0.359822 0.47215,0.487425 0.04836,0.07139 0.09071,0.133608 0.09411,0.138253 0.0034,0.0046 0.374489,-0.204404 0.824652,-0.464553 4.142806,-2.3941291 5.679787,-3.2794691 5.693272,-3.2794691 0.0087,0 0.771626,0.4381009 1.695347,0.9735577 1.811184,1.0498955 1.874175,1.0938504 1.982511,1.3834038 0.07896,0.2110515 0.07735,0.5024216 -0.004,0.7198246 -0.11811,0.315679 -0.458248,0.582465 -0.803077,0.629891 -0.274873,0.0378 -0.421381,-0.02694 -1.608945,-0.711051 -0.608201,-0.3503611 -1.109888,-0.6322495 -1.11486,-0.6264191 -0.005,0.00583 -0.836864,1.4449751 -1.84865,3.1981001 -1.011786,1.753125 -1.875486,3.239865 -1.919333,3.303866 -0.149339,0.21798 -0.471084,0.491984 -0.725371,0.617741 -0.477864,0.236327 0.01549,0.215736 -5.3168849,0.221902 -3.8433859,0.0044 -4.7957093,-0.0018 -4.9471154,-0.03254 z M 15.013342,13.276442 c 0.5461,-0.947956 1.013102,-1.755385 1.037782,-1.794285 0.04265,-0.06723 0.04202,-0.06964 -0.01274,-0.04871 -0.04534,0.01733 -2.984154,1.706464 -3.346075,1.923222 l -0.08654,0.05183 -0.44694,-0.704248 L 11.711889,12 H 8.3439251 4.9759615 v 1.5 1.5 h 4.5222358 4.5222357 z"
     id="path5432" />
  <path
     style="fill:#ffff00;stroke-width:0.0288462"
     d="M 0.92741789,10.872866 C 0.50144103,10.803588 0.17249382,10.457796 0.11559096,10.019466 0.08964999,9.8196391 0.16148641,9.5450778 0.28798312,9.3605769 0.3423709,9.28125 0.79314724,8.8115086 1.2897083,8.3167071 2.1071447,7.5021673 2.2111812,7.4083478 2.389546,7.3248809 2.7598657,7.1515873 3.1392012,7.2086714 3.4398121,7.4829296 3.6572137,7.681273 3.7422966,7.8595455 3.7577207,8.1490385 3.7677516,8.3373114 3.7581995,8.4116799 3.7058507,8.5528846 3.6458215,8.7148059 3.5784689,8.789476 2.6608897,9.7113733 2.0302717,10.344959 1.6324953,10.722585 1.5467776,10.769047 1.4290562,10.832856 1.3631788,10.851275 1.125,10.88697 1.093269,10.89177 1.0043573,10.88537 0.92741789,10.87287 Z"
     id="path5471" />
  <path
     style="fill:#ffff00;stroke-width:0.0288462"
     d="m 21.773599,17.965645 c -0.882756,-0.09119 -1.615484,-0.81625 -1.739387,-1.721186 -0.08023,-0.58595 0.17811,-1.279376 0.850508,-2.282921 0.267802,-0.39969 0.724364,-0.994232 1.0079,-1.3125 l 0.102793,-0.115384 0.119799,0.129808 c 0.230431,0.249683 0.719226,0.880318 0.971544,1.25347 0.857944,1.268812 1.064909,2.024786 0.762453,2.784991 -0.114132,0.286865 -0.278832,0.526043 -0.512521,0.744282 -0.432113,0.403546 -0.966353,0.581083 -1.563089,0.51944 z"
     id="path5510" />
</svg>
