<?xml version="1.0" encoding="UTF-8" standalone="no"?>
<svg
   version="1.1"
   width="24"
   height="24"
   viewBox="0 0 24 24"
   id="svg4"
   sodipodi:docname="oil_level_red.svg"
   inkscape:version="1.1 (c68e22c387, 2021-05-23)"
   xmlns:inkscape="http://www.inkscape.org/namespaces/inkscape"
   xmlns:sodipodi="http://sodipodi.sourceforge.net/DTD/sodipodi-0.dtd"
   xmlns="http://www.w3.org/2000/svg"
   xmlns:svg="http://www.w3.org/2000/svg">
  <defs
     id="defs8" />
  <sodipodi:namedview
     id="namedview6"
     pagecolor="#ffffff"
     bordercolor="#666666"
     borderopacity="1.0"
     inkscape:pageshadow="2"
     inkscape:pageopacity="0.0"
     inkscape:pagecheckerboard="0"
     showgrid="false"
     inkscape:zoom="34.666667"
     inkscape:cx="11.985577"
     inkscape:cy="12.014423"
     inkscape:window-width="1920"
     inkscape:window-height="1017"
     inkscape:window-x="-8"
     inkscape:window-y="-8"
     inkscape:window-maximized="1"
     inkscape:current-layer="svg4" />
  <path
     d="M8 18C6.67 18 5.79 18.79 5.29 19.29S4.67 20 4 20 3.21 19.79 2.71 19.29C2.35 18.93 1.79 18.42 1 18.16V20.41C1.09 20.5 1.18 20.59 1.29 20.71C1.79 21.21 2.67 22 4 22S6.21 21.21 6.71 20.71 7.33 20 8 20 8.79 20.21 9.29 20.71C9.73 21.14 10.44 21.8 11.5 21.96C11.66 22 11.83 22 12 22C13.33 22 14.21 21.21 14.71 20.71S15.33 20 16 20 16.79 20.21 17.29 20.71 18.67 22 20 22 22.21 21.21 22.71 20.71C22.82 20.59 22.91 20.5 23 20.41V18.16C22.21 18.42 21.65 18.93 21.29 19.29C20.79 19.79 20.67 20 20 20S19.21 19.79 18.71 19.29 17.33 18 16 18 13.79 18.79 13.29 19.29 12.67 20 12 20C11.78 20 11.63 19.97 11.5 19.92C11.22 19.82 11.05 19.63 10.71 19.29C10.21 18.79 9.33 18 8 18M22 10.5C22 10.5 24 12.67 24 14C24 15.1 23.1 16 22 16S20 15.1 20 14C20 12.67 22 10.5 22 10.5M22.5 7.13L19.24 5.24L12.73 9C12.39 8.4 11.74 8 11 8H9V6H10C10.55 6 11 5.55 11 5S10.55 4 10 4H6C5.45 4 5 4.45 5 5S5.45 6 6 6H7V8H5C3.9 8 3 8.9 3 10V13C3 14.1 3.9 15 5 15H14C14.75 15 15.41 14.58 15.75 13.97L19.4 7.65L21.5 8.86C22 9.14 22.59 8.97 22.87 8.5C23.14 8 23 7.4 22.5 7.13M14 13H5V10H11.69L12.6 11.43L16.06 9.43L14 13M3.5 6.92L1.79 8.62A1 1 0 0 1 .38 7.21L2.09 5.5A1 1 0 0 1 3.5 5.5C3.89 5.89 3.89 6.5 3.5 6.92Z"
     id="path2" />
  <path
     style="fill:#ff0000;stroke-width:0.0288462"
     d="M 3.4371713,21.936575 C 2.7104306,21.799275 2.0890758,21.445509 1.3932648,20.772885 L 1.0240385,20.415963 v -1.110147 -1.110147 l 0.078119,0.01961 c 0.1409209,0.03537 0.5910583,0.275855 0.8560065,0.457322 0.1517497,0.103935 0.4685072,0.37937 0.7613849,0.662058 0.3215564,0.310368 0.553774,0.510553 0.6471246,0.557857 0.3103039,0.157243 0.9413562,0.160122 1.260247,0.0057 0.081947,-0.03967 0.3096017,-0.23588 0.5963729,-0.513999 0.5360045,-0.519834 0.8576469,-0.771078 1.2484338,-0.975187 0.5299082,-0.276773 0.9640999,-0.384056 1.5475039,-0.382369 0.611567,0.0018 1.134375,0.148601 1.6654575,0.467747 0.3534024,0.212373 0.5939594,0.406539 1.0764044,0.868827 0.238794,0.228816 0.493747,0.450943 0.566562,0.493615 0.293988,0.172288 0.864628,0.206439 1.221072,0.07308 0.138942,-0.05198 0.237541,-0.131899 0.6442,-0.522122 0.526598,-0.505312 0.761741,-0.696672 1.122385,-0.913396 0.531082,-0.319146 1.05389,-0.465978 1.665457,-0.467747 0.583404,-0.0017 1.017596,0.105596 1.547504,0.382369 0.39308,0.205307 0.719218,0.459995 1.250573,0.976602 0.287539,0.279557 0.511536,0.472859 0.594158,0.512737 0.322434,0.155626 0.950035,0.151332 1.265763,-0.0087 0.0981,-0.04971 0.304148,-0.225153 0.587867,-0.500546 0.473546,-0.459652 0.630107,-0.594545 0.902866,-0.777912 0.199946,-0.134417 0.64975,-0.366257 0.768343,-0.396022 l 0.07812,-0.01961 v 1.106963 1.106963 l -0.32452,0.319133 c -0.508925,0.500479 -0.786994,0.704925 -1.277383,0.939179 -0.870901,0.41602 -1.891704,0.41487 -2.76478,-0.0031 -0.471653,-0.225803 -0.800781,-0.478117 -1.479958,-1.134553 -0.476334,-0.460386 -0.579763,-0.515064 -1.01054,-0.534223 -0.32933,-0.01465 -0.592039,0.02498 -0.77106,0.116312 -0.06338,0.03233 -0.303843,0.242498 -0.534363,0.467031 -0.487508,0.474846 -0.656184,0.619503 -0.952781,0.817109 -0.775257,0.51651 -1.682498,0.702709 -2.509615,0.515064 C 10.562351,21.732624 10.074214,21.435278 9.225401,20.616758 8.9686024,20.369124 8.7086677,20.141095 8.6477686,20.110027 8.4731299,20.020933 8.207914,19.981487 7.8812192,19.996016 7.438828,20.015692 7.3596176,20.060254 6.7869456,20.611632 6.5286447,20.860329 6.2165331,21.139845 6.0933643,21.23278 5.6591688,21.560393 5.2160605,21.777367 4.7363498,21.897261 4.41918,21.976531 3.755037,21.996628 3.4371713,21.936575 Z"
     id="path65" />
  <path
     style="fill:#ff0000;stroke-width:0.0288462"
     d="M 4.8028846,14.971898 C 4.0692161,14.893987 3.4278736,14.400873 3.1511578,13.701923 3.0210107,13.373187 3.0144231,13.267252 3.0144231,11.503101 c 0,-1.9047178 0.00257,-1.932437 0.2212879,-2.3857696 C 3.4796399,8.611742 3.9665332,8.2207385 4.5324013,8.0760138 4.7347626,8.0242587 4.8549004,8.0192308 5.8892296,8.0192308 H 7.0240385 V 7.0096154 6 L 6.5408654,5.9997808 C 5.7868655,5.999442 5.5551387,5.9392392 5.3019447,5.6779092 5.062886,5.4311688 4.9669362,5.0963447 5.0463999,4.7861672 5.1298074,4.460596 5.3224155,4.230255 5.6299182,4.0883347 l 0.1393126,-0.064296 2.162584,-0.0081 c 2.1302502,-0.00798 2.1655832,-0.00719 2.3632022,0.052838 0.171706,0.052154 0.226238,0.086578 0.378401,0.2388665 0.23595,0.2361447 0.31341,0.430438 0.296012,0.7424873 -0.0152,0.2725714 -0.09539,0.4487025 -0.29582,0.6497573 -0.241457,0.2422055 -0.370409,0.2769443 -1.0894754,0.2934978 l -0.5985577,0.013779 v 1.0060313 1.0060316 l 1.1177881,5.019e-4 c 1.270464,5.683e-4 1.374674,0.01256 1.760064,0.2025222 0.295249,0.1455303 0.53596,0.3430105 0.718159,0.5891775 0.07676,0.1037123 0.149569,0.1885682 0.161795,0.1885685 0.01223,0 1.474864,-0.8388935 3.250307,-1.8642078 1.775442,-1.0253146 3.236455,-1.8642022 3.246693,-1.8641948 0.04802,3.46e-5 3.358327,1.9367893 3.448696,2.0177235 0.05663,0.050713 0.140465,0.1610493 0.18631,0.2451923 0.117914,0.2164128 0.135433,0.5655615 0.04096,0.816236 -0.186788,0.4956055 -0.782392,0.7553781 -1.267307,0.552735 C 21.561779,8.8670198 21.026011,8.5687702 20.458443,8.2407084 19.890874,7.9126451 19.416722,7.6442308 19.40477,7.6442308 c -0.01195,0 -0.824901,1.3921875 -1.806554,3.0937502 -0.981652,1.701562 -1.854146,3.199439 -1.938874,3.328616 -0.34773,0.530144 -0.853403,0.837368 -1.488364,0.904261 -0.303841,0.03201 -9.067298,0.03298 -9.3680934,10e-4 z m 10.2424014,-3.74422 c 0.56433,-0.979309 1.016203,-1.7846259 1.004162,-1.7895917 -0.01204,-0.00497 -0.789345,0.4345029 -1.727342,0.9765977 -0.937997,0.542095 -1.714389,0.976752 -1.725316,0.965904 -0.01093,-0.01085 -0.215471,-0.326999 -0.454542,-0.702559 L 11.707573,9.9951923 8.3417671,9.9878611 4.9759615,9.9805298 v 1.5145432 1.514542 l 4.5216347,-6.86e-4 4.5216348,-6.87e-4 1.026055,-1.780563 z"
     id="path104" />
  <path
     style="fill:#ff0000;stroke-width:0.0288462"
     d="M 0.91971652,8.8150448 C 0.62559288,8.7436656 0.38289937,8.5432627 0.24018643,8.2539265 0.18636953,8.1448183 0.17416277,8.0723864 0.17389631,7.8605769 0.17336742,7.4401643 0.17503249,7.4378663 1.2754024,6.3403856 2.3667311,5.2519224 2.3903493,5.2348014 2.7980769,5.2365883 c 0.1871081,8.2e-4 0.2618588,0.015393 0.3950914,0.077024 0.1998776,0.092461 0.3915245,0.2781363 0.4859336,0.4707934 C 3.7810457,5.9924383 3.792407,6.3271059 3.7055172,6.5625 3.645836,6.7241828 3.5796811,6.7979146 2.7006228,7.6824885 2.1830687,8.2032897 1.7031159,8.6628756 1.634061,8.7037901 1.5105039,8.7769967 1.2380302,8.8567889 1.125,8.8528653 1.0932692,8.8517634 1.0008917,8.8347447 0.91971652,8.8150448 Z"
     id="path143" />
  <path
     style="fill:#ff0000;stroke-width:0.0288462"
     d="m 21.677885,15.960964 c -0.129591,-0.02147 -0.439264,-0.126784 -0.574858,-0.195494 -0.715797,-0.362722 -1.184418,-1.222896 -1.070228,-1.964451 0.09184,-0.596434 0.517287,-1.426452 1.189503,-2.320656 0.255419,-0.339766 0.677475,-0.855453 0.748113,-0.914077 0.03166,-0.02627 0.08866,0.02487 0.284585,0.255336 0.925283,1.088394 1.564487,2.180183 1.701287,2.905873 0.06906,0.366351 0.0044,0.751417 -0.193879,1.155151 -0.107741,0.219345 -0.178724,0.317645 -0.366292,0.50725 -0.191258,0.193335 -0.281414,0.259239 -0.506693,0.370393 -0.150721,0.07437 -0.364904,0.154172 -0.475961,0.177345 -0.187401,0.0391 -0.567602,0.05116 -0.735577,0.02333 z"
     id="path182" />
</svg>
