<?xml version="1.0" encoding="UTF-8" standalone="no"?>
<svg
   version="1.1"
   width="24"
   height="24"
   viewBox="0 0 24 24"
   id="svg27094"
   sodipodi:docname="oil_white.svg"
   inkscape:version="1.1 (c68e22c387, 2021-05-23)"
   xmlns:inkscape="http://www.inkscape.org/namespaces/inkscape"
   xmlns:sodipodi="http://sodipodi.sourceforge.net/DTD/sodipodi-0.dtd"
   xmlns="http://www.w3.org/2000/svg"
   xmlns:svg="http://www.w3.org/2000/svg">
  <defs
     id="defs27098" />
  <sodipodi:namedview
     id="namedview27096"
     pagecolor="#ffffff"
     bordercolor="#666666"
     borderopacity="1.0"
     inkscape:pageshadow="2"
     inkscape:pageopacity="0.0"
     inkscape:pagecheckerboard="0"
     showgrid="false"
     inkscape:zoom="35.083333"
     inkscape:cx="11.985748"
     inkscape:cy="11.985748"
     inkscape:window-width="1920"
     inkscape:window-height="1027"
     inkscape:window-x="-8"
     inkscape:window-y="-8"
     inkscape:window-maximized="1"
     inkscape:current-layer="svg27094" />
  <path
     d="M22,12.5C22,12.5 24,14.67 24,16C24,17.1 23.1,18 22,18C20.9,18 20,17.1 20,16C20,14.67 22,12.5 22,12.5M6,6H10C10.55,6 11,6.45 11,7C11,7.55 10.55,8 10,8H9V10H11C11.74,10 12.39,10.4 12.73,11L19.24,7.24L22.5,9.13C23,9.4 23.14,10 22.87,10.5C22.59,10.97 22,11.14 21.5,10.86L19.4,9.65L15.75,15.97C15.41,16.58 14.75,17 14,17H5C3.9,17 3,16.1 3,15V12C3,10.9 3.9,10 5,10H7V8H6C5.45,8 5,7.55 5,7C5,6.45 5.45,6 6,6M5,12V15H14L16.06,11.43L12.6,13.43L11.69,12H5M0.38,9.21L2.09,7.5C2.5,7.11 3.11,7.11 3.5,7.5C3.89,7.89 3.89,8.5 3.5,8.91L1.79,10.62C1.4,11 0.77,11 0.38,10.62C0,10.23 0,9.6 0.38,9.21Z"
     id="path27092" />
  <path
     style="fill:#ffffff;stroke-width:0.0285036"
     d="M 4.670677,16.957231 C 3.8378908,16.816643 3.1586662,16.112828 3.036274,15.263658 3.0133546,15.10464 3.0066609,14.526675 3.0141565,13.353919 c 0.011933,-1.867009 0.00611,-1.805694 0.2116804,-2.22758 0.1885735,-0.386997 0.5056614,-0.701297 0.9137663,-0.905731 0.3824696,-0.191593 0.4108857,-0.195053 1.7107531,-0.208299 l 1.175772,-0.01198 V 8.9906625 7.9809976 L 6.4204276,7.9803211 C 5.8547952,7.9796893 5.8042062,7.9753165 5.6556906,7.9142191 5.2468652,7.7460336 5.0273482,7.4246546 5.0254472,6.9915255 5.024703,6.8219756 5.0393249,6.7544672 5.1087916,6.6067274 5.2119647,6.3873017 5.382488,6.2127721 5.5962853,6.1077807 l 0.1614344,-0.079277 h 2.2381217 2.2381216 l 0.18874,0.092913 c 0.220142,0.1083716 0.371024,0.2632965 0.475254,0.4879897 0.105769,0.2280103 0.105769,0.5484273 0,0.7764376 -0.100321,0.2162675 -0.243733,0.3678243 -0.458004,0.4840159 l -0.17867,0.096886 -0.6342046,0.00909 -0.6342043,0.00909 v 1.0076845 1.0076846 l 1.1615199,0.01104 c 1.139261,0.01083 1.165897,0.01239 1.389909,0.08151 0.430339,0.132768 0.841881,0.426892 1.072025,0.766164 0.05294,0.07805 0.107463,0.142236 0.121155,0.14264 0.01369,4.05e-4 0.32153,-0.170837 0.684085,-0.380537 3.202118,-1.8520838 5.806283,-3.3526948 5.818277,-3.3526948 0.05634,0 3.385166,1.962407 3.471753,2.0466624 0.355947,0.3463627 0.364164,0.9490064 0.0181,1.3276534 -0.190887,0.208861 -0.393511,0.307696 -0.663018,0.323406 -0.130465,0.0076 -0.252502,-0.003 -0.337239,-0.02935 -0.07303,-0.0227 -0.628339,-0.326647 -1.23401,-0.675441 -0.605671,-0.3487943 -1.104953,-0.6293808 -1.109516,-0.6235259 -0.0046,0.00586 -0.840278,1.4525409 -1.857145,3.2148559 -1.016868,1.762316 -1.90467,3.278467 -1.972893,3.369224 -0.223869,0.297811 -0.646527,0.579801 -1.051391,0.701469 -0.156558,0.04705 -0.470056,0.05051 -4.9272909,0.05442 -2.6180522,0.0023 -4.8259862,-0.007 -4.9065201,-0.02055 z m 10.370854,-3.726779 c 0.563791,-0.97717 1.018356,-1.783391 1.010146,-1.791602 -0.0082,-0.0082 -0.772723,0.423021 -1.698916,0.958294 -0.926192,0.535272 -1.699781,0.979279 -1.719086,0.986681 -0.02135,0.0082 -0.208109,-0.259829 -0.476905,-0.684425 L 11.714964,12.001517 8.3444181,12.000758 4.9738717,12 v 1.510777 1.510776 l 4.5212928,-0.0072 4.5212925,-0.0072 z"
     id="path27174" />
  <path
     style="fill:#ffffff;stroke-width:0.0285036"
     d="M 0.78610261,10.843235 C 0.1385072,10.607759 -0.08824369,9.8739561 0.31561636,9.3206651 0.36710976,9.2501188 0.8109858,8.7930273 1.3020076,8.3049064 c 0.9563899,-0.95074 1.0337696,-1.0114652 1.362699,-1.069405 0.3019696,-0.053191 0.687199,0.097981 0.8845023,0.3470972 0.267559,0.3378205 0.2933157,0.7869147 0.065802,1.14732 -0.039951,0.063287 -0.4977007,0.5369166 -1.0172211,1.0525108 -1.0665737,1.0585126 -1.0957861,1.0803416 -1.467946,1.0969246 -0.1499675,0.0067 -0.25694673,-0.0046 -0.34374079,-0.03612 z"
     id="path27213" />
  <path
     style="fill:#ffffff;stroke-width:0.0285036"
     d="m 21.605701,17.943567 c -0.626162,-0.137844 -1.13261,-0.541699 -1.400774,-1.117012 -0.366034,-0.78528 -0.188952,-1.564586 0.638846,-2.811457 0.310078,-0.467054 1.093195,-1.46842 1.151394,-1.472276 0.0243,-0.0016 0.414039,0.454886 0.655974,0.768342 0.856044,1.109112 1.334607,2.080088 1.334607,2.707838 0,0.255666 -0.08073,0.571191 -0.218778,0.855107 -0.110068,0.226366 -0.171888,0.311006 -0.376871,0.51599 -0.204984,0.204983 -0.289624,0.266803 -0.51599,0.376871 -0.422449,0.205411 -0.860486,0.266398 -1.268408,0.176597 z"
     id="path27252" />
</svg>
